{"glyphs":{"0":{"ha":700,"x_min":57,"x_max":644,"o":"m 286 0 q 177 28 221 1 q 107 98 133 56 q 69 194 81 140 q 57 301 57 247 q 80 464 57 378 q 148 622 103 550 q 260 742 193 694 q 413 789 326 789 q 521 760 476 789 q 592 688 565 732 q 632 591 619 644 q 644 488 644 538 q 622 322 644 408 q 553 163 599 235 q 440 45 507 92 q 286 0 374 -1 m 413 765 q 267 718 329 765 q 163 600 204 671 q 100 449 121 529 q 79 301 79 368 q 90 200 79 250 q 126 110 101 150 q 191 47 151 71 q 288 22 231 22 q 390 44 343 22 q 474 103 438 67 q 539 187 511 139 q 585 287 567 235 q 612 391 603 339 q 621 488 621 443 q 609 588 621 538 q 572 677 597 638 q 508 741 547 717 q 413 765 468 765 z "},"1":{"ha":764,"x_min":57,"x_max":706,"o":"m 525 0 q 440 24 478 0 q 363 79 401 47 l 363 81 q 194 0 296 0 q 148 5 172 0 q 103 22 124 10 q 70 51 83 33 q 57 93 57 68 q 88 158 57 128 q 178 189 119 189 q 275 166 232 189 q 358 113 318 143 q 375 137 367 124 q 390 165 383 150 q 443 309 424 229 q 479 469 463 389 q 508 607 493 540 q 554 731 522 674 l 390 635 q 375 638 379 628 q 379 654 371 647 l 594 781 q 606 789 601 785 q 617 796 611 793 q 631 790 626 800 q 628 775 636 779 l 608 764 q 569 720 585 750 q 542 649 554 690 q 519 561 529 608 q 500 464 510 514 q 464 301 483 382 q 411 154 444 221 q 394 124 403 139 q 376 97 386 110 l 378 97 q 447 46 413 69 q 525 22 482 22 q 621 38 578 22 q 689 83 664 54 q 703 85 696 93 q 706 68 711 78 q 631 18 678 36 q 525 0 583 0 m 178 167 q 104 144 129 167 q 79 93 79 121 q 91 58 79 72 q 121 37 103 44 q 159 26 139 29 q 194 22 179 22 q 278 42 240 22 q 344 93 317 61 q 269 144 308 121 q 178 167 231 167 z "},"2":{"ha":793,"x_min":57,"x_max":735,"o":"m 525 -1 q 462 12 492 -1 q 407 44 432 25 q 302 10 356 21 q 194 -1 249 -1 q 148 3 172 -1 q 103 20 124 8 q 70 49 83 32 q 57 92 57 67 q 88 157 57 126 q 178 188 119 188 q 246 176 215 188 q 304 148 276 165 q 357 110 332 131 q 408 71 382 89 q 523 155 474 106 q 605 264 572 204 q 654 391 638 324 q 671 529 671 458 q 658 614 671 572 q 620 688 644 656 q 560 739 596 719 q 478 758 524 758 q 387 743 429 758 q 312 699 344 728 q 260 631 279 671 q 242 544 242 592 q 252 485 242 513 q 281 435 263 457 q 326 400 300 413 q 385 388 353 388 q 424 396 406 388 q 456 418 442 404 q 479 450 471 432 q 488 488 488 468 q 499 500 488 500 q 510 488 510 500 q 499 439 510 461 q 472 400 489 417 q 432 374 454 383 q 385 364 410 364 q 315 379 346 364 q 263 419 285 394 q 231 477 242 444 q 219 544 219 510 q 241 642 219 599 q 299 717 263 686 q 381 764 335 747 q 478 781 428 781 q 571 758 531 781 q 638 701 611 736 q 678 620 665 665 q 692 529 692 575 q 672 367 692 442 q 617 234 651 293 q 533 131 582 175 q 429 57 485 86 q 475 31 453 42 q 525 21 497 21 q 638 42 593 21 q 714 113 682 64 q 731 115 722 121 q 735 100 739 110 q 642 20 694 42 q 525 -1 590 -1 m 178 165 q 104 142 129 165 q 79 92 79 119 q 91 57 79 71 q 121 35 103 43 q 159 24 139 28 q 194 21 179 21 q 283 31 239 21 q 369 56 326 40 q 377 58 372 57 q 386 61 382 60 q 338 98 361 79 q 289 131 314 117 q 237 156 264 146 q 178 165 210 165 z "},"3":{"ha":674,"x_min":57,"x_max":618,"o":"m 292 -212 q 199 -196 242 -212 q 125 -149 157 -179 q 75 -77 93 -118 q 57 13 57 -36 q 71 89 57 53 q 109 153 85 125 q 167 197 133 181 q 240 214 200 214 q 308 199 279 214 q 352 160 336 185 q 372 105 368 136 q 368 39 376 74 q 354 32 365 29 q 344 44 343 35 q 328 150 358 108 q 240 192 297 192 q 173 176 203 192 q 122 136 143 161 q 90 78 101 111 q 79 13 79 46 q 97 -71 79 -33 q 143 -135 114 -108 q 210 -175 172 -161 q 292 -189 249 -189 q 409 -167 357 -189 q 499 -103 461 -144 q 564 86 564 -25 q 553 164 564 125 q 520 234 542 203 q 467 285 499 265 q 392 304 435 304 q 377 316 376 304 q 390 328 378 328 q 475 349 438 328 q 539 402 513 369 q 580 476 565 435 q 594 560 594 518 q 581 640 594 603 q 542 703 567 676 q 483 747 517 731 q 407 763 449 763 q 337 751 369 763 q 279 717 304 739 q 240 665 254 694 q 225 599 225 635 q 256 515 225 550 q 335 479 286 479 q 391 503 369 479 q 413 554 413 526 q 424 565 413 565 q 435 554 435 564 q 426 516 435 533 q 404 485 418 499 q 372 465 390 472 q 335 457 354 457 q 280 469 304 457 q 238 500 256 481 q 212 545 221 519 q 203 599 203 571 q 220 676 203 642 q 266 734 238 710 q 331 772 294 758 q 407 785 368 785 q 494 767 456 785 q 561 717 533 749 q 603 645 589 686 q 618 560 618 604 q 607 481 618 519 q 575 410 596 443 q 524 351 554 376 q 456 315 493 326 q 514 276 489 300 q 556 221 539 251 q 581 156 572 190 q 589 86 589 121 q 569 -23 589 31 q 514 -117 550 -76 q 292 -212 435 -212 z "},"4":{"ha":765,"x_min":58,"x_max":707,"o":"m 556 -204 q 513 -190 528 -204 q 492 -154 499 -175 q 485 -109 485 -133 q 488 -65 485 -85 l 521 74 l 494 74 q 358 91 411 74 q 260 128 304 108 q 211 147 229 142 q 172 88 192 107 q 121 68 153 68 q 74 87 89 68 q 58 128 58 106 q 74 169 58 150 q 122 188 90 188 q 161 185 143 188 q 197 176 179 182 l 201 186 q 227 288 217 231 q 247 410 238 346 q 266 527 256 468 q 292 636 276 586 q 330 723 307 686 q 388 775 353 760 q 403 768 399 778 q 397 753 407 758 q 337 687 360 731 q 301 592 314 643 q 281 492 288 542 q 269 407 274 442 q 249 283 260 342 q 224 178 239 224 l 219 169 l 268 149 q 363 113 311 129 q 494 96 415 96 q 510 96 504 96 q 526 97 517 96 l 679 774 q 693 781 682 783 q 701 768 704 778 l 550 100 q 624 124 588 106 q 689 189 661 143 q 702 192 692 199 q 707 178 713 186 q 632 103 676 124 q 544 76 588 82 l 513 -71 q 507 -107 508 -87 q 510 -143 506 -126 q 525 -171 514 -160 q 557 -182 536 -182 q 569 -193 571 -182 q 556 -204 567 -204 m 122 165 q 92 153 101 165 q 82 128 82 142 q 92 103 82 115 q 121 92 101 92 q 160 107 146 92 q 189 154 174 122 q 122 165 161 165 z "},"5":{"ha":749,"x_min":57,"x_max":689,"o":"m 292 -212 q 199 -196 242 -212 q 125 -149 157 -179 q 75 -77 93 -118 q 57 13 57 -36 q 71 89 57 53 q 109 153 85 125 q 167 197 133 181 q 240 214 200 214 q 306 199 279 214 q 350 160 333 185 q 371 103 367 135 q 368 39 375 72 q 353 33 364 29 q 344 44 343 36 q 328 150 358 108 q 240 192 297 192 q 173 176 203 192 q 122 136 143 161 q 90 78 101 111 q 79 13 79 46 q 97 -71 79 -33 q 143 -135 114 -108 q 210 -175 172 -161 q 292 -189 249 -189 q 440 -150 374 -189 q 554 -50 507 -111 q 627 88 601 11 q 653 238 653 164 q 639 332 653 289 q 598 406 625 375 q 531 453 571 436 q 439 471 490 471 q 346 456 386 471 q 278 422 306 440 q 238 389 251 404 q 224 374 224 374 q 217 369 221 371 q 211 371 214 368 q 204 376 207 372 q 204 383 201 381 q 213 414 208 399 q 224 447 217 429 q 257 565 242 507 q 272 682 272 624 q 228 678 251 678 q 182 690 204 678 q 160 728 160 703 q 179 763 160 751 q 218 775 199 775 q 267 758 250 775 q 292 713 285 740 q 349 733 322 722 q 403 753 376 744 q 459 768 431 763 q 519 774 488 774 q 562 771 539 774 q 608 759 585 768 q 651 733 631 750 q 689 689 672 717 q 686 674 696 679 q 669 678 676 669 q 638 716 656 701 q 600 738 619 731 q 560 748 581 746 q 519 750 539 750 q 403 728 456 750 q 294 689 350 707 q 281 569 297 636 q 244 439 264 503 q 238 419 239 432 q 251 431 244 425 q 265 439 257 436 q 336 476 293 458 q 439 493 379 493 q 542 473 497 493 q 615 418 586 453 q 660 337 644 383 q 675 238 675 290 q 646 74 675 154 q 566 -71 617 -7 q 445 -174 515 -135 q 292 -212 375 -212 m 218 751 q 190 744 199 751 q 182 728 182 736 q 199 706 182 711 q 228 700 217 700 q 269 704 250 700 q 253 740 264 728 q 218 751 242 751 z "},"6":{"ha":661,"x_min":57,"x_max":601,"o":"m 311 -1 q 199 26 249 0 q 115 101 149 53 q 57 336 57 192 q 83 535 57 432 q 158 724 110 639 q 281 866 213 817 q 422 915 349 915 q 526 892 481 915 q 601 821 572 868 q 599 806 608 810 q 583 808 589 801 q 513 872 556 853 q 422 892 471 892 q 292 846 354 892 q 178 713 229 800 q 106 531 132 629 q 79 336 79 432 q 135 113 79 199 q 209 44 165 68 q 311 21 253 21 q 417 49 371 21 q 494 120 463 76 q 541 217 525 164 q 557 321 557 271 q 544 406 557 365 q 505 479 531 447 q 442 530 479 511 q 358 549 406 549 q 263 519 306 549 q 196 435 219 489 q 177 347 178 394 q 204 267 176 300 q 203 252 211 260 q 188 251 194 244 q 155 337 158 285 q 175 442 151 389 q 251 535 201 500 q 358 571 300 571 q 453 549 413 571 q 523 492 494 528 q 565 413 551 457 q 579 321 579 368 q 560 203 579 261 q 506 100 542 146 q 422 26 471 54 q 311 -1 372 -1 z "},"7":{"ha":772,"x_min":57,"x_max":714,"o":"m 224 -194 q 251 53 217 -82 q 350 340 285 189 q 450 543 396 449 q 553 699 504 638 q 531 705 542 701 q 511 711 521 708 q 376 742 449 726 q 231 758 304 758 q 173 749 200 758 q 125 723 146 740 q 92 681 104 706 q 79 625 79 656 q 104 556 79 585 q 169 528 129 528 q 216 547 199 528 q 233 590 233 567 q 244 601 233 601 q 256 590 256 601 q 229 530 256 554 q 169 506 203 506 q 88 542 118 506 q 57 625 57 578 q 72 691 57 663 q 112 740 88 719 q 167 770 136 760 q 231 781 199 781 q 380 765 306 781 q 514 732 454 749 q 542 725 529 728 q 567 718 556 722 q 608 760 586 742 q 663 779 631 779 q 699 768 685 779 q 714 733 714 757 q 690 694 714 706 q 646 682 667 682 q 613 685 631 682 q 576 693 596 689 q 474 538 528 633 q 371 331 419 442 q 275 47 307 182 q 246 -193 243 -89 q 235 -204 246 -206 q 224 -194 224 -203 m 593 713 q 622 707 608 710 q 646 704 635 704 q 676 711 661 704 q 692 733 692 718 q 687 750 692 743 q 663 757 682 757 q 621 740 638 757 q 593 713 604 722 z "},"8":{"ha":583,"x_min":57,"x_max":526,"o":"m 297 -1 q 165 33 218 -1 q 84 120 111 67 q 58 238 57 174 q 88 364 58 303 q 138 440 108 407 q 199 501 167 474 q 267 551 232 528 q 335 599 301 575 q 299 663 314 632 q 278 724 285 693 q 272 794 269 758 q 290 858 275 829 q 331 904 304 886 q 394 922 357 922 q 463 900 439 922 q 494 846 486 878 q 494 776 501 814 q 468 708 486 739 q 365 594 432 647 q 441 488 404 544 q 501 372 478 432 q 526 249 524 311 q 500 128 529 188 q 418 33 472 68 q 297 -1 364 -1 m 108 356 q 80 236 79 296 q 106 128 81 176 q 181 51 132 81 q 297 21 229 21 q 406 53 357 21 q 481 138 454 85 q 506 256 510 196 q 478 374 501 317 q 418 485 454 432 q 347 582 382 538 q 278 533 313 557 q 213 483 244 510 q 155 426 182 457 q 108 356 128 396 m 394 900 q 338 883 360 900 q 306 840 317 865 q 294 784 296 814 q 300 728 293 754 q 353 614 314 676 q 449 719 418 665 q 470 774 463 743 q 473 833 478 806 q 449 881 468 861 q 394 900 431 900 z "},"9":{"ha":663,"x_min":60,"x_max":606,"o":"m 238 -1 q 135 24 181 -1 q 60 94 90 50 q 63 110 53 104 q 79 107 72 115 q 148 43 106 65 q 238 21 190 21 q 369 69 307 21 q 485 204 432 117 q 556 385 529 286 q 583 581 583 485 q 528 803 583 719 q 350 892 469 892 q 250 865 294 892 q 176 797 206 839 q 129 699 146 753 q 113 589 113 646 q 125 503 113 543 q 162 433 138 464 q 222 385 186 403 q 303 368 257 368 q 399 398 356 368 q 463 482 442 428 q 484 569 482 522 q 458 649 486 615 q 457 664 449 657 q 474 664 465 671 q 506 578 503 632 q 488 471 510 525 q 412 378 461 413 q 303 344 363 344 q 210 365 250 344 q 144 419 171 385 q 103 497 117 453 q 89 589 89 542 q 107 707 89 649 q 157 810 125 765 q 242 887 192 858 q 350 915 292 915 q 463 890 413 915 q 546 815 514 865 q 606 581 606 725 q 578 379 606 482 q 504 193 551 276 q 382 48 451 97 q 238 -1 313 -1 z "},"\r":{"ha":329,"x_min":0,"x_max":0,"o":""},"\u0000":{"ha":0,"x_min":0,"x_max":0,"o":""}," ":{"ha":244,"x_min":0,"x_max":0,"o":""},"!":{"ha":263,"x_min":22,"x_max":263,"o":"m 46 38 q 63 24 63 38 q 53 7 63 14 q 38 0 44 0 q 27 4 32 0 q 22 13 22 8 q 30 31 22 24 q 46 38 38 38 m 242 917 q 254 930 243 932 q 263 914 265 928 l 79 146 q 66 136 76 135 q 58 150 56 138 l 242 917 z "},"\"":{"ha":199,"x_min":22,"x_max":175,"o":"m 67 911 q 81 917 69 921 q 90 906 92 914 l 44 717 q 31 710 42 707 q 22 724 19 713 l 67 911 m 153 911 q 158 917 154 915 q 165 917 161 918 q 173 913 169 917 q 175 906 176 910 l 131 717 q 116 710 128 707 q 107 724 104 713 l 153 911 z "},"#":{"ha":747,"x_min":14,"x_max":736,"o":"m 489 304 l 418 13 q 405 -1 415 -1 q 397 14 394 -1 l 465 304 l 182 304 l 111 13 q 97 -1 108 -3 q 89 14 86 1 l 158 304 l 24 304 q 15 316 14 304 q 24 328 15 328 l 164 328 l 231 604 l 101 604 q 90 615 90 604 q 101 626 90 626 l 238 626 l 304 913 q 318 920 307 922 q 328 908 329 918 l 260 626 l 544 626 l 614 913 q 619 919 615 918 q 626 919 622 921 q 634 915 631 918 q 636 908 638 913 l 567 626 l 725 626 q 736 615 736 626 q 725 604 736 604 l 563 604 l 496 328 l 650 328 q 661 316 661 328 q 650 304 661 304 l 489 304 m 188 328 l 472 328 l 539 604 l 253 604 l 188 328 z "},"$":{"ha":804,"x_min":3,"x_max":779,"o":"m 207 -47 l 229 0 q 134 24 176 3 q 60 81 92 44 q 17 160 32 115 q 3 254 3 206 q 17 344 3 300 q 57 421 31 388 q 121 474 83 454 q 207 494 158 494 q 268 481 240 494 q 315 444 296 467 q 342 391 333 421 q 344 329 350 361 q 332 320 343 318 q 322 333 321 322 q 320 388 328 363 q 296 431 313 413 q 256 461 279 450 q 207 472 233 472 q 128 453 163 472 q 70 402 93 433 q 35 332 47 371 q 24 254 24 293 q 37 167 24 208 q 78 94 50 126 q 239 22 138 22 l 472 506 q 464 640 465 568 q 478 774 463 713 q 533 875 493 835 q 647 915 572 915 q 660 915 654 915 q 671 914 665 915 l 699 974 q 714 979 704 985 q 719 964 724 974 l 692 910 q 740 878 721 900 q 769 830 758 857 q 779 772 779 803 q 771 714 779 742 q 690 606 747 650 q 674 608 681 599 q 678 622 668 618 q 722 667 704 642 q 750 721 739 693 q 758 773 758 746 q 748 823 757 800 q 722 863 739 846 q 682 889 706 881 l 496 503 q 499 475 497 490 q 504 446 501 460 q 501 231 519 324 q 435 81 483 138 q 355 24 399 44 q 254 0 311 3 l 226 -58 q 212 -65 222 -68 q 207 -47 201 -61 m 415 94 q 481 237 464 149 q 482 443 497 325 l 478 463 l 265 24 q 415 94 358 32 m 647 892 q 576 876 604 892 q 529 835 547 861 q 502 776 511 810 q 489 706 493 742 q 488 633 488 674 q 492 546 489 593 l 660 892 l 647 892 z "},"%":{"ha":636,"x_min":19,"x_max":619,"o":"m 89 -14 l 83 -14 q 79 4 75 -6 l 471 821 q 385 789 431 793 q 294 796 339 785 q 329 697 329 754 q 317 637 329 665 q 285 587 306 608 q 235 553 264 565 q 175 540 207 540 q 115 553 143 540 q 65 587 86 565 q 32 637 44 608 q 19 697 19 665 q 32 757 19 729 q 65 806 44 785 q 115 839 86 826 q 175 851 143 851 q 213 847 194 851 q 249 833 231 842 l 250 833 q 328 814 289 818 q 402 818 368 810 q 465 848 436 826 q 513 906 493 869 l 514 908 q 519 914 514 913 q 529 914 524 915 q 535 897 538 910 q 533 894 533 894 l 99 -7 q 94 -12 97 -11 q 89 -14 92 -14 m 463 47 q 404 60 432 47 q 356 93 376 72 q 322 142 335 114 q 310 201 310 169 q 322 262 310 233 q 356 311 335 290 q 404 344 376 332 q 463 357 432 357 q 524 344 496 357 q 574 311 553 332 q 608 262 596 290 q 619 201 619 233 q 608 142 619 169 q 574 93 596 114 q 524 60 553 72 q 463 47 496 47 m 463 335 q 413 324 436 335 q 371 296 389 314 q 342 253 353 278 q 332 201 332 229 q 342 150 332 174 q 371 108 353 126 q 413 80 389 90 q 463 69 436 69 q 516 80 492 69 q 558 108 540 90 q 587 150 576 126 q 597 201 597 174 q 559 296 597 257 q 463 335 521 335 m 175 829 q 124 819 147 829 q 81 791 100 808 q 52 749 63 774 q 42 697 42 725 q 52 645 42 669 q 81 603 63 621 q 124 574 100 585 q 175 564 147 564 q 269 603 232 564 q 307 697 307 642 q 269 791 307 753 q 175 829 232 829 z "},"&":{"ha":676,"x_min":0,"x_max":717,"o":"m 439 454 q 395 442 417 447 q 353 429 374 436 q 471 375 428 424 q 514 254 514 326 q 491 151 514 197 q 431 71 468 104 q 344 19 393 38 q 243 0 294 0 q 142 19 186 0 q 65 72 97 39 q 17 151 33 106 q 0 250 0 197 q 16 350 0 303 q 61 435 32 397 q 130 499 90 472 q 215 536 169 525 q 135 602 164 557 q 106 704 106 647 q 124 791 106 751 q 172 858 142 831 q 243 902 203 886 q 328 918 283 918 q 389 908 360 918 q 440 881 418 899 q 474 837 461 863 q 488 779 488 811 q 448 681 488 721 q 351 642 408 642 q 340 653 340 642 q 351 664 339 664 q 399 674 378 664 q 434 701 419 685 q 456 738 449 718 q 463 779 463 758 q 451 830 463 808 q 420 866 439 851 q 377 888 401 881 q 328 894 353 894 q 249 880 285 894 q 185 840 213 865 q 143 781 158 815 q 128 704 128 746 q 173 590 128 635 q 288 544 218 544 q 299 533 299 544 q 288 522 299 522 q 180 500 229 522 q 96 440 131 478 q 42 353 61 403 q 22 250 22 304 q 38 157 22 199 q 83 85 54 115 q 153 39 113 56 q 243 22 194 22 q 338 40 293 22 q 417 90 383 58 q 469 163 450 121 q 489 254 489 206 q 451 363 489 318 q 350 407 414 407 q 298 395 321 407 q 258 364 275 383 q 233 320 242 344 q 225 271 224 296 q 228 250 225 263 q 235 226 231 238 q 249 206 240 214 q 274 199 258 199 q 285 188 285 199 q 274 176 285 176 q 222 206 240 176 q 204 274 204 235 q 222 353 204 321 q 272 409 240 386 q 342 446 303 432 q 426 471 382 460 q 542 505 490 486 q 629 550 594 524 q 681 611 664 576 q 694 694 699 646 q 669 745 692 725 q 621 765 646 765 q 608 777 608 765 q 621 789 607 789 q 685 763 656 789 q 717 696 714 736 q 697 593 721 633 q 631 526 672 553 q 538 483 589 499 q 439 454 486 467 z "},"'":{"ha":78,"x_min":6,"x_max":72,"o":"m 50 911 q 64 917 53 921 q 72 906 75 914 l 28 717 q 14 710 25 707 q 6 724 3 713 l 50 911 z "},"(":{"ha":454,"x_min":22,"x_max":447,"o":"m 178 -117 q 99 -55 129 -93 q 51 36 68 -17 q 24 154 32 89 q 22 294 17 219 q 60 524 29 408 q 142 735 92 639 q 197 824 167 781 q 263 902 226 867 q 342 965 300 938 q 435 1006 385 992 q 447 997 444 1007 q 439 985 450 986 q 358 949 399 971 q 282 892 318 928 q 163 725 214 824 q 82 517 113 629 q 44 293 51 404 q 45 186 42 244 q 63 72 49 128 q 108 -30 78 15 q 188 -96 138 -75 q 194 -111 199 -101 q 178 -117 189 -121 z "},")":{"ha":461,"x_min":3,"x_max":425,"o":"m 13 -94 q 170 -14 104 -74 q 282 126 236 46 q 354 295 328 206 q 392 463 381 385 q 402 594 400 517 q 393 748 404 671 q 351 890 382 825 q 263 985 321 956 q 257 990 258 986 q 258 999 256 994 q 264 1005 260 1003 q 274 1004 268 1007 q 370 902 338 971 q 415 753 403 833 q 425 594 428 674 q 414 461 422 515 q 372 281 401 375 q 294 103 343 186 q 177 -40 246 21 q 15 -118 108 -100 q 7 -116 10 -119 q 3 -108 4 -112 q 6 -100 3 -104 q 13 -94 8 -96 z "},"*":{"ha":211,"x_min":14,"x_max":194,"o":"m 53 806 l 85 853 l 24 853 q 14 864 13 853 q 24 875 15 875 l 83 875 l 53 919 q 55 938 46 932 q 71 936 64 943 l 107 883 l 142 936 q 157 937 147 943 q 161 919 167 931 l 128 875 l 183 875 q 194 864 194 875 q 183 853 194 853 l 128 853 l 161 806 q 156 790 167 796 q 142 793 146 785 l 107 844 l 71 793 q 55 791 64 785 q 53 806 46 797 z "},"+":{"ha":350,"x_min":3,"x_max":346,"o":"m 165 429 l 13 429 q 3 440 3 429 q 13 450 4 450 l 169 450 l 213 628 q 226 635 215 639 q 236 621 238 632 l 193 450 l 333 450 q 345 440 346 450 q 333 429 344 429 l 189 429 l 139 224 q 126 214 136 213 q 118 226 115 215 l 165 429 z "},",":{"ha":244,"x_min":31,"x_max":136,"o":"m 94 96 q 124 84 113 96 q 136 53 136 72 q 128 11 133 32 q 111 -27 122 -10 q 83 -56 100 -44 q 40 -67 65 -67 q 31 -55 31 -67 q 40 -43 31 -43 q 83 -28 69 -43 q 104 7 97 -14 q 79 -1 92 -1 q 47 13 60 -1 q 38 50 35 28 q 58 83 42 69 q 94 96 75 96 z "},"-":{"ha":458,"x_min":57,"x_max":400,"o":"m 67 429 q 58 440 57 429 q 67 450 58 450 l 388 450 q 399 440 400 450 q 388 429 399 429 l 67 429 z "},".":{"ha":251,"x_min":35,"x_max":129,"o":"m 89 96 q 121 81 107 96 q 129 44 135 67 q 108 12 125 25 q 72 -1 92 -1 q 40 13 53 -1 q 35 50 28 26 q 53 83 38 69 q 89 96 69 96 z "},"/":{"ha":474,"x_min":7,"x_max":467,"o":"m 447 892 q 464 896 456 901 q 467 883 472 890 l 28 -33 q 20 -38 25 -37 q 12 -37 15 -39 q 7 -31 8 -35 q 8 -21 6 -26 l 447 892 z "},":":{"ha":238,"x_min":35,"x_max":186,"o":"m 89 96 q 121 81 107 96 q 129 44 135 67 q 108 12 125 25 q 72 -1 92 -1 q 40 13 53 -1 q 35 50 28 26 q 53 83 38 69 q 89 96 69 96 m 146 501 q 178 487 164 501 q 186 450 192 472 q 165 417 182 431 q 129 404 149 404 q 97 418 110 404 q 92 456 85 432 q 110 488 94 475 q 146 501 126 501 z "},";":{"ha":243,"x_min":43,"x_max":186,"o":"m 107 96 q 137 84 125 96 q 149 53 149 72 q 140 11 146 32 q 124 -27 135 -10 q 95 -56 113 -44 q 53 -67 78 -67 q 43 -55 43 -67 q 53 -43 43 -43 q 96 -28 82 -43 q 117 7 110 -14 q 92 -1 104 -1 q 60 13 72 -1 q 50 50 47 28 q 71 83 54 69 q 107 96 88 96 m 146 501 q 178 487 164 501 q 186 450 192 472 q 165 417 182 431 q 129 404 149 404 q 97 418 110 404 q 92 456 85 432 q 110 488 94 475 q 146 501 126 501 z "},"<":{"ha":474,"x_min":50,"x_max":457,"o":"m 356 156 l 50 406 q 53 422 40 414 l 439 667 q 451 668 446 669 q 457 663 456 667 q 457 653 458 658 q 451 646 456 649 l 79 414 l 372 174 q 372 158 381 168 q 356 156 363 149 z "},"=":{"ha":439,"x_min":33,"x_max":407,"o":"m 76 488 q 65 499 65 488 q 76 510 65 510 l 394 510 q 406 499 407 510 q 394 488 406 488 l 76 488 m 43 339 q 34 351 33 339 q 43 363 35 363 l 363 363 q 375 351 375 363 q 363 339 375 339 l 43 339 z "},">":{"ha":478,"x_min":19,"x_max":435,"o":"m 22 174 l 407 414 l 118 646 q 120 662 111 651 q 136 667 129 672 l 435 422 q 433 406 442 413 l 35 156 q 19 158 24 149 q 22 174 15 168 z "},"?":{"ha":588,"x_min":57,"x_max":532,"o":"m 207 139 q 219 191 207 167 q 248 237 231 215 q 286 276 265 258 q 325 311 307 294 q 460 463 410 383 q 510 656 510 543 q 497 743 510 701 q 458 817 483 785 q 397 869 433 850 q 314 889 360 889 q 224 873 267 889 q 149 829 182 857 q 98 761 117 801 q 79 674 79 721 q 90 613 79 642 q 119 562 100 583 q 164 527 138 540 q 222 514 190 514 q 262 522 243 514 q 294 545 281 531 q 316 578 308 560 q 324 618 324 597 q 335 629 324 629 q 347 618 347 629 q 337 569 347 592 q 309 528 326 546 q 269 501 292 511 q 222 490 247 490 q 153 506 183 490 q 101 548 122 522 q 68 606 79 574 q 57 674 57 639 q 78 772 57 728 q 136 847 100 817 q 219 894 172 878 q 314 911 265 911 q 409 889 368 911 q 477 830 450 867 q 518 747 504 793 q 532 656 532 701 q 514 526 532 582 q 467 428 496 471 q 405 353 439 385 q 339 293 371 321 q 266 223 299 260 q 231 138 233 186 q 217 127 228 126 q 207 139 207 128 m 218 13 q 209 -4 215 3 q 194 -11 203 -11 q 183 -4 188 -11 q 179 13 178 3 q 189 25 182 19 q 203 31 196 31 q 216 25 211 31 q 218 13 221 19 z "},"@":{"ha":739,"x_min":36,"x_max":706,"o":"m 303 -14 q 182 13 232 -14 q 99 85 132 40 q 51 188 67 131 q 36 306 36 244 q 61 470 36 389 q 135 614 86 551 q 263 726 188 688 q 421 764 339 764 q 613 713 535 764 q 706 553 690 663 q 694 389 715 483 l 675 304 q 656 244 668 274 q 627 193 644 215 q 585 157 610 171 q 529 143 561 143 q 458 172 479 143 q 431 238 436 200 q 383 163 413 194 q 304 131 353 131 q 242 148 264 131 q 210 192 219 165 q 201 252 200 219 q 208 315 201 285 l 250 488 q 298 579 265 544 q 388 614 331 614 q 451 597 426 614 q 488 551 476 579 l 499 593 q 512 601 501 604 q 519 589 522 599 q 501 515 508 543 q 489 460 494 486 q 476 404 483 435 q 458 324 469 374 q 450 273 451 300 q 456 222 449 246 q 480 181 463 197 q 529 165 497 165 q 579 179 558 165 q 615 214 600 193 q 638 260 629 235 q 653 310 647 286 l 672 393 q 685 477 683 438 q 683 550 688 517 q 652 640 676 604 q 592 699 628 676 q 512 731 556 721 q 421 740 468 740 q 269 702 338 740 q 153 600 201 664 q 83 462 107 538 q 58 306 58 386 q 74 193 58 246 q 120 100 89 140 q 197 36 151 60 q 303 13 242 13 q 417 34 364 13 q 511 93 471 56 q 526 92 519 100 q 525 78 532 85 q 303 -14 429 -14 m 388 592 q 310 558 338 592 q 274 485 283 525 l 229 310 q 223 257 224 285 q 231 206 222 229 q 256 169 239 183 q 304 154 274 154 q 381 195 347 154 q 432 311 414 236 l 468 472 q 462 556 483 521 q 388 592 440 592 z "},"A":{"ha":917,"x_min":8,"x_max":917,"o":"m 751 -114 q 708 -99 724 -114 q 687 -63 693 -85 q 682 -18 681 -42 q 688 25 683 6 l 700 83 q 638 109 668 92 q 579 148 608 126 q 521 194 550 169 q 463 243 492 218 q 418 147 442 192 q 364 70 394 103 q 294 19 333 38 q 207 0 256 0 q 92 28 136 0 q 26 98 47 56 q 9 189 6 140 q 38 280 13 238 q 110 350 63 322 q 226 378 158 378 q 343 348 288 378 q 451 278 399 318 q 482 374 468 326 q 511 463 496 422 q 564 629 535 549 q 633 775 593 710 q 686 835 656 808 q 753 879 717 861 q 828 907 789 897 q 907 917 867 917 q 915 897 918 917 l 726 101 q 741 99 733 100 q 756 99 749 99 q 844 123 807 99 q 897 217 881 147 q 910 227 901 231 q 917 214 919 224 q 896 150 911 176 q 859 107 881 124 q 811 83 838 90 q 756 76 785 76 q 739 77 747 76 q 722 79 731 78 l 708 18 q 703 -16 704 3 q 707 -51 703 -35 q 722 -80 711 -68 q 753 -92 732 -92 q 763 -103 764 -92 q 751 -114 763 -114 m 706 106 l 892 893 q 755 856 819 890 q 653 763 690 821 q 585 620 613 700 q 533 460 557 540 q 502 359 518 408 q 469 263 486 310 q 530 215 500 239 q 589 169 560 190 q 647 131 618 147 q 706 106 676 114 m 225 356 q 122 331 164 356 q 57 270 79 307 q 33 191 35 233 q 49 112 31 149 q 106 50 67 75 q 206 25 146 25 q 287 44 251 25 q 351 94 322 63 q 401 169 379 126 q 442 258 424 211 q 338 327 392 299 q 225 356 285 356 z "},"B":{"ha":1021,"x_min":7,"x_max":921,"o":"m 646 0 q 496 36 561 0 q 372 126 431 72 q 272 30 328 60 q 146 0 217 0 q 93 8 118 0 q 49 32 68 17 q 19 69 31 47 q 7 121 7 92 q 22 180 7 156 q 61 220 38 204 q 115 244 85 236 q 172 251 144 251 q 281 226 233 251 q 368 163 328 200 q 383 189 378 175 q 448 356 424 264 q 496 543 472 447 q 526 669 511 610 q 560 776 542 728 q 597 850 578 821 q 639 894 615 879 q 568 900 607 900 q 460 889 508 900 q 374 861 411 878 q 308 824 336 844 q 261 782 281 803 q 192 678 217 738 q 167 556 167 618 q 172 505 167 531 q 190 459 178 479 q 222 426 203 439 q 269 413 242 413 q 280 401 281 413 q 269 389 279 389 q 178 435 213 389 q 144 556 144 481 q 172 687 144 624 q 244 797 200 750 q 294 842 265 819 q 363 882 324 864 q 453 911 403 900 q 568 922 504 922 q 686 909 625 922 q 799 868 747 896 q 883 796 850 840 q 915 688 915 751 q 901 619 915 650 q 865 563 888 588 q 812 522 842 539 q 750 496 782 504 q 875 414 829 471 q 921 276 921 357 q 899 167 921 218 q 839 80 876 117 q 751 22 801 43 q 646 0 701 0 m 386 146 l 388 144 q 435 99 411 121 q 490 60 460 78 q 558 33 521 43 q 646 22 596 22 q 746 43 700 22 q 826 99 792 64 q 879 179 860 133 q 899 276 899 225 q 878 367 899 328 q 824 433 857 407 q 747 474 790 460 q 658 488 704 488 q 647 499 647 488 q 658 510 647 510 q 742 521 700 510 q 817 553 783 532 q 871 608 850 575 q 892 688 892 642 q 872 767 892 732 q 820 826 851 801 q 749 867 789 851 q 672 890 710 882 q 615 838 635 874 q 582 768 594 803 q 547 660 563 719 q 517 539 532 601 q 470 350 494 443 q 404 178 446 257 q 394 161 399 169 q 386 146 390 153 m 172 229 q 122 223 147 229 q 76 203 97 217 q 42 169 56 189 q 29 121 29 149 q 36 85 29 103 q 58 54 43 68 q 94 31 72 40 q 146 22 115 22 q 268 56 215 22 q 356 143 321 89 q 266 207 310 185 q 172 229 222 229 z "},"C":{"ha":610,"x_min":7,"x_max":528,"o":"m 274 0 q 143 37 194 0 q 61 130 92 74 q 19 254 31 186 q 7 385 7 322 q 17 501 7 440 q 47 622 26 563 q 97 734 67 681 q 168 828 128 788 q 258 894 208 869 q 368 918 308 918 q 429 908 400 918 q 480 881 458 899 q 515 837 501 863 q 528 779 528 811 q 517 725 528 750 q 489 681 507 700 q 446 652 471 663 q 393 642 421 642 q 383 653 382 642 q 393 664 383 664 q 441 674 419 664 q 477 701 463 685 q 499 738 492 718 q 507 779 507 758 q 495 830 507 808 q 463 866 483 851 q 418 888 443 881 q 368 894 393 894 q 260 869 308 894 q 175 803 213 844 q 110 708 138 761 q 64 598 82 654 q 38 486 46 542 q 29 385 29 431 q 41 256 29 321 q 81 140 53 192 q 156 55 108 88 q 274 22 203 22 q 361 40 324 22 q 424 88 399 57 q 461 162 449 119 q 474 253 474 204 q 444 369 474 321 q 347 417 414 417 q 303 407 325 417 q 263 381 281 397 q 235 345 246 365 q 225 303 225 325 q 213 292 225 292 q 201 303 201 292 q 215 355 201 331 q 249 398 228 379 q 296 428 269 417 q 347 439 322 439 q 416 424 388 439 q 462 383 444 408 q 488 323 479 357 q 496 253 496 289 q 481 149 496 196 q 436 69 465 103 q 366 18 407 36 q 274 0 325 0 z "},"D":{"ha":1115,"x_min":7,"x_max":981,"o":"m 649 0 q 492 41 561 0 q 368 138 422 82 q 151 0 286 0 q 89 11 115 0 q 44 41 63 22 q 16 83 25 60 q 7 131 7 106 q 22 189 7 164 q 59 231 36 214 q 111 256 82 247 q 169 264 140 264 q 276 238 231 264 q 363 174 322 211 q 395 247 379 203 q 425 339 411 290 q 450 434 439 388 q 468 514 461 481 q 499 635 483 576 q 532 745 514 694 q 572 835 550 796 q 626 897 594 874 q 601 899 614 899 q 574 900 588 900 q 465 889 513 900 q 378 861 417 878 q 312 824 340 844 q 264 782 283 803 q 193 671 221 735 q 176 598 182 642 q 176 513 169 554 q 205 442 182 471 q 274 413 228 413 q 284 401 285 413 q 274 389 283 389 q 192 422 219 389 q 156 500 165 454 q 153 595 147 546 q 172 678 158 644 q 250 797 199 749 q 299 842 269 819 q 368 882 328 864 q 459 911 408 900 q 574 922 510 922 q 742 892 667 922 q 871 808 818 863 q 952 677 924 753 q 981 510 981 601 q 973 419 981 465 q 954 328 965 372 q 912 213 939 271 q 846 108 885 156 q 758 30 807 60 q 649 0 708 0 m 381 158 q 504 60 442 97 q 649 22 567 22 q 753 54 707 22 q 835 133 800 86 q 895 233 871 179 q 933 333 919 288 q 951 422 944 378 q 958 510 958 467 q 938 649 958 585 q 879 763 918 713 q 785 846 840 813 q 663 892 731 879 q 603 840 628 876 q 558 753 578 804 q 523 640 539 701 q 490 513 507 578 q 444 322 468 407 q 381 158 419 236 m 169 242 q 118 235 143 242 q 74 213 93 228 q 42 178 54 199 q 31 131 31 157 q 68 50 31 78 q 151 22 106 22 q 270 61 222 22 q 351 154 318 100 q 268 217 313 192 q 169 242 224 242 z "},"E":{"ha":614,"x_min":7,"x_max":518,"o":"m 238 0 q 142 19 185 0 q 69 70 99 38 q 23 146 39 103 q 7 239 7 189 q 23 342 7 293 q 68 429 39 390 q 137 496 97 468 q 224 536 176 524 q 141 600 171 556 q 111 704 111 644 q 128 791 111 751 q 176 858 146 831 q 247 902 207 886 q 331 918 286 918 q 391 908 363 918 q 442 881 419 899 q 476 838 464 864 q 489 779 489 813 q 452 681 489 721 q 357 642 415 642 q 347 653 346 642 q 357 664 347 664 q 406 674 385 664 q 440 701 426 685 q 460 738 453 718 q 467 779 467 758 q 455 831 467 808 q 424 867 443 853 q 381 888 406 881 q 331 894 356 894 q 253 880 289 894 q 190 840 217 865 q 149 781 164 815 q 133 704 133 746 q 178 590 133 636 q 296 544 224 544 l 331 544 q 343 535 343 544 q 340 526 343 531 q 331 522 336 522 l 297 522 q 188 499 238 522 q 103 436 139 475 q 49 346 68 397 q 29 239 29 294 q 44 152 29 192 q 88 83 60 113 q 153 38 115 54 q 238 22 192 22 q 336 40 289 22 q 419 88 383 57 q 475 160 454 118 q 496 254 496 203 q 457 363 496 318 q 356 407 418 407 q 312 397 333 407 q 273 372 290 388 q 244 335 256 356 q 233 292 233 314 q 222 281 233 281 q 211 292 211 281 q 224 344 211 319 q 258 388 238 369 q 305 418 279 407 q 356 429 331 429 q 424 415 394 429 q 475 376 454 400 q 507 320 496 351 q 518 254 518 289 q 494 149 518 196 q 431 68 471 101 q 341 17 392 35 q 238 0 290 0 z "},"F":{"ha":756,"x_min":7,"x_max":1050,"o":"m 399 479 q 388 490 388 479 q 399 501 388 501 l 474 501 q 481 528 476 514 q 488 557 485 542 q 513 675 500 618 q 540 778 525 732 q 574 860 556 825 q 617 915 593 896 q 505 938 565 929 q 369 946 444 946 q 243 927 304 946 q 135 872 182 908 q 58 783 88 836 q 29 664 29 731 q 38 602 29 632 q 65 549 47 572 q 108 510 82 525 q 167 496 133 496 q 237 525 210 496 q 251 597 264 554 q 260 612 250 608 q 274 604 271 615 q 276 553 282 576 q 254 512 269 529 q 215 484 239 494 q 167 474 192 474 q 97 490 126 474 q 47 534 67 507 q 17 595 28 561 q 7 664 7 629 q 39 797 7 740 q 122 892 71 854 q 239 949 174 931 q 369 968 304 968 q 546 952 472 968 q 683 919 619 936 q 778 897 733 907 q 874 888 824 888 q 967 901 929 888 q 1033 942 1006 914 q 1049 944 1040 953 q 1050 929 1057 936 q 977 879 1018 894 q 874 864 936 864 q 774 875 821 864 q 678 899 726 886 l 646 908 q 601 863 621 896 q 565 781 581 829 q 535 674 549 732 q 510 553 522 615 l 496 501 l 674 501 q 685 490 685 501 q 674 479 685 479 l 490 479 q 451 323 472 399 q 403 183 431 247 q 178 0 318 0 q 115 13 142 0 q 69 45 88 25 q 41 91 50 65 q 32 143 32 117 q 73 241 32 204 q 171 278 114 278 q 183 267 183 278 q 171 256 183 256 q 88 224 121 256 q 54 143 54 192 q 65 93 54 115 q 92 55 75 71 q 131 31 108 39 q 178 22 153 22 q 248 38 217 22 q 304 77 279 53 q 349 131 329 101 q 382 192 368 161 q 429 327 408 254 q 468 479 450 400 l 399 479 z "},"G":{"ha":672,"x_min":7,"x_max":667,"o":"m 258 0 q 142 30 189 1 q 64 104 94 58 q 20 206 33 150 q 7 321 7 263 q 41 528 7 425 q 133 715 75 632 q 291 861 199 807 q 492 915 383 915 q 565 901 533 915 q 620 861 597 886 q 655 803 643 836 q 667 732 667 769 q 653 648 667 690 q 615 572 640 606 q 554 518 590 539 q 474 497 518 497 q 418 510 443 497 q 378 546 393 524 q 360 594 363 568 q 372 649 357 621 q 388 653 378 658 q 392 639 397 647 q 382 594 379 615 q 398 556 385 572 q 431 529 411 539 q 474 519 451 519 q 547 540 515 519 q 601 591 579 560 q 633 660 622 622 q 644 732 644 697 q 603 847 644 803 q 492 892 563 892 q 297 839 385 892 q 151 703 210 786 q 61 522 93 622 q 29 321 29 421 q 44 209 29 263 q 87 114 58 156 q 158 47 115 72 q 258 22 201 22 q 432 128 360 22 q 554 456 504 233 q 559 462 556 460 q 567 463 563 464 q 574 458 571 461 q 575 449 576 454 l 549 332 q 474 22 506 151 q 403 -196 442 -108 q 367 -265 386 -232 q 322 -322 347 -297 q 263 -362 296 -347 q 185 -376 229 -376 q 121 -364 149 -376 q 74 -332 93 -351 q 46 -287 56 -312 q 36 -235 36 -261 q 78 -135 36 -172 q 178 -99 119 -99 q 189 -110 189 -99 q 178 -121 189 -121 q 93 -153 126 -121 q 60 -235 60 -186 q 97 -321 60 -287 q 185 -354 135 -354 q 297 -315 251 -354 q 382 -187 342 -275 q 488 178 436 -54 q 447 108 469 140 q 396 52 424 76 q 334 14 368 28 q 258 0 300 0 z "},"H":{"ha":939,"x_min":-22,"x_max":939,"o":"m 772 -64 q 725 -47 740 -62 q 704 -9 710 -31 q 700 36 699 13 q 706 76 701 60 l 708 83 q 567 137 638 100 q 425 208 497 174 q 403 138 414 168 q 382 85 392 108 q 296 -37 349 10 q 164 -85 243 -85 l 161 -85 q 49 -56 92 -85 q -10 15 7 -28 q -22 106 -28 57 q 12 196 -17 154 q 90 265 40 238 q 207 293 139 293 q 310 278 260 293 q 413 239 361 263 q 481 515 443 349 q 572 914 519 681 q 586 922 575 925 q 594 910 597 919 q 499 506 538 674 q 433 231 461 338 q 576 159 507 196 q 713 107 646 122 l 904 914 q 918 923 907 925 q 926 910 929 921 l 735 101 q 756 99 746 100 q 778 99 767 99 q 866 123 829 99 q 919 217 903 147 q 933 227 924 231 q 939 214 942 224 q 918 150 933 176 q 881 107 903 124 q 833 83 860 90 q 778 76 807 76 q 729 81 754 76 l 726 69 q 722 34 722 53 q 726 -1 721 15 q 742 -29 731 -18 q 774 -40 753 -40 q 783 -52 785 -40 q 772 -64 782 -64 m 363 93 q 383 148 372 117 q 407 217 394 179 q 307 256 357 240 q 204 271 257 271 q 99 247 143 271 q 31 185 56 222 q 1 105 6 147 q 12 25 -4 63 q 66 -37 28 -12 q 164 -61 104 -61 q 233 -49 203 -61 q 287 -15 263 -36 q 329 35 311 7 q 363 93 347 63 z "},"I":{"ha":597,"x_min":7,"x_max":622,"o":"m 154 0 q 90 13 118 0 q 44 45 63 25 q 16 91 25 65 q 7 143 7 117 q 49 242 7 206 q 147 278 90 278 q 158 267 158 278 q 147 256 158 256 q 64 224 97 256 q 31 143 31 192 q 67 55 31 88 q 154 22 104 22 q 274 70 225 22 q 358 194 324 118 q 415 363 392 269 q 458 549 439 457 q 481 658 469 606 q 506 756 492 711 q 536 836 519 801 q 575 892 553 871 q 480 878 522 889 q 404 851 438 867 q 346 815 371 835 q 303 778 321 796 q 232 670 256 729 q 208 551 208 611 q 214 502 208 528 q 232 456 219 476 q 263 422 244 435 q 310 408 282 408 q 321 397 321 408 q 310 385 321 385 q 220 431 254 385 q 186 551 186 476 q 213 683 186 622 q 286 793 240 744 q 335 835 307 814 q 403 875 364 857 q 494 904 443 893 q 610 915 546 915 l 613 915 q 622 906 619 915 q 617 893 624 897 q 572 851 592 883 q 535 770 551 818 q 506 663 519 722 q 481 542 493 604 q 436 352 460 446 q 376 179 413 258 q 154 0 293 0 z "},"J":{"ha":735,"x_min":-26,"x_max":735,"o":"m 394 388 q 305 433 339 388 q 271 554 271 479 q 297 686 271 622 q 371 797 324 750 q 420 840 392 818 q 488 881 449 863 q 578 910 528 899 q 693 921 629 921 q 706 910 714 921 q 677 835 692 876 q 651 749 663 793 q 616 593 632 675 q 583 427 600 511 q 547 260 567 343 q 500 106 526 178 q 535 100 517 103 q 572 97 553 97 q 662 120 625 97 q 715 214 699 143 q 728 224 719 226 q 735 213 738 222 q 676 105 722 136 q 572 74 629 74 q 528 76 549 74 q 490 83 508 79 l 463 22 q 347 -132 418 -72 q 171 -192 276 -192 q 83 -174 121 -192 q 22 -130 46 -157 q -15 -69 -3 -103 q -26 -1 -26 -35 q -12 70 -26 35 q 31 133 3 106 q 99 178 58 161 q 192 196 139 196 q 278 187 240 196 q 350 165 317 178 q 414 137 383 151 q 478 113 444 122 q 525 265 504 183 q 563 429 546 346 q 594 594 579 513 q 628 749 610 675 q 650 828 639 790 q 676 897 661 865 q 574 883 619 894 q 494 856 529 872 q 432 819 458 839 q 388 779 406 799 q 318 674 343 733 q 293 554 293 615 q 299 503 293 529 q 316 458 304 478 q 347 424 328 438 q 394 411 367 411 q 406 399 406 411 q 394 388 406 388 m 171 -169 l 174 -169 q 335 -112 272 -168 q 443 36 399 -56 q 457 62 450 49 q 468 90 464 75 q 408 115 436 100 q 348 142 379 129 q 279 163 317 154 q 192 172 242 172 q 106 157 143 172 q 45 117 69 142 q 8 62 21 93 q -4 -1 -4 31 q 7 -60 -4 -31 q 40 -115 18 -90 q 94 -154 61 -139 q 169 -169 126 -169 l 171 -169 z "},"K":{"ha":868,"x_min":7,"x_max":1013,"o":"m 154 0 q 90 13 118 0 q 44 45 63 25 q 16 91 25 65 q 7 144 7 117 q 48 242 7 206 q 146 278 89 278 q 158 267 158 278 q 146 256 157 256 q 63 224 97 256 q 29 144 29 193 q 67 56 29 90 q 154 22 104 22 q 274 70 225 22 q 358 194 324 118 q 415 363 392 269 q 458 549 438 457 q 481 658 469 606 q 506 756 492 711 q 536 836 519 801 q 575 892 553 871 q 480 878 522 889 q 404 850 438 867 q 346 814 371 833 q 303 776 321 794 q 233 671 258 731 q 208 550 208 611 q 214 501 208 526 q 232 456 219 476 q 264 421 244 435 q 311 407 283 407 q 322 395 322 407 q 311 383 322 383 q 221 429 256 383 q 186 550 186 475 q 213 681 186 618 q 286 792 240 744 q 336 835 307 813 q 405 875 365 857 q 495 904 444 893 q 611 915 546 915 q 622 906 619 915 q 615 893 625 897 q 570 851 590 883 q 535 771 550 818 q 506 665 519 724 q 479 543 492 606 q 435 353 458 447 q 375 181 411 258 q 154 0 294 0 m 847 -199 q 764 -180 799 -199 q 703 -131 729 -161 q 660 -60 676 -100 q 631 21 643 -21 q 611 103 618 63 q 597 178 604 144 q 583 256 590 213 q 562 338 575 300 q 528 403 549 376 q 476 429 508 429 q 465 440 465 429 q 476 451 465 451 q 621 478 560 451 q 728 550 682 506 q 810 653 775 594 q 876 774 844 711 q 934 874 906 833 q 1003 915 963 915 q 1013 904 1013 915 q 1003 893 1013 893 q 949 856 972 893 q 896 763 926 818 q 828 640 864 697 q 749 540 793 583 q 653 468 706 496 q 532 432 600 440 q 572 379 557 410 q 595 315 586 349 q 610 247 604 281 q 619 183 615 213 q 633 108 625 149 q 651 28 640 68 q 679 -48 663 -11 q 719 -113 696 -85 q 773 -158 742 -142 q 847 -175 804 -175 q 915 -162 879 -175 q 964 -118 950 -150 q 978 -112 968 -107 q 986 -126 989 -117 q 926 -183 968 -167 q 847 -199 885 -199 z "},"L":{"ha":738,"x_min":7,"x_max":1033,"o":"m 849 -179 q 747 -153 796 -179 q 656 -90 699 -128 q 576 -8 613 -51 q 510 69 539 35 q 457 128 485 97 q 401 190 429 160 q 361 117 383 151 q 311 57 339 83 q 249 15 283 31 q 175 0 215 0 q 108 12 139 0 q 55 45 78 24 q 19 96 32 67 q 7 160 7 125 q 22 230 7 199 q 64 283 38 261 q 123 317 90 306 q 192 329 156 329 q 299 299 249 329 q 393 229 349 269 q 430 335 413 279 q 465 450 447 392 q 496 550 479 496 q 531 658 513 604 q 569 762 550 713 q 610 847 589 811 q 722 972 658 932 q 864 1013 785 1013 q 925 1003 896 1013 q 976 975 954 993 q 1010 931 997 957 q 1024 871 1024 904 q 985 774 1024 814 q 889 733 946 733 q 878 744 878 733 q 889 756 878 756 q 938 766 917 756 q 973 792 958 776 q 994 829 988 808 q 1001 871 1001 850 q 990 922 1001 900 q 958 959 978 944 q 915 981 939 974 q 864 989 890 989 q 789 977 824 989 q 725 944 754 965 q 672 896 696 924 q 629 838 647 868 q 589 753 608 803 q 551 650 569 704 q 517 542 533 596 q 488 442 501 488 q 454 333 472 394 q 413 213 436 272 q 472 147 444 181 q 525 85 500 113 q 593 6 557 47 q 669 -72 629 -36 q 753 -132 708 -108 q 849 -156 799 -156 q 899 -149 874 -156 q 948 -131 925 -143 q 988 -101 971 -119 q 1013 -58 1004 -83 q 1026 -48 1014 -44 q 1033 -62 1038 -51 q 1005 -115 1025 -93 q 959 -151 985 -137 q 904 -172 933 -165 q 849 -179 875 -179 m 192 306 q 129 295 158 306 q 78 265 100 285 q 42 219 56 246 q 29 160 29 193 q 38 110 29 135 q 64 65 46 85 q 108 34 82 46 q 172 22 135 22 q 299 74 249 22 q 385 207 349 125 q 293 277 342 249 q 192 306 244 306 z "},"M":{"ha":1254,"x_min":24,"x_max":1197,"o":"m 1078 -119 q 1033 -105 1049 -119 q 1012 -69 1018 -90 q 1007 -24 1006 -49 q 1013 19 1008 0 l 1154 621 q 1172 707 1164 660 q 1174 796 1179 754 q 1147 865 1169 838 q 1071 893 1124 893 q 986 867 1021 893 q 928 803 951 842 q 889 722 904 765 q 864 642 874 678 l 714 11 q 708 2 713 6 q 699 1 704 -1 q 692 6 694 3 q 690 13 689 10 q 699 49 690 14 q 722 139 708 83 q 751 263 735 194 q 785 401 768 332 q 817 535 801 471 q 843 646 832 600 q 855 724 851 681 q 849 804 858 767 q 815 867 840 842 q 742 893 790 893 q 692 883 718 893 q 640 848 665 874 q 590 776 614 822 q 547 654 567 729 q 523 554 538 617 q 492 420 508 492 q 458 276 475 349 q 426 145 440 204 q 402 49 411 86 q 393 11 393 11 q 382 0 390 0 q 374 5 376 0 q 372 13 371 10 q 381 52 372 14 q 404 150 390 90 q 435 283 418 210 q 469 428 451 357 q 501 562 486 500 q 526 660 517 624 q 533 771 540 717 q 501 867 526 825 q 431 934 475 908 q 326 960 386 960 q 217 940 268 960 q 128 887 165 921 q 68 805 90 853 q 46 700 46 757 q 58 626 46 661 q 92 566 69 592 q 146 525 114 540 q 217 510 178 510 q 265 519 242 510 q 304 546 288 529 q 331 585 321 563 q 340 631 340 607 q 351 642 340 642 q 363 631 363 642 q 351 575 363 601 q 319 529 339 549 q 272 499 299 510 q 217 488 246 488 q 135 506 171 488 q 75 553 100 524 q 37 622 50 583 q 24 700 24 660 q 48 816 24 764 q 114 905 72 868 q 210 962 156 942 q 326 982 265 982 q 420 963 378 982 q 494 913 463 944 q 542 841 525 882 q 560 757 560 800 q 630 870 589 825 q 742 915 671 915 q 807 903 781 915 q 849 869 833 890 q 871 821 864 849 q 879 763 878 793 q 952 870 907 825 q 1071 915 997 915 q 1162 883 1133 915 q 1197 805 1190 851 q 1194 706 1203 758 q 1178 615 1186 654 l 1033 14 q 1028 -22 1029 -3 q 1031 -57 1026 -40 q 1046 -85 1035 -74 q 1078 -96 1057 -96 q 1089 -108 1089 -96 q 1078 -119 1089 -119 z "},"N":{"ha":1085,"x_min":7,"x_max":972,"o":"m 872 -119 q 830 -105 844 -119 q 809 -69 815 -90 q 803 -24 803 -49 q 807 19 803 0 l 825 94 q 842 166 832 122 q 867 273 853 210 q 903 422 882 336 q 951 621 924 508 q 935 838 986 764 q 783 893 888 893 q 628 831 697 893 q 569 754 594 799 q 531 654 544 710 q 452 331 489 492 q 375 11 415 171 q 370 1 374 4 q 363 0 367 -1 q 356 5 358 1 q 354 13 353 8 q 363 52 354 14 q 386 149 372 90 q 417 282 400 208 q 451 427 433 356 q 483 560 468 499 q 510 660 499 622 q 519 735 519 701 q 513 797 519 769 q 497 844 507 824 q 474 879 486 864 q 401 938 446 917 q 307 960 356 960 q 199 940 250 960 q 111 887 149 921 q 51 805 74 853 q 29 700 29 757 q 41 626 29 661 q 75 566 53 592 q 128 525 97 540 q 199 510 160 510 q 247 519 224 510 q 286 546 269 529 q 313 585 303 563 q 322 631 322 607 q 333 642 322 642 q 344 631 344 642 q 333 575 344 601 q 301 529 321 549 q 254 499 281 510 q 199 488 228 488 q 119 506 154 488 q 58 553 83 524 q 20 622 33 583 q 7 700 7 660 q 32 816 7 764 q 99 905 57 868 q 194 962 140 942 q 307 982 249 982 q 410 958 363 982 q 490 892 458 933 q 528 824 518 860 q 540 750 539 788 q 613 847 571 810 q 783 915 688 915 q 950 850 897 915 q 972 615 1010 771 l 829 14 q 824 -20 825 -1 q 828 -56 824 -39 q 842 -84 832 -72 q 874 -96 853 -96 q 886 -108 886 -96 q 872 -119 886 -119 z "},"O":{"ha":715,"x_min":-8,"x_max":628,"o":"m 207 -3 q 105 19 146 -3 q 38 77 64 40 q 2 161 13 114 q -8 258 -8 208 q 4 358 -7 308 q 32 451 15 408 q 47 460 36 463 q 53 443 58 458 q 26 353 36 401 q 15 259 15 306 q 24 169 14 213 q 56 92 33 125 q 117 40 79 60 q 208 19 154 19 q 365 68 296 19 q 485 190 435 117 q 565 346 535 263 q 604 500 594 429 q 606 645 614 574 q 567 772 597 717 q 485 861 538 828 q 353 892 432 894 q 248 870 296 890 q 165 815 200 850 q 110 733 131 781 q 86 631 89 686 q 88 565 85 599 q 104 503 92 531 q 139 458 117 475 q 197 440 161 440 q 267 474 240 440 q 281 554 293 507 q 288 569 278 565 q 303 561 299 574 q 304 505 311 531 q 282 460 297 479 q 244 429 267 440 q 197 418 222 418 q 129 438 156 418 q 88 490 103 458 q 67 558 72 521 q 63 631 61 596 q 92 748 67 696 q 156 837 117 800 q 246 894 194 874 q 356 915 297 914 q 501 878 444 917 q 589 780 558 840 q 627 644 619 719 q 625 499 635 569 q 583 330 615 418 q 497 167 550 242 q 370 45 443 93 q 207 -3 297 -3 z "},"P":{"ha":969,"x_min":7,"x_max":911,"o":"m 154 -10 q 90 3 118 -10 q 44 35 63 15 q 16 81 25 56 q 7 135 7 107 q 48 233 7 196 q 146 271 89 271 q 161 260 161 271 q 146 249 161 249 q 63 216 97 249 q 29 135 29 183 q 63 47 29 81 q 154 13 97 13 q 274 60 225 13 q 358 184 324 108 q 415 354 392 260 q 458 540 439 449 q 481 651 469 597 q 506 749 492 704 q 537 830 519 794 q 576 886 554 865 q 472 873 518 885 q 390 844 426 861 q 326 806 353 826 q 281 765 299 785 q 210 658 236 718 q 185 538 185 599 q 190 488 185 513 q 208 442 196 463 q 240 410 221 422 q 285 397 258 397 q 299 385 299 397 q 285 374 299 374 q 228 389 251 374 q 191 428 206 404 q 169 481 176 451 q 163 538 163 510 q 190 671 163 608 q 264 781 218 733 q 315 826 285 803 q 385 867 344 849 q 476 898 425 886 q 593 910 528 910 q 719 887 661 910 q 820 823 778 864 q 887 724 863 782 q 911 594 911 665 q 894 488 911 539 q 848 393 878 436 q 776 317 818 350 q 686 265 735 283 q 613 247 650 254 q 536 239 576 239 q 442 249 489 239 q 433 261 431 250 q 447 271 436 272 q 570 264 514 260 q 678 288 626 268 q 764 338 725 306 q 831 410 803 369 q 874 497 858 450 q 889 593 889 544 q 868 709 889 657 q 810 799 847 761 q 722 859 772 838 q 614 885 672 881 q 569 839 589 872 q 535 759 550 806 q 506 655 519 713 q 481 536 493 597 q 436 345 460 440 q 376 171 413 250 q 154 -10 293 -10 z "},"Q":{"ha":789,"x_min":7,"x_max":964,"o":"m 213 -3 q 148 6 181 -3 q 90 33 115 15 q 47 76 64 50 q 31 138 31 103 q 47 193 31 171 q 89 230 64 215 q 144 251 114 244 q 200 257 174 257 q 346 215 282 257 q 461 117 410 172 q 599 317 553 201 q 644 553 644 432 q 626 683 644 621 q 571 791 607 744 q 480 865 535 838 q 354 892 425 892 q 217 858 278 892 q 115 772 157 825 q 51 652 74 719 q 29 518 29 585 q 38 444 29 482 q 64 376 46 407 q 111 326 82 346 q 181 307 140 307 q 236 317 211 307 q 276 346 261 328 q 297 388 292 364 q 296 439 303 413 q 302 455 290 451 q 317 446 314 458 q 319 381 326 411 q 291 330 311 351 q 242 297 271 308 q 181 285 213 285 q 101 307 133 285 q 47 363 68 329 q 17 438 26 397 q 7 518 7 479 q 33 667 7 596 q 104 794 58 739 q 214 883 150 850 q 354 915 278 915 q 492 883 433 915 q 590 801 551 851 q 648 685 629 750 q 667 553 667 619 q 616 302 667 419 q 475 100 565 185 q 503 67 489 83 q 532 33 517 50 q 588 -38 560 -4 q 647 -99 617 -72 q 713 -142 678 -126 q 788 -158 747 -158 q 884 -135 843 -158 q 940 -58 925 -112 q 955 -47 943 -46 q 964 -64 967 -49 q 904 -153 949 -125 q 788 -181 860 -181 q 635 -118 707 -181 q 572 -56 601 -90 q 513 17 543 -22 q 485 51 497 33 q 458 85 472 68 q 342 21 404 44 q 213 -3 279 -3 m 200 235 q 151 230 176 235 q 103 214 125 225 q 67 184 81 203 q 53 138 53 165 q 68 85 53 107 q 108 48 83 63 q 160 26 132 33 q 213 19 188 19 q 337 42 279 19 q 440 101 394 65 q 335 196 392 157 q 200 235 278 235 z "},"R":{"ha":939,"x_min":7,"x_max":1068,"o":"m 931 -154 q 821 -134 868 -154 q 736 -81 774 -114 q 669 -3 699 -47 q 611 88 639 40 q 576 147 593 118 q 539 197 558 175 q 496 235 519 219 q 443 256 472 250 q 431 269 428 258 q 446 278 435 281 q 659 291 558 261 q 822 406 760 321 q 876 522 860 457 q 884 649 892 586 q 844 765 876 711 q 757 851 813 819 q 613 892 693 890 q 569 847 588 879 q 534 767 550 814 q 505 661 518 719 q 479 542 492 603 q 435 352 458 446 q 375 179 411 258 q 154 0 293 0 q 90 13 118 0 q 44 44 63 25 q 16 90 25 64 q 7 143 7 115 q 48 242 7 206 q 146 278 89 278 q 158 267 158 278 q 146 256 158 256 q 63 224 96 256 q 29 143 29 192 q 67 55 29 88 q 154 22 104 22 q 274 70 225 22 q 358 194 324 118 q 415 363 392 269 q 458 549 438 457 q 481 659 469 606 q 506 757 492 713 q 536 836 519 801 q 575 892 553 871 q 471 879 517 890 q 388 851 425 868 q 325 813 351 833 q 281 774 299 793 q 210 667 236 728 q 185 544 185 606 q 190 497 185 521 q 208 452 196 472 q 238 419 219 432 q 283 407 257 407 q 294 394 294 407 q 283 382 294 382 q 228 397 251 382 q 191 437 206 413 q 169 490 176 461 q 163 544 163 518 q 190 678 163 615 q 263 789 218 740 q 313 833 283 811 q 383 874 343 856 q 475 903 424 892 q 592 915 526 915 q 769 869 697 915 q 866 774 832 833 q 907 649 900 715 q 897 514 914 582 q 840 392 879 446 q 778 328 813 354 q 703 283 743 301 q 622 257 664 265 q 536 249 579 249 l 518 249 q 578 183 553 222 q 631 100 604 143 q 688 9 657 51 q 753 -65 718 -33 q 833 -114 789 -96 q 931 -132 876 -132 q 1010 -113 982 -132 q 1047 -74 1039 -94 q 1062 -68 1051 -64 q 1068 -83 1072 -72 q 1010 -139 1050 -124 q 931 -154 969 -154 z "},"S":{"ha":665,"x_min":7,"x_max":747,"o":"m 250 0 q 151 19 196 0 q 74 73 107 39 q 24 152 42 107 q 7 249 7 197 q 21 333 7 293 q 61 403 35 374 q 124 451 88 433 q 206 468 161 468 q 268 454 240 468 q 315 417 296 440 q 342 365 333 394 q 347 304 351 335 q 342 297 346 299 q 333 295 338 294 q 326 299 329 296 q 325 307 324 301 q 320 361 328 336 q 296 405 313 386 q 256 435 279 424 q 206 446 233 446 q 142 434 174 446 q 85 398 110 422 q 44 337 60 374 q 29 249 29 300 q 46 158 29 200 q 92 86 63 117 q 163 39 122 56 q 250 22 203 22 q 352 44 306 22 q 431 103 399 67 q 481 189 463 140 q 499 292 499 238 q 488 402 500 344 q 446 524 475 460 q 419 601 431 560 q 406 685 408 643 q 410 767 403 726 q 439 840 417 807 q 504 897 465 879 q 583 915 543 915 q 646 906 617 915 q 698 878 675 896 q 734 835 721 861 q 747 775 747 808 q 708 674 747 715 q 610 632 669 632 q 598 643 597 632 q 610 654 599 654 q 659 665 638 654 q 695 692 681 675 q 717 731 710 710 q 725 775 725 753 q 713 826 725 804 q 680 863 700 849 q 635 885 660 878 q 583 892 610 892 q 513 876 544 892 q 461 828 481 860 q 427 699 425 775 q 467 533 429 622 q 509 407 496 467 q 521 292 522 347 q 501 178 521 231 q 444 85 481 125 q 359 23 408 46 q 250 0 310 0 z "},"T":{"ha":658,"x_min":7,"x_max":1050,"o":"m 167 474 q 97 490 126 474 q 47 534 67 507 q 17 595 28 561 q 7 664 7 629 q 39 796 7 739 q 123 891 71 853 q 240 949 175 929 q 369 968 304 968 q 546 952 472 968 q 683 919 619 936 q 778 897 733 907 q 874 888 824 888 q 967 901 929 888 q 1033 942 1006 914 q 1049 944 1040 953 q 1050 929 1057 936 q 977 879 1018 894 q 874 864 936 864 q 774 875 821 864 q 678 899 726 886 l 646 908 q 601 863 621 896 q 565 781 581 829 q 535 674 549 732 q 510 553 522 615 q 463 358 488 453 q 403 183 439 263 q 178 0 318 0 q 115 13 142 0 q 69 45 88 25 q 41 91 50 65 q 32 143 32 117 q 73 241 32 204 q 171 278 114 278 q 183 267 183 278 q 171 256 183 256 q 88 224 121 256 q 54 143 54 192 q 65 93 54 115 q 92 55 75 71 q 131 31 108 39 q 178 22 153 22 q 248 38 217 22 q 304 77 279 53 q 349 131 329 101 q 382 192 368 161 q 443 366 418 271 q 488 557 468 461 q 513 675 500 618 q 542 778 526 732 q 575 860 557 825 q 617 915 593 896 q 505 938 565 929 q 369 946 444 946 q 243 927 304 946 q 135 872 182 908 q 58 783 88 836 q 29 664 29 731 q 38 602 29 632 q 65 549 47 572 q 108 510 82 525 q 167 496 133 496 q 237 525 210 496 q 251 597 264 554 q 260 612 250 608 q 274 604 271 615 q 276 553 282 576 q 254 512 269 529 q 215 484 239 494 q 167 474 192 474 z "},"U":{"ha":1096,"x_min":7,"x_max":1131,"o":"m 604 0 q 490 24 533 0 q 426 88 447 47 q 404 183 406 129 q 417 294 403 236 q 447 418 432 354 q 478 535 461 471 q 510 657 494 599 q 520 733 519 699 q 515 794 521 767 q 498 842 508 821 q 475 876 488 863 q 402 935 447 914 q 308 957 357 957 q 199 938 250 957 q 111 885 149 919 q 51 803 74 850 q 29 699 29 756 q 41 624 29 658 q 75 563 53 589 q 129 522 97 538 q 200 507 161 507 q 247 517 225 507 q 286 543 269 526 q 313 582 303 560 q 322 629 322 604 q 333 640 322 640 q 344 629 344 640 q 333 574 344 600 q 301 527 321 547 q 255 496 281 507 q 200 485 229 485 q 119 503 154 485 q 58 551 83 521 q 20 619 33 581 q 7 699 7 657 q 32 815 7 763 q 99 903 57 867 q 196 959 142 939 q 308 979 250 979 q 412 955 364 979 q 492 890 460 931 q 540 774 533 839 q 532 651 547 710 q 500 529 517 593 q 469 413 483 465 q 439 289 454 349 q 427 181 426 231 q 447 97 428 132 q 503 42 465 61 q 604 22 542 22 q 697 41 656 22 q 769 92 739 60 q 821 165 800 124 q 853 250 842 206 l 993 819 q 1011 869 1000 844 q 1038 913 1022 893 q 1074 944 1054 932 q 1119 958 1094 957 q 1131 947 1131 958 q 1119 936 1131 936 q 1080 922 1097 935 q 1050 892 1063 910 q 1029 853 1038 874 q 1015 814 1021 832 l 875 246 q 840 153 864 197 q 782 74 817 108 q 703 20 747 40 q 604 0 658 0 z "},"V":{"ha":911,"x_min":7,"x_max":1042,"o":"m 361 -3 q 350 13 344 -3 q 359 51 350 13 q 383 148 368 89 q 415 280 397 207 q 451 424 433 353 q 484 558 468 496 q 510 657 500 619 q 520 733 519 699 q 515 794 521 767 q 498 842 508 821 q 475 876 488 863 q 402 935 447 914 q 308 957 357 957 q 199 938 250 957 q 111 885 149 919 q 51 803 74 850 q 29 699 29 756 q 41 624 29 658 q 75 563 53 589 q 129 522 97 538 q 200 507 161 507 q 247 517 225 507 q 286 543 269 526 q 313 582 303 560 q 322 629 322 604 q 333 640 322 640 q 344 629 344 640 q 333 574 344 600 q 301 527 321 547 q 255 496 281 507 q 200 485 229 485 q 119 503 154 485 q 58 551 83 521 q 20 619 33 581 q 7 699 7 657 q 32 815 7 763 q 99 903 57 867 q 196 959 142 939 q 308 979 250 979 q 412 955 364 979 q 492 890 460 931 q 539 774 533 839 q 532 651 544 710 q 509 563 522 617 q 480 445 496 508 q 447 316 464 382 q 416 192 431 250 q 390 88 401 133 q 375 21 379 42 q 496 83 429 29 q 574 159 535 114 q 653 258 613 204 q 730 378 693 314 q 799 513 767 442 q 860 665 833 589 q 906 819 886 740 q 922 867 911 843 q 947 911 932 892 q 983 944 963 931 q 1029 958 1004 957 q 1041 947 1040 958 q 1031 936 1042 936 q 990 922 1007 935 q 960 892 972 910 q 939 853 947 874 q 926 814 931 832 q 819 504 889 658 q 749 368 788 433 q 671 244 711 303 q 591 143 631 189 q 511 65 551 97 q 361 -3 426 -3 z "},"W":{"ha":1361,"x_min":7,"x_max":1426,"o":"m 926 0 q 853 14 882 0 q 806 51 824 28 q 781 104 789 74 q 772 168 772 135 q 736 103 757 133 q 690 49 715 72 q 631 13 664 26 q 557 0 597 0 q 458 26 493 0 q 410 95 424 53 q 399 190 396 138 q 415 294 403 243 l 508 657 q 519 733 518 699 q 513 794 519 767 q 497 842 507 821 q 474 876 486 863 q 401 935 446 914 q 307 957 356 957 q 199 938 250 957 q 111 884 149 918 q 51 802 74 850 q 29 699 29 754 q 41 625 29 660 q 75 564 53 590 q 128 522 97 538 q 199 507 160 507 q 246 517 224 507 q 285 544 268 528 q 313 583 303 561 q 322 629 322 606 q 333 640 322 640 q 344 629 344 640 q 333 572 344 599 q 301 526 321 546 q 254 496 281 507 q 199 485 228 485 q 117 503 153 485 q 58 551 82 521 q 20 619 33 581 q 7 699 7 657 q 32 815 7 763 q 99 903 57 867 q 194 959 140 939 q 307 979 249 979 q 410 955 363 979 q 490 890 458 931 q 539 774 532 839 q 531 651 546 710 l 439 289 q 424 194 428 242 q 431 109 419 147 q 472 47 442 71 q 557 22 501 22 q 644 44 607 22 q 707 99 681 65 q 751 176 733 133 q 779 261 768 219 l 910 778 q 924 787 913 789 q 933 774 936 785 l 804 268 q 792 180 793 224 q 803 101 790 136 q 845 44 815 65 q 926 22 875 22 q 1069 91 1011 22 q 1156 293 1126 160 q 1171 360 1156 301 q 1186 422 1176 385 q 1210 515 1196 460 q 1244 646 1225 571 q 1288 819 1263 721 q 1304 868 1293 843 q 1331 913 1315 893 q 1367 946 1346 933 q 1413 958 1388 958 q 1426 947 1426 958 q 1414 936 1425 936 q 1373 924 1390 936 q 1342 892 1356 911 q 1321 853 1329 874 q 1308 814 1313 832 l 1179 288 q 1148 183 1167 235 q 1099 92 1129 132 q 1027 26 1069 51 q 926 0 985 0 z "},"X":{"ha":1007,"x_min":7,"x_max":1278,"o":"m 1119 -232 q 964 -179 1036 -232 q 857 -46 906 -133 q 781 142 813 36 q 721 356 749 247 l 694 449 l 597 247 q 544 151 574 197 q 477 72 514 106 q 397 17 440 38 q 301 -3 353 -3 q 220 31 253 -3 q 188 110 188 64 q 199 121 188 121 q 211 110 211 121 q 215 83 211 99 q 229 53 219 67 q 256 29 239 39 q 301 19 274 19 q 455 80 388 19 q 576 257 522 140 l 685 485 q 635 636 661 564 q 576 771 610 708 q 526 844 553 810 q 468 903 500 878 q 397 942 436 928 q 308 957 357 957 q 199 938 250 957 q 111 885 149 919 q 52 803 74 850 q 31 699 31 756 q 42 625 31 660 q 76 564 54 590 q 130 522 99 538 q 200 507 161 507 q 247 517 225 507 q 286 543 269 526 q 313 582 303 560 q 322 629 322 604 q 333 640 322 640 q 344 629 344 640 q 333 573 344 599 q 301 528 321 547 q 255 497 281 508 q 200 486 229 486 q 119 504 154 486 q 58 551 83 522 q 20 619 33 581 q 7 699 7 657 q 32 815 7 763 q 99 903 57 867 q 196 959 142 939 q 308 979 250 979 q 453 941 392 979 q 560 839 515 903 q 638 691 606 775 q 699 514 671 607 l 824 772 q 852 822 836 797 q 888 867 868 847 q 930 899 907 886 q 979 911 953 911 q 991 900 990 911 q 981 889 992 889 q 909 854 946 889 q 844 761 872 819 l 710 481 l 742 361 q 792 184 771 253 q 828 73 813 115 q 856 7 844 31 q 878 -36 867 -17 q 925 -109 901 -78 q 979 -162 949 -140 q 1119 -210 1042 -210 q 1158 -206 1138 -210 q 1199 -195 1179 -203 q 1234 -174 1219 -187 q 1254 -142 1249 -161 q 1269 -133 1258 -129 q 1278 -147 1281 -136 q 1253 -189 1271 -172 q 1213 -215 1236 -206 q 1165 -228 1190 -224 q 1119 -232 1140 -232 z "},"Y":{"ha":1008,"x_min":7,"x_max":1133,"o":"m 603 0 q 488 24 531 0 q 424 90 444 49 q 403 184 404 131 q 415 296 403 238 l 510 660 q 515 771 522 717 q 481 867 507 825 q 410 934 454 908 q 307 960 367 960 q 199 941 250 960 q 111 888 149 922 q 51 806 74 853 q 29 701 29 758 q 41 628 29 663 q 75 567 53 593 q 128 525 97 540 q 199 510 160 510 q 247 519 224 510 q 286 546 269 529 q 313 585 303 563 q 322 631 322 607 q 333 642 322 642 q 344 631 344 642 q 333 575 344 601 q 301 529 321 549 q 254 499 281 510 q 199 488 228 488 q 117 506 153 488 q 58 553 82 524 q 20 622 33 583 q 7 701 7 660 q 32 817 7 765 q 99 906 57 869 q 194 962 140 942 q 307 982 249 982 q 425 951 376 982 q 502 874 474 921 q 538 768 531 826 q 531 654 544 710 q 499 534 515 597 q 469 417 483 471 q 447 326 456 363 q 439 289 439 290 q 425 181 424 229 q 445 97 426 132 q 503 42 464 61 q 603 22 542 22 q 696 42 654 22 q 769 92 738 61 q 821 165 800 124 q 853 250 842 206 l 992 819 q 1008 866 997 842 q 1035 911 1019 890 q 1071 945 1050 932 q 1119 958 1092 958 q 1133 947 1133 958 q 1119 936 1132 936 q 1080 924 1097 936 q 1049 892 1063 911 q 1028 853 1036 874 q 1015 814 1019 832 q 969 626 989 707 q 933 484 949 544 q 908 383 918 424 q 890 315 897 342 l 872 243 q 842 110 858 181 q 808 -28 825 39 q 772 -152 790 -94 q 736 -249 754 -210 q 700 -312 721 -282 q 653 -366 679 -343 q 596 -402 628 -389 q 525 -415 564 -415 q 461 -403 489 -415 q 415 -370 433 -390 q 386 -324 396 -350 q 376 -272 376 -299 q 417 -174 376 -210 q 517 -137 458 -137 q 529 -149 531 -137 q 517 -160 528 -160 q 433 -191 467 -160 q 400 -272 400 -222 q 437 -361 400 -331 q 525 -392 474 -392 q 590 -378 561 -392 q 642 -344 619 -365 q 683 -296 665 -324 q 714 -239 700 -268 q 772 -77 746 -169 q 822 124 797 15 q 731 34 786 68 q 603 0 675 0 z "},"Z":{"ha":725,"x_min":7,"x_max":997,"o":"m 197 499 q 139 513 164 499 q 97 549 114 526 q 72 600 81 571 q 63 658 63 629 q 81 752 63 707 q 136 832 100 797 q 238 895 178 875 q 369 915 297 915 q 518 903 447 915 q 661 892 589 892 q 733 895 697 892 q 797 903 768 899 q 847 911 826 907 q 874 915 867 915 q 889 908 886 918 q 883 893 892 899 q 777 828 822 874 q 700 732 732 783 q 629 603 661 674 q 567 463 597 533 q 531 380 550 425 q 489 290 511 335 q 442 204 467 246 q 390 133 417 163 q 440 85 415 110 q 488 38 465 61 q 563 -37 525 0 q 640 -103 600 -74 q 724 -151 681 -132 q 814 -169 767 -169 q 865 -163 839 -169 q 914 -144 892 -157 q 953 -111 936 -131 q 975 -67 969 -92 q 990 -61 981 -58 q 997 -74 1000 -64 q 969 -126 989 -104 q 924 -163 950 -149 q 869 -185 899 -178 q 814 -192 840 -192 q 721 -173 765 -192 q 634 -124 676 -154 q 551 -56 592 -94 q 472 21 511 -18 q 424 70 447 47 q 375 115 400 93 q 267 31 328 61 q 138 0 207 0 q 45 33 83 0 q 7 118 7 67 q 20 173 7 149 q 54 214 33 197 q 101 239 75 231 q 156 247 128 247 q 331 179 242 247 q 372 147 351 168 q 471 304 432 221 q 546 471 510 388 q 610 613 578 543 q 681 744 642 683 q 738 821 707 786 q 804 881 768 856 q 736 872 774 875 q 661 868 699 868 q 511 881 582 868 q 369 893 440 893 q 244 874 300 893 q 151 817 189 856 q 102 744 119 785 q 85 658 85 703 q 92 608 85 632 q 113 564 99 583 q 149 533 128 544 q 197 521 169 521 q 256 544 233 521 q 269 603 279 568 q 276 616 265 614 q 290 610 288 618 q 293 565 299 586 q 273 530 288 544 q 238 507 258 515 q 197 499 218 499 m 156 224 q 109 217 132 224 q 68 197 86 210 q 40 164 50 183 q 29 118 29 144 q 39 76 29 94 q 64 47 49 58 q 99 28 79 35 q 138 22 118 22 q 260 52 204 22 q 358 131 317 82 q 338 147 347 139 q 319 163 329 156 q 156 224 232 224 z "},"[":{"ha":368,"x_min":3,"x_max":364,"o":"m 13 -140 q 5 -136 8 -140 q 3 -126 1 -132 l 268 979 q 279 989 271 989 l 351 989 q 364 976 364 989 q 351 964 364 964 l 288 964 l 29 -118 l 88 -118 q 99 -129 99 -118 q 88 -140 99 -140 l 13 -140 z "},"\\":{"ha":383,"x_min":7,"x_max":378,"o":"m 7 883 q 12 897 1 893 q 28 890 22 901 l 378 -4 q 371 -17 382 -14 q 356 -14 360 -21 l 7 883 z "},"]":{"ha":364,"x_min":3,"x_max":361,"o":"m 13 -140 q 3 -129 3 -140 q 13 -118 3 -118 l 79 -118 l 336 964 l 276 964 q 265 976 265 964 q 276 989 265 989 l 350 989 q 358 985 354 989 q 361 974 363 981 l 100 -132 q 88 -140 97 -140 l 13 -140 z "},"^":{"ha":243,"x_min":14,"x_max":214,"o":"m 196 801 l 140 886 l 32 803 q 15 806 21 796 q 15 821 8 815 l 138 911 q 153 910 146 917 l 214 814 q 212 800 221 806 q 196 801 203 794 z "},"_":{"ha":707,"x_min":58,"x_max":650,"o":"m 639 -89 l 68 -89 q 58 -77 58 -87 q 68 -67 58 -67 l 639 -67 q 649 -78 650 -68 q 639 -89 649 -89 z "},"`":{"ha":83,"x_min":13,"x_max":74,"o":"m 13 703 q 13 718 4 713 q 29 715 22 724 l 74 653 q 70 637 81 642 q 56 639 60 632 l 13 703 z "},"a":{"ha":521,"x_min":-35,"x_max":521,"o":"m 346 0 q 263 35 289 0 q 231 115 236 69 q 174 24 208 63 q 86 -14 139 -14 q 14 6 40 -14 q -24 58 -12 26 q -34 127 -35 89 q -25 200 -33 165 l 25 401 q 78 505 40 464 q 181 546 115 546 q 259 524 229 546 q 300 467 289 503 l 313 525 q 326 534 315 536 q 335 518 338 532 q 315 436 322 467 q 301 376 308 406 q 285 310 294 347 q 261 211 276 274 q 253 149 254 182 q 260 88 251 117 q 289 41 268 60 q 346 22 310 22 q 405 40 379 22 q 449 83 431 57 q 478 138 467 108 q 494 194 489 168 l 501 217 q 514 225 504 228 q 521 213 524 222 l 514 189 q 492 122 506 156 q 458 60 478 88 q 410 17 438 33 q 346 0 382 0 m 181 524 q 90 485 122 524 q 46 394 58 446 l -4 194 q -12 131 -11 164 q -4 72 -14 99 q 27 29 6 46 q 86 13 49 13 q 146 31 121 13 q 188 78 171 50 q 217 138 206 106 q 235 196 228 169 l 278 385 q 267 483 292 443 q 181 524 243 524 z "},"b":{"ha":435,"x_min":-35,"x_max":314,"o":"m 93 -14 q 19 6 47 -14 q -22 58 -8 26 q -35 126 -35 89 q -26 200 -35 164 l 17 376 l 115 782 q 120 790 117 788 q 128 791 124 792 q 135 787 132 790 q 138 778 139 783 l 65 486 q 117 529 86 513 q 190 546 149 546 q 265 525 238 546 q 303 472 292 504 q 314 402 315 440 q 304 329 313 364 l 272 190 q 249 121 264 157 q 213 55 235 85 q 162 6 192 25 q 93 -14 132 -14 m -4 194 q -12 129 -12 161 q -1 71 -11 97 q 33 28 10 44 q 93 13 56 13 q 154 31 128 13 q 199 77 181 50 q 231 136 218 104 q 250 196 243 168 l 283 335 q 292 400 292 367 q 284 461 293 433 q 252 506 275 489 q 190 524 229 524 q 131 510 156 524 q 88 476 106 497 q 58 426 69 454 q 39 371 46 399 l -4 194 z "},"c":{"ha":410,"x_min":-24,"x_max":408,"o":"m -1 183 q 13 106 -1 138 q 49 53 26 74 q 102 22 72 32 q 165 13 132 13 q 245 31 208 13 q 310 78 282 50 q 357 137 339 106 q 382 194 375 168 l 388 213 q 401 220 390 222 q 408 207 411 218 l 404 189 q 375 119 396 156 q 323 53 354 83 q 251 5 292 24 q 165 -14 211 -14 q 31 35 86 -14 q -24 183 -24 85 q -22 210 -24 196 q -16 249 -21 225 q -2 310 -11 274 q 22 401 7 346 q 77 506 40 467 q 178 546 114 546 q 244 532 217 546 q 286 494 271 518 q 305 440 301 471 q 300 376 308 410 q 294 369 299 371 q 286 368 290 367 q 279 373 282 369 q 278 382 276 376 q 265 486 293 449 q 178 524 238 524 q 89 485 121 524 q 43 394 57 446 q 19 305 28 340 q 6 247 10 269 q 0 209 1 224 q -1 183 -1 194 z "},"d":{"ha":539,"x_min":-33,"x_max":539,"o":"m 364 0 q 278 35 304 0 q 250 117 253 71 q 189 25 226 64 q 94 -14 151 -14 q 22 6 50 -14 q -19 56 -6 25 q -33 124 -32 88 q -25 197 -33 161 l 13 344 q 35 415 21 379 q 70 481 49 451 q 121 528 92 510 q 189 546 150 546 q 274 524 243 546 q 315 464 306 501 l 397 804 q 410 813 400 815 q 418 800 421 811 q 372 609 390 686 q 341 479 354 532 q 320 393 328 426 q 306 332 313 360 q 293 277 300 304 q 278 211 286 250 q 269 149 271 182 q 277 88 268 115 q 306 41 286 60 q 364 22 326 22 q 422 40 397 22 q 464 83 446 57 q 494 138 482 108 q 513 194 506 168 l 515 214 q 530 225 518 228 q 539 211 542 222 l 533 189 q 511 122 525 156 q 477 60 497 88 q 429 17 457 33 q 364 0 401 0 m -3 192 q -9 127 -10 160 q 3 68 -8 94 q 36 26 14 42 q 94 10 58 10 q 156 28 129 10 q 201 74 182 47 q 231 133 219 101 q 250 193 243 165 l 293 371 q 285 482 310 440 q 189 524 261 524 q 126 505 151 524 q 84 458 101 486 q 55 399 67 431 q 33 339 43 367 l -3 192 z "},"e":{"ha":408,"x_min":-25,"x_max":408,"o":"m 175 -14 q 99 -1 135 -14 q 35 35 63 11 q -9 97 7 60 q -25 183 -25 133 q 2 275 -25 235 q 79 333 29 315 q 50 373 61 347 q 39 418 39 399 q 77 508 39 476 q 167 540 115 540 q 271 501 239 540 q 289 406 303 461 q 276 397 286 394 q 268 411 265 399 q 251 490 279 461 q 165 518 222 518 q 94 492 125 518 q 64 418 64 467 q 67 394 64 407 q 78 369 71 381 q 97 351 86 358 q 125 343 108 343 l 160 343 q 171 332 171 343 q 160 321 171 321 l 124 321 q 71 308 94 321 q 31 277 47 296 q 6 233 15 258 q -3 183 -3 208 q 13 106 -3 138 q 53 53 28 74 q 110 22 78 32 q 175 13 142 13 q 253 31 218 13 q 314 78 288 50 q 358 137 340 106 q 382 194 375 168 l 388 213 q 392 219 389 217 q 400 219 396 221 q 407 215 404 218 q 408 207 410 213 l 403 189 q 376 119 394 156 q 328 53 357 83 q 260 5 299 24 q 175 -14 222 -14 z "},"f":{"ha":238,"x_min":-335,"x_max":342,"o":"m -32 513 q -41 524 -42 513 q -32 535 -40 535 l 58 535 l 74 600 q 96 669 82 633 q 131 735 110 706 q 183 783 153 764 q 250 803 213 803 q 342 768 304 803 q 341 752 349 760 q 326 751 333 744 q 293 774 313 768 q 250 779 274 779 q 190 760 215 779 q 146 715 164 742 q 115 656 128 688 q 96 597 103 624 l 81 535 l 226 535 q 238 524 238 535 q 226 513 238 513 l 75 513 l -65 -60 q -89 -128 -74 -93 q -126 -193 -104 -164 q -177 -242 -147 -222 q -244 -261 -207 -261 q -335 -226 -300 -261 q -335 -210 -343 -218 q -319 -211 -326 -203 q -287 -233 -307 -226 q -244 -239 -268 -239 q -183 -220 -210 -239 q -138 -173 -157 -201 q -108 -112 -119 -144 q -89 -54 -96 -81 l 53 513 l -32 513 z "},"g":{"ha":461,"x_min":-60,"x_max":351,"o":"m 33 -261 q -60 -226 -26 -261 q -60 -210 -67 -218 q -42 -211 -53 -201 q -9 -231 -28 -224 q 33 -239 10 -239 q 92 -220 67 -239 q 137 -174 118 -201 q 168 -114 156 -146 q 188 -56 181 -82 q 188 -53 188 -56 q 191 -40 189 -50 q 199 -6 193 -29 q 214 58 204 17 q 163 6 193 25 q 94 -14 133 -14 q 22 6 49 -14 q -19 58 -6 26 q -33 127 -32 89 q -25 200 -33 165 l 11 346 q 33 417 19 381 q 69 482 47 453 q 120 530 90 511 q 189 549 150 549 q 275 526 244 549 q 317 467 306 503 l 329 525 q 344 535 332 538 q 351 519 354 532 q 331 433 339 465 q 314 367 322 400 q 294 290 306 333 q 265 171 283 246 l 210 -60 q 187 -128 201 -93 q 151 -193 172 -164 q 100 -242 129 -222 q 33 -261 71 -261 m -3 194 q -10 129 -11 161 q 1 71 -10 97 q 34 28 11 44 q 94 13 57 13 q 153 29 128 13 q 197 71 178 46 q 227 124 215 96 q 246 178 239 153 l 297 388 q 281 488 308 449 q 189 526 254 526 q 126 508 153 526 q 82 463 100 490 q 52 402 64 435 q 35 342 40 369 l -3 194 z "},"h":{"ha":514,"x_min":-71,"x_max":514,"o":"m 342 0 q 273 22 297 0 q 239 78 249 44 q 231 149 229 111 q 240 218 233 188 q 257 288 251 263 q 265 325 263 314 l 268 340 q 279 408 276 375 q 274 467 282 442 q 243 508 265 493 q 179 524 221 524 q 140 517 161 524 q 101 494 119 510 q 67 453 82 478 q 44 394 53 429 l -49 11 q -62 -1 -51 -3 q -71 13 -74 1 q -33 169 -49 106 q -6 283 -18 233 q 17 376 7 332 q 42 474 28 419 q 74 602 56 529 q 118 783 92 675 q 131 792 121 794 q 139 778 142 789 l 69 494 q 116 532 89 518 q 179 546 143 546 q 256 527 229 546 q 292 478 282 508 q 300 410 303 447 q 289 335 297 372 l 263 214 q 253 153 256 186 q 258 90 251 119 q 285 42 265 61 q 342 22 304 22 q 399 40 375 22 q 441 83 424 57 q 469 139 458 108 q 488 194 481 169 l 492 213 q 506 220 494 222 q 514 207 517 218 l 511 189 q 488 122 503 156 q 453 60 474 88 q 406 17 433 33 q 342 0 378 0 z "},"i":{"ha":258,"x_min":-32,"x_max":258,"o":"m 85 0 q 14 21 39 0 q -22 74 -11 42 q -32 143 -33 106 q -22 214 -31 181 l 53 525 q 67 535 56 536 q 74 518 78 533 l 0 211 q -8 149 -7 182 q -1 88 -10 115 q 27 41 7 60 q 85 22 47 22 q 142 40 118 22 q 184 83 167 57 q 213 138 201 108 q 232 194 225 168 l 238 213 q 249 219 239 222 q 258 207 260 217 l 253 189 q 231 120 244 154 q 197 59 217 86 q 149 16 176 32 q 85 0 121 0 m 82 607 q 60 617 67 607 q 57 640 54 626 q 69 660 60 651 q 90 668 79 668 q 117 636 121 668 q 103 615 114 624 q 82 607 93 607 z "},"j":{"ha":178,"x_min":-335,"x_max":118,"o":"m -244 -261 q -335 -226 -300 -261 q -335 -210 -343 -218 q -319 -211 -326 -203 q -287 -233 -307 -226 q -244 -239 -268 -239 q -183 -220 -210 -239 q -138 -173 -157 -201 q -108 -112 -119 -144 q -89 -54 -96 -81 l 56 525 q 60 533 57 531 q 68 534 64 535 q 76 529 72 533 q 78 519 79 525 l -65 -60 q -88 -128 -74 -93 q -125 -193 -103 -164 q -177 -242 -147 -222 q -244 -261 -207 -261 m 83 607 q 63 617 69 607 q 58 640 56 628 q 71 660 61 651 q 92 668 81 668 q 113 658 106 668 q 118 636 121 647 q 106 615 115 624 q 83 607 96 607 z "},"k":{"ha":428,"x_min":-69,"x_max":426,"o":"m 117 782 q 130 791 119 793 q 138 778 140 789 l 61 458 q 125 522 89 497 q 204 547 161 547 q 267 531 242 547 q 306 490 292 515 q 322 431 319 464 q 315 367 324 399 q 281 292 304 328 q 227 228 258 256 q 158 183 196 200 q 81 167 121 167 q 36 172 54 167 q 67 114 51 143 q 104 63 83 85 q 153 26 125 40 q 221 13 182 13 q 296 31 264 13 q 349 78 328 50 q 382 137 369 106 q 401 194 394 168 l 407 213 q 420 222 410 224 q 426 207 431 219 l 421 189 q 399 119 413 156 q 363 53 386 83 q 306 5 340 24 q 221 -14 271 -14 q 144 3 176 -14 q 89 47 113 19 q 47 108 65 74 q 13 179 29 143 q 24 199 6 203 q 53 190 39 193 q 82 188 67 188 q 153 204 118 188 q 216 248 188 221 q 265 308 244 275 q 293 372 285 340 q 298 430 300 403 q 285 478 296 457 q 253 511 274 499 q 204 524 233 524 q 152 507 179 524 q 101 465 125 490 q 60 413 78 440 q 38 363 43 385 l -47 11 q -61 -1 -50 -3 q -69 13 -72 1 l 117 782 z "},"l":{"ha":260,"x_min":-31,"x_max":258,"o":"m 86 0 q 15 21 40 0 q -22 74 -11 42 q -31 143 -32 106 q -21 214 -29 181 l 113 782 q 127 791 115 793 q 136 778 139 789 l 1 211 q -7 149 -6 182 q 0 88 -8 115 q 28 41 8 60 q 86 22 49 22 q 144 40 119 22 q 185 83 168 57 q 215 138 203 108 q 233 194 226 168 l 238 213 q 251 222 240 224 q 258 207 261 219 l 253 189 q 231 120 244 154 q 198 59 218 86 q 150 16 178 32 q 86 0 122 0 z "},"m":{"ha":739,"x_min":-69,"x_max":738,"o":"m 253 339 q 265 404 261 371 q 264 464 269 438 q 241 507 258 490 q 189 524 224 524 q 128 499 156 524 q 79 440 100 474 q 45 370 58 406 q 28 315 32 335 l -47 11 q -53 1 -49 4 q -61 0 -57 -1 q -68 5 -65 1 q -69 13 -71 8 l 56 524 q 69 533 58 535 q 78 518 81 532 l 60 451 q 117 519 83 492 q 192 546 150 546 q 265 515 244 546 q 288 439 286 483 q 341 514 307 482 q 431 546 375 546 q 493 525 472 546 q 522 473 514 504 q 526 404 529 442 q 514 335 522 367 l 488 214 q 476 153 479 186 q 481 90 474 119 q 508 42 488 61 q 565 22 528 22 q 624 40 599 22 q 666 83 649 57 q 694 138 683 108 q 713 194 706 168 l 717 213 q 730 222 719 224 q 738 207 740 219 l 733 189 q 711 122 725 156 q 677 60 697 88 q 629 17 657 33 q 565 0 601 0 q 494 22 519 0 q 460 78 469 44 q 452 149 450 111 q 463 218 454 186 q 479 288 474 263 q 488 325 485 314 l 490 340 q 502 402 499 369 q 501 462 506 435 q 479 506 496 489 q 431 524 463 524 q 342 481 382 524 q 275 333 301 439 l 194 11 q 189 1 193 4 q 181 0 185 -1 q 174 5 176 1 q 172 13 171 8 q 217 195 201 131 q 241 291 233 260 q 250 329 249 322 q 253 339 251 336 z "},"n":{"ha":517,"x_min":-69,"x_max":515,"o":"m 344 0 q 274 22 299 0 q 240 78 250 44 q 232 149 231 111 q 240 218 233 188 l 267 339 q 280 408 274 375 q 283 467 286 442 q 260 508 279 493 q 200 524 242 524 q 153 508 179 524 q 101 466 126 493 q 56 401 76 439 q 25 321 35 364 l -47 11 q -53 1 -49 4 q -61 -1 -57 -1 q -68 3 -65 0 q -69 13 -71 7 l 53 524 q 67 533 56 535 q 74 518 78 532 l 56 438 q 119 514 82 482 q 200 546 156 546 q 273 526 250 546 q 302 477 296 507 q 302 409 308 447 q 288 333 296 371 l 263 214 q 255 149 256 182 q 263 87 254 115 q 290 40 271 58 q 344 22 310 22 q 402 40 378 22 q 444 83 426 57 q 474 138 463 108 q 490 194 485 168 l 496 213 q 509 222 499 224 q 515 207 519 219 l 513 189 q 489 122 503 156 q 455 60 475 88 q 407 17 435 33 q 344 0 379 0 z "},"o":{"ha":461,"x_min":-35,"x_max":328,"o":"m 94 -14 q 18 6 46 -14 q -22 58 -10 26 q -35 126 -35 89 q -26 199 -35 164 l 24 400 q 81 506 39 467 q 192 546 124 546 q 265 528 236 546 q 310 483 294 511 q 327 419 325 454 q 321 347 329 383 l 283 188 q 260 114 275 150 q 223 49 246 78 q 169 3 200 21 q 94 -14 138 -14 m 192 524 q 128 510 154 524 q 86 476 103 496 q 60 435 69 457 q 46 394 51 413 l -4 193 q -11 128 -12 160 q 2 70 -10 96 q 36 28 14 44 q 94 13 58 13 q 261 193 217 13 l 300 353 q 306 418 308 388 q 290 472 304 449 q 252 510 276 496 q 192 524 228 524 z "},"p":{"ha":415,"x_min":-132,"x_max":314,"o":"m 56 525 q 60 532 57 531 q 68 533 64 533 q 75 528 72 532 q 76 518 78 524 l 65 486 q 119 529 89 513 q 190 546 150 546 q 265 525 238 546 q 303 472 292 504 q 314 402 315 440 q 304 329 313 364 l 272 190 q 249 121 264 157 q 213 55 235 85 q 161 6 190 25 q 93 -14 132 -14 q 9 17 36 -14 q -29 88 -18 47 l -110 -251 q -124 -260 -112 -262 q -132 -244 -136 -257 q -87 -59 -106 -136 q -54 76 -68 18 q -29 180 -40 133 q -6 276 -18 226 q 22 384 7 325 q 56 525 36 443 m -3 194 q -11 129 -11 161 q -1 71 -11 97 q 33 28 10 44 q 93 13 56 13 q 155 31 128 13 q 201 77 182 50 q 231 136 219 104 q 250 194 243 168 l 282 335 q 292 401 290 367 q 283 462 293 435 q 251 506 274 489 q 190 524 229 524 q 134 512 158 524 q 92 481 110 500 q 61 438 74 461 q 43 390 49 414 l -3 194 z "},"q":{"ha":461,"x_min":-32,"x_max":353,"o":"m 94 -14 q 23 6 50 -14 q -17 58 -4 26 q -32 126 -31 89 q -25 197 -33 164 l 13 344 q 35 415 21 379 q 70 481 49 451 q 121 528 92 510 q 189 546 150 546 q 274 524 243 546 q 317 463 306 501 l 331 525 q 344 533 333 536 q 353 518 356 531 l 167 -251 q 153 -260 164 -261 q 144 -247 142 -258 l 218 58 q 165 6 196 25 q 94 -14 135 -14 m -1 192 q -8 127 -8 160 q 4 68 -7 94 q 37 26 15 42 q 94 10 58 10 q 153 26 128 10 q 198 69 179 43 q 229 124 217 94 q 249 182 242 154 l 297 382 q 300 435 303 410 q 284 481 297 461 q 247 512 271 500 q 189 524 224 524 q 126 506 153 524 q 81 460 100 488 q 51 399 63 432 q 35 339 40 367 l -1 192 z "},"r":{"ha":428,"x_min":-68,"x_max":426,"o":"m 221 13 q 296 31 264 13 q 349 78 328 50 q 382 137 369 106 q 401 194 394 168 l 407 213 q 420 222 410 224 q 426 207 431 219 l 421 189 q 399 119 413 156 q 363 53 386 83 q 306 5 340 24 q 221 -14 271 -14 q 144 3 176 -14 q 89 47 113 19 q 47 108 65 74 q 13 179 29 143 q 24 199 6 203 q 53 190 39 193 q 82 188 67 188 q 153 204 118 188 q 216 248 188 221 q 265 308 244 275 q 293 372 285 340 q 298 430 300 403 q 285 478 296 457 q 253 511 274 499 q 204 524 233 524 q 149 506 176 524 q 97 460 121 488 q 56 398 74 432 q 32 333 39 364 l -46 13 q -52 2 -47 6 q -61 -1 -57 -1 q -68 3 -65 0 q -68 14 -71 7 l 54 525 q 67 535 57 536 q 75 518 78 533 l 60 456 q 123 522 86 496 q 204 547 160 547 q 267 531 242 547 q 306 490 292 515 q 322 431 319 464 q 315 367 324 399 q 281 292 304 328 q 227 228 258 256 q 158 183 196 200 q 81 167 121 167 q 36 172 54 167 q 67 114 51 143 q 104 63 83 85 q 153 26 125 40 q 221 13 182 13 z "},"s":{"ha":408,"x_min":-61,"x_max":274,"o":"m 107 0 q -1 39 42 0 q -61 140 -43 78 q -53 156 -64 156 q -40 146 -43 157 q -35 163 -39 151 q -25 201 -32 174 q -4 280 -18 229 q 32 417 10 331 q 49 482 42 457 q 61 524 56 507 q 73 551 67 540 q 89 575 79 563 q 105 578 96 583 q 108 563 114 574 q 98 510 96 535 q 111 463 100 485 q 139 420 122 440 q 172 382 156 400 q 208 341 190 363 q 241 295 226 319 q 265 244 256 271 q 274 185 274 217 q 263 112 274 146 q 230 53 251 78 q 177 14 208 28 q 107 0 146 0 m 107 22 q 170 35 143 22 q 215 71 197 49 q 241 123 232 93 q 250 185 250 153 q 220 284 250 242 q 156 367 190 326 q 105 428 128 399 q 75 497 82 458 q 65 461 69 482 q 53 413 60 440 q 15 265 29 319 q -8 179 1 210 q -22 135 -17 149 q -31 113 -26 122 q 23 47 -12 72 q 107 22 58 22 z "},"t":{"ha":260,"x_min":-42,"x_max":260,"o":"m -32 513 q -41 524 -42 513 q -32 535 -40 535 l 56 535 l 83 653 q 97 660 86 664 q 106 646 107 657 l 79 535 l 226 535 q 238 524 238 535 q 226 513 238 513 l 72 513 l 1 211 q -7 147 -6 181 q 0 86 -8 114 q 28 40 8 58 q 86 22 49 22 q 144 39 119 22 q 185 81 168 56 q 214 137 203 107 q 232 193 225 167 l 238 214 q 250 223 239 224 q 260 213 261 222 l 253 188 q 233 122 246 156 q 200 62 219 89 q 152 17 181 35 q 86 0 124 0 q 15 22 40 0 q -20 75 -10 43 q -29 144 -31 107 q -21 214 -28 182 l 49 513 l -32 513 z "},"u":{"ha":519,"x_min":-35,"x_max":518,"o":"m 346 0 q 262 33 288 0 q 231 113 236 67 q 174 24 210 63 q 86 -14 139 -14 q 14 6 40 -14 q -24 58 -12 26 q -35 127 -36 89 q -25 200 -33 165 l 58 525 q 63 532 60 531 q 71 533 67 533 q 78 528 75 532 q 81 518 82 524 l -4 194 q -13 130 -12 163 q -4 72 -14 97 q 27 29 6 46 q 86 13 49 13 q 146 31 121 13 q 188 78 171 50 q 217 138 206 106 q 235 196 228 169 l 313 525 q 327 534 315 536 q 336 518 339 532 l 261 211 q 253 149 254 182 q 260 88 251 117 q 289 41 268 60 q 346 22 310 22 q 404 40 379 22 q 447 83 429 57 q 475 138 464 108 q 492 194 486 168 l 497 213 q 510 222 500 224 q 518 207 521 219 l 514 189 q 492 122 506 156 q 457 60 478 88 q 409 17 436 33 q 346 0 382 0 z "},"v":{"ha":458,"x_min":-35,"x_max":325,"o":"m 63 -14 q -5 8 17 -14 q -33 63 -26 29 q -35 135 -39 96 q -22 210 -31 175 l 58 525 q 72 534 61 536 q 79 518 82 532 l 0 203 q -12 139 -7 172 q -14 77 -18 106 q 8 31 -10 49 q 63 13 25 13 q 125 31 97 13 q 175 80 153 49 q 215 154 197 111 q 246 247 232 197 l 301 456 q 306 494 306 475 q 286 513 306 513 q 275 522 275 513 q 286 535 275 535 q 325 510 318 535 q 322 450 332 486 l 267 240 q 186 52 235 118 q 63 -14 138 -14 z "},"w":{"ha":724,"x_min":-35,"x_max":581,"o":"m 86 -14 q 14 6 40 -14 q -24 58 -12 26 q -35 127 -36 89 q -25 200 -33 165 l 60 525 q 65 533 61 531 q 72 533 68 535 q 79 528 76 532 q 81 518 82 524 l -3 194 q -11 133 -10 165 q -3 74 -12 100 q 28 30 7 47 q 86 13 49 13 q 142 31 118 13 q 183 77 165 50 q 211 135 200 104 q 229 192 222 167 l 315 525 q 329 534 318 536 q 338 518 340 532 l 254 194 q 246 131 247 164 q 253 72 244 99 q 284 29 263 46 q 344 13 306 13 q 404 31 379 13 q 447 78 429 50 q 474 138 464 106 q 490 196 485 169 l 556 456 q 558 470 557 461 q 559 489 560 479 q 554 506 558 499 q 540 513 550 513 q 531 522 531 513 q 540 535 531 535 q 566 526 557 535 q 578 503 575 517 q 580 474 581 489 q 576 450 579 460 q 568 417 575 444 q 549 340 561 392 q 514 190 538 288 q 492 122 506 158 q 457 56 478 86 q 408 6 436 25 q 344 -14 381 -14 q 255 22 282 -14 q 224 106 228 57 q 169 22 203 57 q 86 -14 136 -14 z "},"x":{"ha":593,"x_min":-21,"x_max":593,"o":"m 463 531 q 480 531 471 538 q 485 514 489 525 l 303 276 q 313 199 307 243 q 331 116 319 156 q 364 49 343 76 q 418 22 385 22 q 477 39 451 22 q 522 81 503 56 q 551 135 540 106 q 567 192 563 165 l 571 211 q 585 222 574 224 q 593 204 596 219 l 589 188 q 567 118 581 151 q 532 58 553 85 q 483 16 511 32 q 418 0 454 0 q 356 27 381 0 q 316 92 331 54 q 294 174 301 131 q 282 250 286 217 l 93 6 q 85 0 89 0 q 77 3 81 0 q 73 10 74 6 q 76 18 72 15 l 278 283 q 271 346 275 306 q 255 426 267 386 q 221 494 243 465 q 163 524 199 524 q 132 519 149 524 q 98 498 115 514 q 65 451 81 482 q 38 368 50 419 l -1 207 q -15 197 -4 196 q -21 213 -25 199 l 13 372 q 35 438 21 406 q 67 493 49 469 q 110 531 86 517 q 164 546 133 546 q 227 520 203 546 q 266 458 251 494 q 287 381 281 421 q 297 310 293 340 l 463 531 z "},"y":{"ha":469,"x_min":-74,"x_max":338,"o":"m 86 -14 q 14 6 40 -14 q -24 58 -12 26 q -35 127 -36 89 q -25 200 -33 165 l 58 525 q 72 534 61 536 q 81 518 83 532 l -4 194 q -12 132 -11 164 q -4 74 -14 100 q 27 30 6 47 q 86 13 49 13 q 128 22 107 13 q 167 50 149 31 q 235 196 210 97 l 315 524 q 329 533 318 535 q 338 517 340 532 l 196 -61 q 163 -150 182 -111 q 118 -215 144 -189 q 63 -252 90 -243 q 17 -261 36 -261 q -32 -253 -8 -261 q -72 -226 -56 -246 q -73 -210 -81 -218 q -58 -211 -65 -203 q 17 -239 -26 -239 q 56 -231 33 -239 q 101 -200 78 -224 q 172 -56 149 -153 l 200 56 q 183 35 192 40 q 86 -14 138 -14 z "},"z":{"ha":525,"x_min":-24,"x_max":525,"o":"m 389 503 q 338 499 363 496 q 288 507 313 501 q 239 518 264 513 q 189 524 214 524 q 96 493 129 524 q 50 408 63 463 l -4 197 q -17 189 -7 186 q -24 203 -26 192 l 29 414 q 189 546 61 546 q 249 539 221 546 q 305 526 278 532 q 359 522 332 521 q 415 539 386 522 q 431 536 424 542 q 432 522 438 531 l 79 43 q 142 54 113 56 q 201 46 172 53 q 260 31 231 39 q 319 22 289 22 q 435 74 385 22 q 472 131 454 97 q 504 213 489 164 q 519 220 508 224 q 525 207 529 217 q 449 58 497 108 q 319 0 399 0 q 243 10 275 0 q 182 28 211 21 q 121 31 153 35 q 46 1 89 28 q 31 4 38 -4 q 32 17 25 13 l 389 503 z "},"{":{"ha":461,"x_min":36,"x_max":457,"o":"m 169 -144 q 57 -99 88 -144 q 37 -28 36 -69 q 49 57 38 14 q 76 140 60 100 q 101 207 92 181 q 124 264 110 229 q 147 331 139 299 q 151 388 156 364 q 118 411 147 411 q 107 421 107 411 q 118 435 107 435 q 166 460 149 435 q 192 519 183 485 q 204 588 201 553 q 210 642 207 622 q 219 728 214 683 q 236 815 225 772 q 269 894 247 858 q 326 956 290 931 q 442 989 375 989 q 457 976 457 989 q 442 964 457 964 q 386 958 411 964 q 339 938 361 953 q 286 876 306 913 q 256 799 267 839 q 241 717 246 758 q 232 639 236 675 q 226 578 229 611 q 217 515 224 546 q 196 459 210 485 q 158 418 182 433 q 176 374 176 403 q 166 313 175 346 q 144 248 157 279 q 124 199 131 217 q 94 117 108 158 q 70 38 79 75 q 60 -33 61 0 q 75 -86 60 -65 q 169 -121 100 -121 q 182 -133 182 -121 q 169 -144 182 -144 z "},"|":{"ha":232,"x_min":3,"x_max":229,"o":"m 207 935 q 221 941 210 944 q 229 929 232 938 l 25 -132 q 11 -140 22 -143 q 3 -126 0 -137 l 207 935 z "},"}":{"ha":460,"x_min":3,"x_max":424,"o":"m 13 -144 q 3 -133 3 -144 q 13 -121 4 -121 q 119 -93 79 -121 q 174 -35 154 -71 q 203 42 193 1 q 218 126 214 83 q 226 204 222 168 q 233 266 231 233 q 244 328 236 299 q 265 383 251 358 q 301 422 278 408 q 285 471 285 440 q 294 534 285 501 q 316 597 303 567 q 336 644 329 626 q 366 726 351 685 q 390 804 381 767 q 399 874 399 842 q 385 929 399 907 q 288 964 360 964 q 277 976 276 964 q 288 989 278 989 q 403 940 369 989 q 423 871 424 911 q 410 788 422 831 q 383 704 399 744 q 356 636 367 664 q 331 570 344 606 q 310 505 317 535 q 309 455 304 475 q 340 435 314 435 q 351 423 351 435 q 340 411 351 411 q 292 385 310 411 q 266 325 275 360 q 254 255 257 290 q 250 201 251 219 q 240 115 246 160 q 222 29 233 71 q 188 -49 210 -12 q 132 -112 167 -86 q 13 -144 85 -144 z "},"~":{"ha":268,"x_min":44,"x_max":228,"o":"m 85 292 q 64 297 71 292 q 54 307 57 301 q 44 334 43 319 q 47 351 46 349 q 62 358 50 361 q 68 344 74 356 q 67 333 67 342 q 71 319 67 325 q 85 314 74 314 q 110 322 100 314 q 131 338 119 329 q 154 356 142 349 q 183 364 167 364 q 202 361 192 364 q 219 349 213 358 q 227 321 229 335 q 225 306 225 307 q 210 298 222 294 q 203 311 199 301 q 205 322 204 314 q 201 335 206 329 q 183 340 197 340 q 164 335 172 340 q 146 321 156 329 q 120 301 135 310 q 85 292 106 292 z "},"":{"ha":374,"x_min":56,"x_max":297,"o":"m 272 625 q 256 639 256 625 q 265 656 256 649 q 281 663 274 663 q 291 658 286 663 q 296 650 296 654 q 288 632 296 639 q 272 625 281 625 m 76 -254 q 64 -267 75 -269 q 56 -251 53 -265 l 239 517 q 252 526 242 528 q 260 513 263 525 l 76 -254 z "},"":{"ha":372,"x_min":24,"x_max":353,"o":"m 144 210 q 124 211 131 210 l 97 94 q 84 88 94 85 q 76 101 74 90 l 103 215 q 53 247 71 225 q 29 298 36 269 q 24 358 22 326 q 35 421 26 390 l 75 604 q 128 708 90 665 q 231 750 165 750 l 260 868 q 265 876 261 874 q 272 877 268 878 q 280 873 276 876 q 282 864 283 869 l 254 750 q 341 690 317 739 q 353 581 365 640 q 339 572 350 569 q 329 585 328 574 q 321 679 343 640 q 250 725 299 718 l 131 232 l 144 232 q 204 251 179 232 q 247 299 229 271 q 274 359 264 326 q 292 417 285 392 q 306 425 296 428 q 314 413 317 422 q 292 344 306 381 q 259 278 279 308 q 210 229 239 249 q 144 210 182 210 m 97 599 l 57 417 q 47 362 50 390 q 49 308 44 333 q 68 265 54 283 q 108 238 82 246 l 225 726 q 176 715 197 726 q 139 686 154 704 q 113 646 124 668 q 97 599 103 624 z "},"":{"ha":850,"x_min":6,"x_max":806,"o":"m 657 -7 q 583 5 617 -7 q 520 37 550 17 q 464 82 490 57 q 411 132 438 107 q 369 174 389 154 q 328 210 349 193 q 315 170 321 189 q 303 133 310 151 q 278 83 293 107 q 245 40 264 58 q 203 11 226 22 q 151 0 179 0 q 96 9 122 0 q 49 35 69 18 q 17 76 29 53 q 6 129 6 100 q 22 195 6 167 q 63 244 38 224 q 121 274 89 264 q 186 285 153 285 q 253 274 222 285 q 313 246 285 264 q 331 333 324 288 q 346 426 339 378 q 353 470 349 449 q 361 513 357 492 l 242 513 q 231 524 231 513 q 242 535 231 535 l 364 535 q 394 665 378 601 q 435 781 411 728 q 530 912 475 868 q 660 956 585 956 q 763 916 722 956 q 804 815 804 876 q 770 718 804 758 q 679 678 736 678 q 669 689 668 678 q 679 700 669 700 q 723 710 704 700 q 755 736 742 719 q 775 774 768 753 q 782 815 782 794 q 745 902 782 871 q 660 933 708 933 q 590 920 622 933 q 533 885 558 907 q 488 835 507 864 q 456 774 468 806 q 417 660 432 721 q 388 535 401 600 l 561 535 q 572 524 572 535 q 561 513 572 513 l 383 513 l 368 422 q 351 324 360 372 q 332 233 343 276 q 380 192 357 214 q 426 149 403 171 q 477 100 451 124 q 531 58 503 76 q 591 27 560 39 q 657 15 622 15 q 739 44 703 15 q 783 117 775 74 q 797 125 786 128 q 806 113 808 122 q 750 24 794 56 q 706 1 731 10 q 657 -7 681 -7 m 186 263 q 128 253 157 263 q 78 227 100 244 q 42 185 56 210 q 28 129 28 160 q 38 83 28 103 q 67 49 49 63 q 106 29 85 36 q 151 22 128 22 q 282 143 235 22 q 294 181 289 161 q 306 224 300 200 q 250 252 279 242 q 186 263 221 263 z "},"":{"ha":463,"x_min":32,"x_max":435,"o":"m 343 233 l 285 296 q 248 276 268 283 q 197 268 228 268 q 118 294 149 268 l 49 232 q 33 233 40 225 q 35 250 25 240 l 101 310 q 74 368 86 329 q 72 469 61 407 l 85 533 q 108 603 93 574 q 146 654 122 632 l 151 658 l 101 714 q 102 731 93 722 q 118 731 111 739 l 171 671 q 203 683 186 678 q 240 689 221 689 q 343 661 303 693 l 417 731 q 434 731 428 739 q 435 714 440 722 l 358 644 q 384 592 374 625 q 386 501 394 558 l 382 483 q 353 383 372 425 q 303 308 335 340 l 358 249 q 358 233 367 240 q 343 233 350 226 m 206 290 q 360 488 328 301 l 363 506 q 338 635 378 590 q 297 661 322 653 q 242 667 272 669 q 151 622 183 663 q 107 531 118 582 l 94 465 q 122 321 78 369 q 206 290 154 286 z "},"":{"ha":504,"x_min":13,"x_max":496,"o":"m 342 274 l 189 274 l 138 10 q 124 0 135 -3 q 114 13 113 3 l 167 274 l 22 274 q 13 283 13 274 q 22 297 13 297 l 171 297 l 190 394 l 47 394 q 36 407 36 394 q 47 417 36 417 l 190 417 l 106 910 q 107 917 104 914 q 114 922 110 921 q 122 920 118 922 q 126 914 125 918 l 210 439 l 476 915 q 493 920 483 926 q 496 907 503 914 l 224 417 l 367 417 q 378 407 378 417 q 367 394 378 394 l 213 394 l 193 297 l 342 297 q 354 283 354 297 q 342 274 354 274 z "},"":{"ha":294,"x_min":7,"x_max":290,"o":"m 160 504 l 268 950 q 282 961 271 961 q 290 950 293 961 l 182 504 q 168 492 179 493 q 160 504 157 492 m 8 -129 l 115 318 q 120 325 117 322 q 128 328 124 328 q 135 326 132 328 q 138 318 139 324 l 31 -129 q 24 -136 29 -133 q 15 -140 19 -139 q 8 -137 10 -140 q 8 -129 6 -135 z "},"":{"ha":836,"x_min":4,"x_max":814,"o":"m 188 4 q 112 20 146 4 q 53 63 78 36 q 17 126 29 90 q 4 200 4 161 q 43 328 4 276 q 163 386 89 386 q 219 372 194 386 q 258 331 243 357 q 271 295 268 314 q 271 257 274 276 q 257 249 268 246 q 249 260 246 249 q 248 291 250 275 q 238 321 246 307 q 163 363 215 363 q 61 313 99 363 q 26 200 26 268 q 38 133 26 164 q 71 78 50 101 q 122 40 92 54 q 188 26 151 26 q 293 58 254 26 q 351 135 332 89 q 372 238 369 182 q 368 344 375 294 q 363 524 354 449 q 381 592 368 564 q 413 644 393 621 q 571 706 461 701 q 615 881 571 831 q 657 910 633 901 q 713 918 681 918 q 767 903 744 918 q 801 865 789 888 q 814 814 813 842 q 807 761 815 786 q 747 678 793 713 q 731 681 738 671 q 733 696 725 690 q 786 768 774 728 q 792 812 793 789 q 781 853 790 835 q 755 884 772 872 q 713 896 738 896 q 632 865 657 896 q 600 800 608 840 q 592 716 592 760 q 597 631 592 672 q 606 560 601 589 q 611 486 611 524 q 604 413 611 449 q 583 344 597 376 q 546 285 569 311 q 393 217 490 219 q 333 64 382 124 q 188 4 283 4 m 531 301 q 565 358 553 326 q 583 424 578 390 q 588 492 588 457 q 583 558 588 526 q 576 625 578 594 q 572 683 574 656 q 429 629 475 679 q 386 522 396 590 q 390 346 376 453 q 394 239 396 289 q 531 301 476 243 z "},"":{"ha":204,"x_min":43,"x_max":163,"o":"m 92 658 q 82 640 90 647 q 63 633 74 633 q 47 640 53 633 q 43 658 40 647 q 55 676 46 669 q 75 683 64 683 q 90 676 85 683 q 92 658 94 669 m 163 658 q 152 640 161 647 q 133 633 143 633 q 117 640 122 633 q 114 658 111 647 q 125 676 117 669 q 144 683 133 683 q 160 676 156 683 q 163 658 165 669 z "},"":{"ha":681,"x_min":38,"x_max":625,"o":"m 288 210 q 216 231 242 210 q 178 283 190 251 q 167 351 167 314 q 176 421 168 388 l 218 604 q 272 708 233 667 q 375 750 310 750 q 439 735 413 750 q 480 697 465 721 q 499 643 494 674 q 496 581 503 613 q 482 572 493 569 q 474 585 471 574 q 461 685 485 644 q 375 726 438 726 q 285 688 318 726 q 240 599 251 650 l 197 417 q 190 351 190 385 q 199 292 189 318 q 229 249 208 265 q 288 232 250 232 q 347 251 322 232 q 389 299 371 271 q 418 359 407 326 q 436 417 429 392 q 450 426 439 429 q 460 413 461 422 q 438 344 451 381 q 403 278 424 308 q 353 229 382 249 q 288 210 325 210 m 271 83 q 103 142 161 83 q 38 304 44 200 q 42 403 36 350 q 64 517 47 457 q 85 592 74 554 q 110 667 96 631 q 142 737 124 704 q 188 796 161 769 q 232 833 207 818 q 284 856 257 847 q 339 867 311 864 q 393 869 367 869 q 582 799 525 869 q 619 713 610 761 q 624 615 628 665 q 610 517 621 565 q 590 429 600 468 q 549 299 572 361 q 488 188 525 236 q 399 112 451 140 q 271 83 346 83 m 393 847 q 283 831 326 847 q 203 779 239 815 q 140 678 168 743 q 86 513 113 614 q 65 402 71 454 q 61 306 58 350 q 121 158 67 210 q 271 107 175 107 q 394 136 343 107 q 478 212 444 165 q 532 317 511 258 q 568 435 553 375 q 564 785 636 693 q 393 847 518 847 z "},"":{"ha":700,"x_min":50,"x_max":658,"o":"m 356 156 l 50 406 q 53 422 40 414 l 439 667 q 451 668 446 669 q 457 663 456 667 q 457 653 458 658 q 451 646 456 649 l 79 414 l 372 174 q 372 158 381 168 q 356 156 363 149 m 557 156 l 251 406 q 254 422 242 414 l 640 667 q 652 668 647 669 q 658 663 657 667 q 658 653 660 658 q 653 646 657 649 l 281 414 l 574 174 q 573 158 582 168 q 557 156 564 149 z "},"":{"ha":458,"x_min":57,"x_max":400,"o":"m 67 429 q 58 440 57 429 q 67 450 58 450 l 388 450 q 399 440 400 450 q 388 429 399 429 l 67 429 z "},"":{"ha":679,"x_min":38,"x_max":624,"o":"m 269 106 q 101 165 160 106 q 38 328 43 225 q 40 426 35 372 q 63 540 46 481 q 83 615 72 578 q 109 689 94 653 q 142 758 124 725 q 188 818 161 790 q 283 877 229 863 q 392 892 338 892 q 581 821 524 892 q 617 737 608 785 q 623 638 626 689 q 609 539 619 588 q 589 451 599 490 q 536 292 565 356 q 471 188 507 228 q 384 126 432 146 q 269 106 336 106 m 392 869 q 281 854 325 869 q 201 803 238 839 q 139 701 167 765 q 85 536 111 638 q 63 425 69 476 q 60 329 57 374 q 119 181 65 232 q 269 129 174 129 q 372 147 325 129 q 456 201 419 164 q 516 302 489 240 q 567 458 543 364 q 563 807 636 714 q 392 869 517 869 m 431 263 q 372 273 396 263 q 332 301 349 283 q 303 340 315 318 q 282 385 292 363 q 257 437 271 410 q 219 483 243 464 l 214 486 l 165 274 q 151 264 163 263 q 143 276 140 265 q 178 424 165 369 q 200 522 190 479 q 221 610 210 564 q 250 732 232 656 q 265 740 253 743 q 274 726 276 738 l 263 690 q 309 735 282 717 q 368 753 336 753 q 425 740 401 753 q 463 705 449 726 q 480 656 476 683 q 476 599 483 628 q 434 516 465 550 q 361 463 403 482 q 315 456 338 457 q 268 463 292 456 q 288 427 279 444 q 304 393 296 410 q 324 351 314 371 q 347 317 333 332 q 381 294 361 303 q 431 285 401 285 q 440 274 440 285 q 431 263 440 263 m 233 500 q 292 481 261 485 q 354 488 322 476 q 456 606 429 513 q 444 693 467 656 q 368 731 421 731 q 320 716 342 731 q 283 679 299 701 q 256 631 267 657 q 239 585 244 606 l 221 510 q 233 500 229 504 z "},"":{"ha":331,"x_min":57,"x_max":275,"o":"m 67 640 q 58 651 57 640 q 67 663 58 663 l 263 663 q 274 651 275 663 q 263 640 274 640 l 67 640 z "},"":{"ha":251,"x_min":60,"x_max":193,"o":"m 114 633 q 69 655 83 633 q 60 703 54 676 q 88 750 65 731 q 139 769 111 769 q 184 747 168 769 q 193 699 200 725 q 165 653 189 672 q 114 633 140 633 m 139 747 q 103 733 119 747 q 82 699 86 718 q 87 667 76 679 q 114 656 97 656 q 151 669 133 656 q 171 703 168 683 q 166 734 175 721 q 139 747 157 747 z "},"":{"ha":457,"x_min":26,"x_max":419,"o":"m 239 429 l 86 429 q 77 440 76 429 q 86 450 78 450 l 243 450 l 286 628 q 300 635 289 639 q 310 621 311 632 l 267 450 l 407 450 q 419 440 419 450 q 407 429 418 429 l 263 429 l 213 224 q 199 214 210 213 q 192 226 189 215 l 239 429 m 36 154 q 27 165 26 154 q 36 175 28 175 l 357 175 q 369 165 369 175 q 357 154 368 154 l 36 154 z "},"":{"ha":119,"x_min":8,"x_max":111,"o":"m 13 654 l 94 718 q 110 717 104 725 q 108 701 117 708 l 25 638 q 9 639 15 631 q 13 654 3 647 z "},"":{"ha":519,"x_min":-136,"x_max":518,"o":"m 346 0 q 262 33 288 0 q 231 113 236 67 q 174 24 210 63 q 86 -14 139 -14 q 5 14 31 -14 q -32 82 -21 42 l -114 -250 q -119 -257 -115 -256 q -128 -258 -124 -258 q -135 -253 -132 -257 q -136 -244 -137 -250 q -79 -14 -103 -108 q -38 147 -56 81 q -10 260 -21 214 q 12 347 1 307 q 33 428 22 388 q 58 525 43 469 q 63 532 60 531 q 71 533 67 533 q 78 528 75 532 q 81 518 82 524 l -11 167 q -15 116 -17 143 q -1 66 -12 89 q 31 28 10 43 q 86 13 53 13 q 146 31 121 13 q 188 78 171 50 q 217 138 206 106 q 235 196 228 169 l 313 525 q 327 534 315 536 q 336 518 339 532 l 261 211 q 253 149 254 182 q 260 88 251 117 q 289 41 268 60 q 346 22 310 22 q 404 40 379 22 q 447 83 429 57 q 475 138 464 108 q 492 194 486 168 l 497 213 q 510 222 500 224 q 518 207 521 219 l 514 189 q 492 122 506 156 q 457 60 478 88 q 409 17 436 33 q 346 0 382 0 z "},"":{"ha":651,"x_min":13,"x_max":631,"o":"m 228 344 q 135 365 175 344 q 67 419 94 385 q 26 497 40 453 q 13 589 13 542 q 31 704 13 646 q 84 809 50 763 q 167 885 118 856 q 276 915 215 915 l 622 915 q 631 903 633 915 l 419 10 q 406 -1 417 -4 q 397 13 394 3 l 607 892 l 514 892 q 478 740 493 803 q 449 622 463 676 q 423 513 436 567 q 392 390 410 458 q 353 230 375 321 q 299 10 331 139 q 285 -1 296 -4 q 276 13 275 3 l 376 422 l 369 414 q 306 362 342 379 q 228 344 269 344 z "},"":{"ha":161,"x_min":35,"x_max":129,"o":"m 89 544 q 121 530 107 544 q 129 493 135 515 q 108 460 125 474 q 72 447 92 447 q 40 461 53 447 q 35 499 28 475 q 53 531 38 518 q 89 544 69 544 z "},"":{"ha":200,"x_min":15,"x_max":182,"o":"m 26 -257 q 15 -246 15 -257 q 26 -235 15 -235 q 118 -208 88 -235 q 156 -154 149 -182 q 151 -104 167 -118 q 111 -82 136 -90 q 68 -58 86 -71 q 60 -12 50 -44 l 63 8 q 67 13 64 13 q 75 13 71 14 q 83 8 79 11 q 85 0 86 4 l 81 -14 q 85 -42 75 -33 q 118 -61 94 -50 q 144 -72 131 -65 q 168 -89 158 -78 q 181 -117 178 -100 q 178 -160 185 -133 q 118 -233 163 -210 q 26 -257 74 -257 z "},"":{"ha":707,"x_min":19,"x_max":646,"o":"m 22 174 l 407 414 l 118 646 q 120 662 111 651 q 136 667 129 672 l 435 422 q 433 406 442 413 l 35 156 q 19 158 24 149 q 22 174 15 168 m 233 174 l 618 414 l 329 646 q 331 662 322 651 q 347 667 340 672 l 646 422 q 644 406 653 413 l 246 156 q 231 158 235 149 q 233 174 226 168 z "},"":{"ha":588,"x_min":-47,"x_max":429,"o":"m 278 522 q 266 470 278 494 q 237 424 254 446 q 199 385 219 403 q 160 350 178 367 q 25 198 75 278 q -25 6 -25 118 q -12 -82 -25 -40 q 26 -156 1 -124 q 88 -208 51 -189 q 171 -228 125 -228 q 260 -212 218 -228 q 335 -168 303 -196 q 387 -100 368 -140 q 406 -12 406 -60 q 395 49 406 19 q 366 99 385 78 q 321 134 347 121 q 263 147 294 147 q 223 139 242 147 q 190 116 204 131 q 169 83 176 101 q 161 43 161 64 q 149 32 161 32 q 138 43 138 32 q 148 92 138 69 q 176 133 158 115 q 215 160 193 150 q 263 171 238 171 q 332 155 301 171 q 384 113 363 139 q 417 55 406 88 q 428 -12 428 22 q 406 -111 428 -67 q 349 -186 385 -156 q 266 -233 313 -217 q 171 -250 219 -250 q 76 -228 117 -250 q 8 -169 35 -206 q -33 -86 -19 -132 q -47 6 -47 -40 q -29 135 -47 79 q 17 233 -11 190 q 80 308 46 276 q 146 368 114 340 q 219 438 186 401 q 254 524 251 475 q 267 534 257 535 q 278 522 278 533 m 267 649 q 276 665 269 658 q 290 672 282 672 q 302 665 297 672 q 306 649 307 658 q 296 636 303 642 q 282 631 289 631 q 269 636 274 631 q 267 649 264 642 z "},"":{"ha":917,"x_min":8,"x_max":917,"o":"m 751 -114 q 708 -99 724 -114 q 687 -63 693 -85 q 682 -18 681 -42 q 688 25 683 6 l 700 83 q 638 109 668 92 q 579 148 608 126 q 521 194 550 169 q 463 243 492 218 q 418 147 442 192 q 364 70 394 103 q 294 19 333 38 q 207 0 256 0 q 92 28 136 0 q 26 98 47 56 q 9 189 6 140 q 38 280 13 238 q 110 350 63 322 q 226 378 158 378 q 343 348 288 378 q 451 278 399 318 q 482 374 468 326 q 511 463 496 422 q 564 629 535 549 q 633 775 593 710 q 686 835 656 808 q 753 879 717 861 q 828 907 789 897 q 907 917 867 917 q 915 897 918 917 l 726 101 q 741 99 733 100 q 756 99 749 99 q 844 123 807 99 q 897 217 881 147 q 910 227 901 231 q 917 214 919 224 q 896 150 911 176 q 859 107 881 124 q 811 83 838 90 q 756 76 785 76 q 739 77 747 76 q 722 79 731 78 l 708 18 q 703 -16 704 3 q 707 -51 703 -35 q 722 -80 711 -68 q 753 -92 732 -92 q 763 -103 764 -92 q 751 -114 763 -114 m 706 106 l 892 893 q 755 856 819 890 q 653 763 690 821 q 585 620 613 700 q 533 460 557 540 q 502 359 518 408 q 469 263 486 310 q 530 215 500 239 q 589 169 560 190 q 647 131 618 147 q 706 106 676 114 m 225 356 q 122 331 164 356 q 57 270 79 307 q 33 191 35 233 q 49 112 31 149 q 106 50 67 75 q 206 25 146 25 q 287 44 251 25 q 351 94 322 63 q 401 169 379 126 q 442 258 424 211 q 338 327 392 299 q 225 356 285 356 m 810 1092 q 810 1107 801 1101 q 826 1104 819 1113 l 871 1042 q 867 1026 878 1031 q 853 1028 857 1021 l 810 1092 z "},"":{"ha":917,"x_min":8,"x_max":929,"o":"m 751 -114 q 708 -99 724 -114 q 687 -63 693 -85 q 682 -18 681 -42 q 688 25 683 6 l 700 83 q 638 109 668 92 q 579 148 608 126 q 521 194 550 169 q 463 243 492 218 q 418 147 442 192 q 364 70 394 103 q 294 19 333 38 q 207 0 256 0 q 92 28 136 0 q 26 98 47 56 q 9 189 6 140 q 38 280 13 238 q 110 350 63 322 q 226 378 158 378 q 343 348 288 378 q 451 278 399 318 q 482 374 468 326 q 511 463 496 422 q 564 629 535 549 q 633 775 593 710 q 686 835 656 808 q 753 879 717 861 q 828 907 789 897 q 907 917 867 917 q 915 897 918 917 l 726 101 q 741 99 733 100 q 756 99 749 99 q 844 123 807 99 q 897 217 881 147 q 910 227 901 231 q 917 214 919 224 q 896 150 911 176 q 859 107 881 124 q 811 83 838 90 q 756 76 785 76 q 739 77 747 76 q 722 79 731 78 l 708 18 q 703 -16 704 3 q 707 -51 703 -35 q 722 -80 711 -68 q 753 -92 732 -92 q 763 -103 764 -92 q 751 -114 763 -114 m 706 106 l 892 893 q 755 856 819 890 q 653 763 690 821 q 585 620 613 700 q 533 460 557 540 q 502 359 518 408 q 469 263 486 310 q 530 215 500 239 q 589 169 560 190 q 647 131 618 147 q 706 106 676 114 m 225 356 q 122 331 164 356 q 57 270 79 307 q 33 191 35 233 q 49 112 31 149 q 106 50 67 75 q 206 25 146 25 q 287 44 251 25 q 351 94 322 63 q 401 169 379 126 q 442 258 424 211 q 338 327 392 299 q 225 356 285 356 m 831 1043 l 913 1107 q 928 1106 922 1114 q 926 1090 935 1097 l 843 1026 q 827 1028 833 1019 q 831 1043 821 1036 z "},"":{"ha":917,"x_min":8,"x_max":931,"o":"m 751 -114 q 708 -99 724 -114 q 687 -63 693 -85 q 682 -18 681 -42 q 688 25 683 6 l 700 83 q 638 109 668 92 q 579 148 608 126 q 521 194 550 169 q 463 243 492 218 q 418 147 442 192 q 364 70 394 103 q 294 19 333 38 q 207 0 256 0 q 92 28 136 0 q 26 98 47 56 q 9 189 6 140 q 38 280 13 238 q 110 350 63 322 q 226 378 158 378 q 343 348 288 378 q 451 278 399 318 q 482 374 468 326 q 511 463 496 422 q 564 629 535 549 q 633 775 593 710 q 686 835 656 808 q 753 879 717 861 q 828 907 789 897 q 907 917 867 917 q 915 897 918 917 l 726 101 q 741 99 733 100 q 756 99 749 99 q 844 123 807 99 q 897 217 881 147 q 910 227 901 231 q 917 214 919 224 q 896 150 911 176 q 859 107 881 124 q 811 83 838 90 q 756 76 785 76 q 739 77 747 76 q 722 79 731 78 l 708 18 q 703 -16 704 3 q 707 -51 703 -35 q 722 -80 711 -68 q 753 -92 732 -92 q 763 -103 764 -92 q 751 -114 763 -114 m 706 106 l 892 893 q 755 856 819 890 q 653 763 690 821 q 585 620 613 700 q 533 460 557 540 q 502 359 518 408 q 469 263 486 310 q 530 215 500 239 q 589 169 560 190 q 647 131 618 147 q 706 106 676 114 m 225 356 q 122 331 164 356 q 57 270 79 307 q 33 191 35 233 q 49 112 31 149 q 106 50 67 75 q 206 25 146 25 q 287 44 251 25 q 351 94 322 63 q 401 169 379 126 q 442 258 424 211 q 338 327 392 299 q 225 356 285 356 m 913 1028 l 874 1082 l 801 1026 q 784 1028 790 1019 q 785 1043 778 1036 l 869 1107 q 878 1109 874 1111 q 886 1104 883 1107 l 931 1042 q 928 1026 938 1032 q 913 1028 919 1021 z "},"":{"ha":917,"x_min":8,"x_max":942,"o":"m 751 -114 q 708 -99 724 -114 q 687 -63 693 -85 q 682 -18 681 -42 q 688 25 683 6 l 700 83 q 638 109 668 92 q 579 148 608 126 q 521 194 550 169 q 463 243 492 218 q 418 147 442 192 q 364 70 394 103 q 294 19 333 38 q 207 0 256 0 q 92 28 136 0 q 26 98 47 56 q 9 189 6 140 q 38 280 13 238 q 110 350 63 322 q 226 378 158 378 q 343 348 288 378 q 451 278 399 318 q 482 374 468 326 q 511 463 496 422 q 564 629 535 549 q 633 775 593 710 q 686 835 656 808 q 753 879 717 861 q 828 907 789 897 q 907 917 867 917 q 915 897 918 917 l 726 101 q 741 99 733 100 q 756 99 749 99 q 844 123 807 99 q 897 217 881 147 q 910 227 901 231 q 917 214 919 224 q 896 150 911 176 q 859 107 881 124 q 811 83 838 90 q 756 76 785 76 q 739 77 747 76 q 722 79 731 78 l 708 18 q 703 -16 704 3 q 707 -51 703 -35 q 722 -80 711 -68 q 753 -92 732 -92 q 763 -103 764 -92 q 751 -114 763 -114 m 706 106 l 892 893 q 755 856 819 890 q 653 763 690 821 q 585 620 613 700 q 533 460 557 540 q 502 359 518 408 q 469 263 486 310 q 530 215 500 239 q 589 169 560 190 q 647 131 618 147 q 706 106 676 114 m 225 356 q 122 331 164 356 q 57 270 79 307 q 33 191 35 233 q 49 112 31 149 q 106 50 67 75 q 206 25 146 25 q 287 44 251 25 q 351 94 322 63 q 401 169 379 126 q 442 258 424 211 q 338 327 392 299 q 225 356 285 356 m 799 1018 q 778 1023 785 1018 q 768 1033 771 1028 q 758 1060 757 1046 q 761 1078 760 1075 q 776 1085 764 1088 q 782 1071 788 1082 q 781 1060 781 1068 q 785 1046 781 1051 q 799 1040 788 1040 q 824 1048 814 1040 q 844 1064 833 1056 q 868 1083 856 1075 q 897 1090 881 1090 q 916 1088 906 1090 q 933 1075 926 1085 q 941 1047 943 1061 q 939 1032 939 1033 q 924 1024 936 1021 q 917 1038 913 1028 q 919 1048 918 1040 q 915 1061 919 1056 q 897 1067 911 1067 q 878 1061 886 1067 q 860 1047 869 1056 q 834 1027 849 1036 q 799 1018 819 1018 z "},"":{"ha":917,"x_min":8,"x_max":917,"o":"m 751 -114 q 708 -99 724 -114 q 687 -63 693 -85 q 682 -18 681 -42 q 688 25 683 6 l 700 83 q 638 109 668 92 q 579 148 608 126 q 521 194 550 169 q 463 243 492 218 q 418 147 442 192 q 364 70 394 103 q 294 19 333 38 q 207 0 256 0 q 92 28 136 0 q 26 98 47 56 q 9 189 6 140 q 38 280 13 238 q 110 350 63 322 q 226 378 158 378 q 343 348 288 378 q 451 278 399 318 q 482 374 468 326 q 511 463 496 422 q 564 629 535 549 q 633 775 593 710 q 686 835 656 808 q 753 879 717 861 q 828 907 789 897 q 907 917 867 917 q 915 897 918 917 l 726 101 q 741 99 733 100 q 756 99 749 99 q 844 123 807 99 q 897 217 881 147 q 910 227 901 231 q 917 214 919 224 q 896 150 911 176 q 859 107 881 124 q 811 83 838 90 q 756 76 785 76 q 739 77 747 76 q 722 79 731 78 l 708 18 q 703 -16 704 3 q 707 -51 703 -35 q 722 -80 711 -68 q 753 -92 732 -92 q 763 -103 764 -92 q 751 -114 763 -114 m 706 106 l 892 893 q 755 856 819 890 q 653 763 690 821 q 585 620 613 700 q 533 460 557 540 q 502 359 518 408 q 469 263 486 310 q 530 215 500 239 q 589 169 560 190 q 647 131 618 147 q 706 106 676 114 m 225 356 q 122 331 164 356 q 57 270 79 307 q 33 191 35 233 q 49 112 31 149 q 106 50 67 75 q 206 25 146 25 q 287 44 251 25 q 351 94 322 63 q 401 169 379 126 q 442 258 424 211 q 338 327 392 299 q 225 356 285 356 m 843 1047 q 833 1029 842 1036 q 814 1022 825 1022 q 798 1029 804 1022 q 794 1047 792 1036 q 806 1065 797 1058 q 826 1072 815 1072 q 841 1065 836 1072 q 843 1047 846 1058 m 914 1047 q 903 1029 913 1036 q 885 1022 894 1022 q 868 1029 874 1022 q 865 1047 863 1036 q 876 1065 868 1058 q 896 1072 885 1072 q 912 1065 907 1072 q 914 1047 917 1058 z "},"":{"ha":917,"x_min":8,"x_max":917,"o":"m 751 -114 q 708 -99 724 -114 q 687 -63 693 -85 q 682 -18 681 -42 q 688 25 683 6 l 700 83 q 638 109 668 92 q 579 148 608 126 q 521 194 550 169 q 463 243 492 218 q 418 147 442 192 q 364 70 394 103 q 294 19 333 38 q 207 0 256 0 q 92 28 136 0 q 26 98 47 56 q 9 189 6 140 q 38 280 13 238 q 110 350 63 322 q 226 378 158 378 q 343 348 288 378 q 451 278 399 318 q 482 374 468 326 q 511 463 496 422 q 564 629 535 549 q 633 775 593 710 q 686 835 656 808 q 753 879 717 861 q 828 907 789 897 q 907 917 867 917 q 915 897 918 917 l 726 101 q 741 99 733 100 q 756 99 749 99 q 844 123 807 99 q 897 217 881 147 q 910 227 901 231 q 917 214 919 224 q 896 150 911 176 q 859 107 881 124 q 811 83 838 90 q 756 76 785 76 q 739 77 747 76 q 722 79 731 78 l 708 18 q 703 -16 704 3 q 707 -51 703 -35 q 722 -80 711 -68 q 753 -92 732 -92 q 763 -103 764 -92 q 751 -114 763 -114 m 706 106 l 892 893 q 755 856 819 890 q 653 763 690 821 q 585 620 613 700 q 533 460 557 540 q 502 359 518 408 q 469 263 486 310 q 530 215 500 239 q 589 169 560 190 q 647 131 618 147 q 706 106 676 114 m 225 356 q 122 331 164 356 q 57 270 79 307 q 33 191 35 233 q 49 112 31 149 q 106 50 67 75 q 206 25 146 25 q 287 44 251 25 q 351 94 322 63 q 401 169 379 126 q 442 258 424 211 q 338 327 392 299 q 225 356 285 356 m 835 946 q 790 967 804 946 q 781 1015 775 989 q 809 1063 786 1043 q 860 1082 832 1082 q 905 1060 889 1082 q 914 1011 921 1038 q 885 965 910 985 q 835 946 861 946 m 860 1060 q 824 1045 840 1060 q 803 1011 807 1031 q 808 980 797 992 q 835 968 818 968 q 872 982 854 968 q 892 1015 889 996 q 887 1047 896 1033 q 860 1060 878 1060 z "},"":{"ha":1325,"x_min":8,"x_max":1215,"o":"m 208 0 q 197 13 197 0 q 208 25 197 25 q 325 68 276 25 q 408 176 374 111 q 466 319 442 242 q 511 463 490 396 q 583 628 536 547 q 697 774 631 710 q 846 877 763 838 q 1025 917 929 917 q 1036 906 1036 917 q 1025 894 1036 894 q 850 853 931 894 q 706 747 769 811 q 598 606 642 683 q 533 460 554 529 q 480 292 507 375 q 417 145 453 210 q 331 40 381 81 q 208 0 281 0 m 207 0 q 92 28 136 0 q 26 98 47 56 q 9 189 6 140 q 38 280 13 238 q 110 350 63 322 q 226 378 158 378 l 835 378 q 851 367 851 378 q 838 356 850 356 l 225 356 q 121 331 163 356 q 57 270 79 307 q 33 190 35 233 q 49 110 31 147 q 106 49 67 74 q 207 25 146 25 q 220 13 221 25 q 207 0 219 0 m 989 522 q 913 536 949 522 q 851 579 878 550 q 818 636 831 604 q 806 704 806 668 q 824 791 806 751 q 872 858 842 831 q 943 902 903 886 q 1028 918 983 918 q 1089 908 1060 918 q 1140 881 1118 899 q 1174 838 1161 864 q 1188 779 1188 813 q 1177 725 1188 750 q 1149 681 1167 700 q 1106 652 1131 663 q 1053 642 1081 642 q 1042 653 1042 642 q 1053 664 1042 664 q 1101 674 1079 664 q 1136 701 1122 685 q 1158 738 1150 718 q 1165 779 1165 758 q 1153 831 1165 808 q 1122 867 1142 853 q 1077 888 1101 881 q 1028 894 1053 894 q 949 880 986 894 q 886 840 913 865 q 844 781 860 815 q 829 704 829 746 q 840 644 829 672 q 868 593 850 615 q 989 544 914 544 q 997 542 993 544 q 1001 535 1001 539 q 997 526 1001 531 q 989 522 993 522 m 935 0 q 757 74 819 0 q 701 239 701 140 q 720 351 701 297 q 775 446 739 404 q 865 517 815 494 q 989 544 919 544 l 1028 544 q 1039 535 1039 544 q 1036 526 1039 531 q 1028 522 1033 522 l 989 522 q 866 493 914 522 q 792 433 818 464 q 742 342 760 393 q 725 239 725 292 q 775 88 725 146 q 935 22 829 22 q 1057 47 1011 22 q 1129 99 1103 71 q 1175 171 1158 131 q 1192 254 1192 211 q 1156 361 1192 318 q 1051 407 1117 407 q 1006 397 1028 407 q 964 368 983 386 q 938 330 946 350 q 929 292 929 310 q 915 281 929 281 q 910 283 913 281 q 907 292 907 286 q 949 383 907 339 q 1051 429 997 429 q 1174 375 1128 429 q 1215 254 1215 326 q 1197 163 1215 207 q 1144 83 1178 118 q 1066 27 1117 54 q 935 0 1015 0 z "},"":{"ha":610,"x_min":7,"x_max":528,"o":"m 274 0 q 143 37 194 0 q 61 130 92 74 q 19 254 31 186 q 7 385 7 322 q 17 501 7 440 q 47 622 26 563 q 97 734 67 681 q 168 828 128 788 q 258 894 208 869 q 368 918 308 918 q 429 908 400 918 q 480 881 458 899 q 515 837 501 863 q 528 779 528 811 q 517 725 528 750 q 489 681 507 700 q 446 652 471 663 q 393 642 421 642 q 383 653 382 642 q 393 664 383 664 q 441 674 419 664 q 477 701 463 685 q 499 738 492 718 q 507 779 507 758 q 495 830 507 808 q 463 866 483 851 q 418 888 443 881 q 368 894 393 894 q 260 869 308 894 q 175 803 213 844 q 110 708 138 761 q 64 598 82 654 q 38 486 46 542 q 29 385 29 431 q 41 256 29 321 q 81 140 53 192 q 156 55 108 88 q 274 22 203 22 q 361 40 324 22 q 424 88 399 57 q 461 162 449 119 q 474 253 474 204 q 444 369 474 321 q 347 417 414 417 q 303 407 325 417 q 263 381 281 397 q 235 345 246 365 q 225 303 225 325 q 213 292 225 292 q 201 303 201 292 q 215 355 201 331 q 249 398 228 379 q 296 428 269 417 q 347 439 322 439 q 416 424 388 439 q 462 383 444 408 q 488 323 479 357 q 496 253 496 289 q 481 149 496 196 q 436 69 465 103 q 366 18 407 36 q 274 0 325 0 m 226 -257 q 215 -246 215 -257 q 226 -235 215 -235 q 318 -208 288 -235 q 356 -154 349 -182 q 351 -104 367 -118 q 311 -82 336 -90 q 268 -58 286 -71 q 260 -12 250 -44 l 263 8 q 267 13 264 13 q 275 13 271 14 q 283 8 279 11 q 285 0 286 4 l 281 -14 q 285 -42 275 -33 q 318 -61 294 -50 q 344 -72 331 -65 q 368 -89 358 -78 q 381 -117 378 -100 q 378 -160 385 -133 q 318 -233 363 -210 q 226 -257 274 -257 z "},"":{"ha":614,"x_min":7,"x_max":518,"o":"m 238 0 q 142 19 185 0 q 69 70 99 38 q 23 146 39 103 q 7 239 7 189 q 23 342 7 293 q 68 429 39 390 q 137 496 97 468 q 224 536 176 524 q 141 600 171 556 q 111 704 111 644 q 128 791 111 751 q 176 858 146 831 q 247 902 207 886 q 331 918 286 918 q 391 908 363 918 q 442 881 419 899 q 476 838 464 864 q 489 779 489 813 q 452 681 489 721 q 357 642 415 642 q 347 653 346 642 q 357 664 347 664 q 406 674 385 664 q 440 701 426 685 q 460 738 453 718 q 467 779 467 758 q 455 831 467 808 q 424 867 443 853 q 381 888 406 881 q 331 894 356 894 q 253 880 289 894 q 190 840 217 865 q 149 781 164 815 q 133 704 133 746 q 178 590 133 636 q 296 544 224 544 l 331 544 q 343 535 343 544 q 340 526 343 531 q 331 522 336 522 l 297 522 q 188 499 238 522 q 103 436 139 475 q 49 346 68 397 q 29 239 29 294 q 44 152 29 192 q 88 83 60 113 q 153 38 115 54 q 238 22 192 22 q 336 40 289 22 q 419 88 383 57 q 475 160 454 118 q 496 254 496 203 q 457 363 496 318 q 356 407 418 407 q 312 397 333 407 q 273 372 290 388 q 244 335 256 356 q 233 292 233 314 q 222 281 233 281 q 211 292 211 281 q 224 344 211 319 q 258 388 238 369 q 305 418 279 407 q 356 429 331 429 q 424 415 394 429 q 475 376 454 400 q 507 320 496 351 q 518 254 518 289 q 494 149 518 196 q 431 68 471 101 q 341 17 392 35 q 238 0 290 0 m 276 1092 q 277 1107 268 1101 q 293 1104 286 1113 l 338 1042 q 334 1026 344 1031 q 319 1028 324 1021 l 276 1092 z "},"":{"ha":614,"x_min":7,"x_max":518,"o":"m 238 0 q 142 19 185 0 q 69 70 99 38 q 23 146 39 103 q 7 239 7 189 q 23 342 7 293 q 68 429 39 390 q 137 496 97 468 q 224 536 176 524 q 141 600 171 556 q 111 704 111 644 q 128 791 111 751 q 176 858 146 831 q 247 902 207 886 q 331 918 286 918 q 391 908 363 918 q 442 881 419 899 q 476 838 464 864 q 489 779 489 813 q 452 681 489 721 q 357 642 415 642 q 347 653 346 642 q 357 664 347 664 q 406 674 385 664 q 440 701 426 685 q 460 738 453 718 q 467 779 467 758 q 455 831 467 808 q 424 867 443 853 q 381 888 406 881 q 331 894 356 894 q 253 880 289 894 q 190 840 217 865 q 149 781 164 815 q 133 704 133 746 q 178 590 133 636 q 296 544 224 544 l 331 544 q 343 535 343 544 q 340 526 343 531 q 331 522 336 522 l 297 522 q 188 499 238 522 q 103 436 139 475 q 49 346 68 397 q 29 239 29 294 q 44 152 29 192 q 88 83 60 113 q 153 38 115 54 q 238 22 192 22 q 336 40 289 22 q 419 88 383 57 q 475 160 454 118 q 496 254 496 203 q 457 363 496 318 q 356 407 418 407 q 312 397 333 407 q 273 372 290 388 q 244 335 256 356 q 233 292 233 314 q 222 281 233 281 q 211 292 211 281 q 224 344 211 319 q 258 388 238 369 q 305 418 279 407 q 356 429 331 429 q 424 415 394 429 q 475 376 454 400 q 507 320 496 351 q 518 254 518 289 q 494 149 518 196 q 431 68 471 101 q 341 17 392 35 q 238 0 290 0 m 347 1043 l 429 1107 q 445 1106 439 1114 q 443 1090 451 1097 l 360 1026 q 344 1028 350 1019 q 347 1043 338 1036 z "},"":{"ha":614,"x_min":7,"x_max":518,"o":"m 238 0 q 142 19 185 0 q 69 70 99 38 q 23 146 39 103 q 7 239 7 189 q 23 342 7 293 q 68 429 39 390 q 137 496 97 468 q 224 536 176 524 q 141 600 171 556 q 111 704 111 644 q 128 791 111 751 q 176 858 146 831 q 247 902 207 886 q 331 918 286 918 q 391 908 363 918 q 442 881 419 899 q 476 838 464 864 q 489 779 489 813 q 452 681 489 721 q 357 642 415 642 q 347 653 346 642 q 357 664 347 664 q 406 674 385 664 q 440 701 426 685 q 460 738 453 718 q 467 779 467 758 q 455 831 467 808 q 424 867 443 853 q 381 888 406 881 q 331 894 356 894 q 253 880 289 894 q 190 840 217 865 q 149 781 164 815 q 133 704 133 746 q 178 590 133 636 q 296 544 224 544 l 331 544 q 343 535 343 544 q 340 526 343 531 q 331 522 336 522 l 297 522 q 188 499 238 522 q 103 436 139 475 q 49 346 68 397 q 29 239 29 294 q 44 152 29 192 q 88 83 60 113 q 153 38 115 54 q 238 22 192 22 q 336 40 289 22 q 419 88 383 57 q 475 160 454 118 q 496 254 496 203 q 457 363 496 318 q 356 407 418 407 q 312 397 333 407 q 273 372 290 388 q 244 335 256 356 q 233 292 233 314 q 222 281 233 281 q 211 292 211 281 q 224 344 211 319 q 258 388 238 369 q 305 418 279 407 q 356 429 331 429 q 424 415 394 429 q 475 376 454 400 q 507 320 496 351 q 518 254 518 289 q 494 149 518 196 q 431 68 471 101 q 341 17 392 35 q 238 0 290 0 m 422 1028 l 383 1082 l 311 1026 q 294 1028 300 1019 q 294 1043 288 1036 l 379 1107 q 388 1109 383 1111 q 396 1104 393 1107 l 440 1042 q 438 1026 447 1032 q 422 1028 429 1021 z "},"":{"ha":614,"x_min":7,"x_max":518,"o":"m 238 0 q 142 19 185 0 q 69 70 99 38 q 23 146 39 103 q 7 239 7 189 q 23 342 7 293 q 68 429 39 390 q 137 496 97 468 q 224 536 176 524 q 141 600 171 556 q 111 704 111 644 q 128 791 111 751 q 176 858 146 831 q 247 902 207 886 q 331 918 286 918 q 391 908 363 918 q 442 881 419 899 q 476 838 464 864 q 489 779 489 813 q 452 681 489 721 q 357 642 415 642 q 347 653 346 642 q 357 664 347 664 q 406 674 385 664 q 440 701 426 685 q 460 738 453 718 q 467 779 467 758 q 455 831 467 808 q 424 867 443 853 q 381 888 406 881 q 331 894 356 894 q 253 880 289 894 q 190 840 217 865 q 149 781 164 815 q 133 704 133 746 q 178 590 133 636 q 296 544 224 544 l 331 544 q 343 535 343 544 q 340 526 343 531 q 331 522 336 522 l 297 522 q 188 499 238 522 q 103 436 139 475 q 49 346 68 397 q 29 239 29 294 q 44 152 29 192 q 88 83 60 113 q 153 38 115 54 q 238 22 192 22 q 336 40 289 22 q 419 88 383 57 q 475 160 454 118 q 496 254 496 203 q 457 363 496 318 q 356 407 418 407 q 312 397 333 407 q 273 372 290 388 q 244 335 256 356 q 233 292 233 314 q 222 281 233 281 q 211 292 211 281 q 224 344 211 319 q 258 388 238 369 q 305 418 279 407 q 356 429 331 429 q 424 415 394 429 q 475 376 454 400 q 507 320 496 351 q 518 254 518 289 q 494 149 518 196 q 431 68 471 101 q 341 17 392 35 q 238 0 290 0 m 369 1047 q 360 1029 368 1036 q 340 1022 351 1022 q 324 1029 331 1022 q 321 1047 318 1036 q 333 1065 324 1058 q 353 1072 342 1072 q 367 1065 363 1072 q 369 1047 372 1058 m 440 1047 q 430 1029 439 1036 q 411 1022 421 1022 q 394 1029 400 1022 q 392 1047 389 1036 q 403 1065 394 1058 q 422 1072 411 1072 q 438 1065 433 1072 q 440 1047 443 1058 z "},"":{"ha":597,"x_min":7,"x_max":622,"o":"m 154 0 q 90 13 118 0 q 44 45 63 25 q 16 91 25 65 q 7 143 7 117 q 49 242 7 206 q 147 278 90 278 q 158 267 158 278 q 147 256 158 256 q 64 224 97 256 q 31 143 31 192 q 67 55 31 88 q 154 22 104 22 q 274 70 225 22 q 358 194 324 118 q 415 363 392 269 q 458 549 439 457 q 481 658 469 606 q 506 756 492 711 q 536 836 519 801 q 575 892 553 871 q 480 878 522 889 q 404 851 438 867 q 346 815 371 835 q 303 778 321 796 q 232 670 256 729 q 208 551 208 611 q 214 502 208 528 q 232 456 219 476 q 263 422 244 435 q 310 408 282 408 q 321 397 321 408 q 310 385 321 385 q 220 431 254 385 q 186 551 186 476 q 213 683 186 622 q 286 793 240 744 q 335 835 307 814 q 403 875 364 857 q 494 904 443 893 q 610 915 546 915 l 613 915 q 622 906 619 915 q 617 893 624 897 q 572 851 592 883 q 535 770 551 818 q 506 663 519 722 q 481 542 493 604 q 436 352 460 446 q 376 179 413 258 q 154 0 293 0 m 471 1092 q 472 1107 463 1101 q 488 1104 481 1113 l 532 1042 q 528 1026 539 1031 q 514 1028 518 1021 l 471 1092 z "},"":{"ha":597,"x_min":7,"x_max":622,"o":"m 154 0 q 90 13 118 0 q 44 45 63 25 q 16 91 25 65 q 7 143 7 117 q 49 242 7 206 q 147 278 90 278 q 158 267 158 278 q 147 256 158 256 q 64 224 97 256 q 31 143 31 192 q 67 55 31 88 q 154 22 104 22 q 274 70 225 22 q 358 194 324 118 q 415 363 392 269 q 458 549 439 457 q 481 658 469 606 q 506 756 492 711 q 536 836 519 801 q 575 892 553 871 q 480 878 522 889 q 404 851 438 867 q 346 815 371 835 q 303 778 321 796 q 232 670 256 729 q 208 551 208 611 q 214 502 208 528 q 232 456 219 476 q 263 422 244 435 q 310 408 282 408 q 321 397 321 408 q 310 385 321 385 q 220 431 254 385 q 186 551 186 476 q 213 683 186 622 q 286 793 240 744 q 335 835 307 814 q 403 875 364 857 q 494 904 443 893 q 610 915 546 915 l 613 915 q 622 906 619 915 q 617 893 624 897 q 572 851 592 883 q 535 770 551 818 q 506 663 519 722 q 481 542 493 604 q 436 352 460 446 q 376 179 413 258 q 154 0 293 0 m 475 1043 l 557 1107 q 573 1106 567 1114 q 571 1090 579 1097 l 488 1026 q 472 1028 478 1019 q 475 1043 465 1036 z "},"":{"ha":597,"x_min":7,"x_max":622,"o":"m 154 0 q 90 13 118 0 q 44 45 63 25 q 16 91 25 65 q 7 143 7 117 q 49 242 7 206 q 147 278 90 278 q 158 267 158 278 q 147 256 158 256 q 64 224 97 256 q 31 143 31 192 q 67 55 31 88 q 154 22 104 22 q 274 70 225 22 q 358 194 324 118 q 415 363 392 269 q 458 549 439 457 q 481 658 469 606 q 506 756 492 711 q 536 836 519 801 q 575 892 553 871 q 480 878 522 889 q 404 851 438 867 q 346 815 371 835 q 303 778 321 796 q 232 670 256 729 q 208 551 208 611 q 214 502 208 528 q 232 456 219 476 q 263 422 244 435 q 310 408 282 408 q 321 397 321 408 q 310 385 321 385 q 220 431 254 385 q 186 551 186 476 q 213 683 186 622 q 286 793 240 744 q 335 835 307 814 q 403 875 364 857 q 494 904 443 893 q 610 915 546 915 l 613 915 q 622 906 619 915 q 617 893 624 897 q 572 851 592 883 q 535 770 551 818 q 506 663 519 722 q 481 542 493 604 q 436 352 460 446 q 376 179 413 258 q 154 0 293 0 m 550 1028 l 511 1082 l 439 1026 q 422 1028 428 1019 q 422 1043 415 1036 l 507 1107 q 516 1109 511 1111 q 524 1104 521 1107 l 568 1042 q 566 1026 575 1032 q 550 1028 557 1021 z "},"":{"ha":597,"x_min":7,"x_max":622,"o":"m 154 0 q 90 13 118 0 q 44 45 63 25 q 16 91 25 65 q 7 143 7 117 q 49 242 7 206 q 147 278 90 278 q 158 267 158 278 q 147 256 158 256 q 64 224 97 256 q 31 143 31 192 q 67 55 31 88 q 154 22 104 22 q 274 70 225 22 q 358 194 324 118 q 415 363 392 269 q 458 549 439 457 q 481 658 469 606 q 506 756 492 711 q 536 836 519 801 q 575 892 553 871 q 480 878 522 889 q 404 851 438 867 q 346 815 371 835 q 303 778 321 796 q 232 670 256 729 q 208 551 208 611 q 214 502 208 528 q 232 456 219 476 q 263 422 244 435 q 310 408 282 408 q 321 397 321 408 q 310 385 321 385 q 220 431 254 385 q 186 551 186 476 q 213 683 186 622 q 286 793 240 744 q 335 835 307 814 q 403 875 364 857 q 494 904 443 893 q 610 915 546 915 l 613 915 q 622 906 619 915 q 617 893 624 897 q 572 851 592 883 q 535 770 551 818 q 506 663 519 722 q 481 542 493 604 q 436 352 460 446 q 376 179 413 258 q 154 0 293 0 m 488 1047 q 478 1029 486 1036 q 458 1022 469 1022 q 442 1029 449 1022 q 439 1047 436 1036 q 451 1065 442 1058 q 471 1072 460 1072 q 485 1065 481 1072 q 488 1047 490 1058 m 558 1047 q 548 1029 557 1036 q 529 1022 539 1022 q 513 1029 518 1022 q 510 1047 507 1036 q 521 1065 513 1058 q 540 1072 529 1072 q 556 1065 551 1072 q 558 1047 561 1058 z "},"":{"ha":1115,"x_min":7,"x_max":981,"o":"m 649 0 q 562 10 603 0 q 485 42 521 19 q 424 85 450 61 q 372 135 399 110 q 368 138 369 138 q 151 0 286 0 q 89 11 115 0 q 44 41 63 22 q 16 83 25 60 q 7 131 7 106 q 47 224 7 188 q 169 264 94 264 q 296 228 238 264 q 331 203 315 217 q 363 174 347 189 q 364 176 364 176 q 424 336 400 249 q 468 514 447 424 q 499 635 483 576 q 532 745 514 694 q 572 835 550 796 q 626 897 594 874 q 601 899 614 899 q 574 900 588 900 q 465 889 513 900 q 378 861 417 878 q 312 824 340 844 q 264 782 283 803 q 193 671 221 735 q 176 613 182 643 q 171 556 171 583 q 176 505 171 531 q 194 459 182 479 q 226 426 207 439 q 274 413 246 413 q 283 400 283 413 q 274 389 283 389 q 181 435 215 389 q 147 556 147 481 q 172 678 147 619 q 250 797 199 749 q 299 842 269 819 q 368 882 328 864 q 459 911 408 900 q 574 922 510 922 q 671 915 625 922 q 760 889 717 908 q 888 796 836 856 q 956 669 932 743 q 981 510 981 596 q 973 419 981 465 q 954 328 965 372 q 925 242 943 283 q 885 164 907 200 q 779 46 839 89 q 716 10 749 21 q 649 0 683 0 m 381 158 q 385 154 383 156 q 388 150 386 153 q 438 103 413 126 q 493 63 463 81 q 562 33 524 44 q 649 22 600 22 q 767 64 708 22 q 819 112 794 83 q 865 175 843 140 q 933 333 907 249 q 951 422 944 378 q 958 510 958 467 q 935 662 958 593 q 869 779 913 731 q 817 831 846 810 q 751 868 788 853 q 709 883 732 876 q 663 892 686 889 q 603 840 628 876 q 558 753 578 804 q 523 640 539 701 q 490 513 507 578 q 446 329 469 419 q 385 167 422 239 l 381 158 m 169 242 q 63 207 101 242 q 38 172 44 192 q 31 131 31 153 q 60 57 31 85 q 151 22 94 22 q 276 64 222 22 q 351 154 319 99 q 318 184 335 169 q 282 210 301 199 q 169 242 233 242 m 349 513 q 338 524 338 513 q 349 535 338 535 l 667 535 q 679 524 681 535 q 667 513 678 513 l 349 513 z "},"":{"ha":1085,"x_min":7,"x_max":972,"o":"m 872 -119 q 830 -105 844 -119 q 809 -69 815 -90 q 803 -24 803 -49 q 807 19 803 0 l 825 94 q 842 166 832 122 q 867 273 853 210 q 903 422 882 336 q 951 621 924 508 q 935 838 986 764 q 783 893 888 893 q 628 831 697 893 q 569 754 594 799 q 531 654 544 710 q 452 331 489 492 q 375 11 415 171 q 370 1 374 4 q 363 0 367 -1 q 356 5 358 1 q 354 13 353 8 q 363 52 354 14 q 386 149 372 90 q 417 282 400 208 q 451 427 433 356 q 483 560 468 499 q 510 660 499 622 q 519 735 519 701 q 513 797 519 769 q 497 844 507 824 q 474 879 486 864 q 401 938 446 917 q 307 960 356 960 q 199 940 250 960 q 111 887 149 921 q 51 805 74 853 q 29 700 29 757 q 41 626 29 661 q 75 566 53 592 q 128 525 97 540 q 199 510 160 510 q 247 519 224 510 q 286 546 269 529 q 313 585 303 563 q 322 631 322 607 q 333 642 322 642 q 344 631 344 642 q 333 575 344 601 q 301 529 321 549 q 254 499 281 510 q 199 488 228 488 q 119 506 154 488 q 58 553 83 524 q 20 622 33 583 q 7 700 7 660 q 32 816 7 764 q 99 905 57 868 q 194 962 140 942 q 307 982 249 982 q 410 958 363 982 q 490 892 458 933 q 528 824 518 860 q 540 750 539 788 q 613 847 571 810 q 783 915 688 915 q 950 850 897 915 q 972 615 1010 771 l 829 14 q 824 -20 825 -1 q 828 -56 824 -39 q 842 -84 832 -72 q 874 -96 853 -96 q 886 -108 886 -96 q 872 -119 886 -119 m 792 1018 q 771 1023 778 1018 q 761 1033 764 1028 q 751 1060 750 1046 q 754 1078 753 1075 q 769 1085 757 1088 q 775 1071 781 1082 q 774 1060 774 1068 q 778 1046 774 1051 q 792 1040 781 1040 q 817 1048 807 1040 q 838 1064 826 1056 q 861 1083 849 1075 q 890 1090 874 1090 q 909 1088 899 1090 q 926 1075 919 1085 q 934 1047 936 1061 q 932 1032 932 1033 q 917 1024 929 1021 q 910 1038 906 1028 q 912 1048 911 1040 q 908 1061 913 1056 q 890 1067 904 1067 q 871 1061 879 1067 q 853 1047 863 1056 q 827 1027 842 1036 q 792 1018 813 1018 z "},"":{"ha":715,"x_min":-8,"x_max":628,"o":"m 207 -3 q 105 19 146 -3 q 38 77 64 40 q 2 161 13 114 q -8 258 -8 208 q 4 358 -7 308 q 32 451 15 408 q 47 460 36 463 q 53 443 58 458 q 26 353 36 401 q 15 259 15 306 q 24 169 14 213 q 56 92 33 125 q 117 40 79 60 q 208 19 154 19 q 365 68 296 19 q 485 190 435 117 q 565 346 535 263 q 604 500 594 429 q 606 645 614 574 q 567 772 597 717 q 485 861 538 828 q 353 892 432 894 q 248 870 296 890 q 165 815 200 850 q 110 733 131 781 q 86 631 89 686 q 88 565 85 599 q 104 503 92 531 q 139 458 117 475 q 197 440 161 440 q 267 474 240 440 q 281 554 293 507 q 288 569 278 565 q 303 561 299 574 q 304 505 311 531 q 282 460 297 479 q 244 429 267 440 q 197 418 222 418 q 129 438 156 418 q 88 490 103 458 q 67 558 72 521 q 63 631 61 596 q 92 748 67 696 q 156 837 117 800 q 246 894 194 874 q 356 915 297 914 q 501 878 444 917 q 589 780 558 840 q 627 644 619 719 q 625 499 635 569 q 583 330 615 418 q 497 167 550 242 q 370 45 443 93 q 207 -3 297 -3 m 328 1092 q 328 1107 319 1101 q 344 1104 338 1113 l 389 1042 q 385 1026 396 1031 q 371 1028 375 1021 l 328 1092 z "},"":{"ha":715,"x_min":-8,"x_max":628,"o":"m 207 -3 q 105 19 146 -3 q 38 77 64 40 q 2 161 13 114 q -8 258 -8 208 q 4 358 -7 308 q 32 451 15 408 q 47 460 36 463 q 53 443 58 458 q 26 353 36 401 q 15 259 15 306 q 24 169 14 213 q 56 92 33 125 q 117 40 79 60 q 208 19 154 19 q 365 68 296 19 q 485 190 435 117 q 565 346 535 263 q 604 500 594 429 q 606 645 614 574 q 567 772 597 717 q 485 861 538 828 q 353 892 432 894 q 248 870 296 890 q 165 815 200 850 q 110 733 131 781 q 86 631 89 686 q 88 565 85 599 q 104 503 92 531 q 139 458 117 475 q 197 440 161 440 q 267 474 240 440 q 281 554 293 507 q 288 569 278 565 q 303 561 299 574 q 304 505 311 531 q 282 460 297 479 q 244 429 267 440 q 197 418 222 418 q 129 438 156 418 q 88 490 103 458 q 67 558 72 521 q 63 631 61 596 q 92 748 67 696 q 156 837 117 800 q 246 894 194 874 q 356 915 297 914 q 501 878 444 917 q 589 780 558 840 q 627 644 619 719 q 625 499 635 569 q 583 330 615 418 q 497 167 550 242 q 370 45 443 93 q 207 -3 297 -3 m 399 1043 l 481 1107 q 497 1106 490 1114 q 494 1090 503 1097 l 411 1026 q 395 1028 401 1019 q 399 1043 389 1036 z "},"":{"ha":715,"x_min":-8,"x_max":628,"o":"m 207 -3 q 105 19 146 -3 q 38 77 64 40 q 2 161 13 114 q -8 258 -8 208 q 4 358 -7 308 q 32 451 15 408 q 47 460 36 463 q 53 443 58 458 q 26 353 36 401 q 15 259 15 306 q 24 169 14 213 q 56 92 33 125 q 117 40 79 60 q 208 19 154 19 q 365 68 296 19 q 485 190 435 117 q 565 346 535 263 q 604 500 594 429 q 606 645 614 574 q 567 772 597 717 q 485 861 538 828 q 353 892 432 894 q 248 870 296 890 q 165 815 200 850 q 110 733 131 781 q 86 631 89 686 q 88 565 85 599 q 104 503 92 531 q 139 458 117 475 q 197 440 161 440 q 267 474 240 440 q 281 554 293 507 q 288 569 278 565 q 303 561 299 574 q 304 505 311 531 q 282 460 297 479 q 244 429 267 440 q 197 418 222 418 q 129 438 156 418 q 88 490 103 458 q 67 558 72 521 q 63 631 61 596 q 92 748 67 696 q 156 837 117 800 q 246 894 194 874 q 356 915 297 914 q 501 878 444 917 q 589 780 558 840 q 627 644 619 719 q 625 499 635 569 q 583 330 615 418 q 497 167 550 242 q 370 45 443 93 q 207 -3 297 -3 m 493 1028 l 454 1082 l 382 1026 q 365 1028 371 1019 q 365 1043 358 1036 l 450 1107 q 459 1109 454 1111 q 467 1104 464 1107 l 511 1042 q 509 1026 518 1032 q 493 1028 500 1021 z "},"":{"ha":715,"x_min":-8,"x_max":628,"o":"m 207 -3 q 105 19 146 -3 q 38 77 64 40 q 2 161 13 114 q -8 258 -8 208 q 4 358 -7 308 q 32 451 15 408 q 47 460 36 463 q 53 443 58 458 q 26 353 36 401 q 15 259 15 306 q 24 169 14 213 q 56 92 33 125 q 117 40 79 60 q 208 19 154 19 q 365 68 296 19 q 485 190 435 117 q 565 346 535 263 q 604 500 594 429 q 606 645 614 574 q 567 772 597 717 q 485 861 538 828 q 353 892 432 894 q 248 870 296 890 q 165 815 200 850 q 110 733 131 781 q 86 631 89 686 q 88 565 85 599 q 104 503 92 531 q 139 458 117 475 q 197 440 161 440 q 267 474 240 440 q 281 554 293 507 q 288 569 278 565 q 303 561 299 574 q 304 505 311 531 q 282 460 297 479 q 244 429 267 440 q 197 418 222 418 q 129 438 156 418 q 88 490 103 458 q 67 558 72 521 q 63 631 61 596 q 92 748 67 696 q 156 837 117 800 q 246 894 194 874 q 356 915 297 914 q 501 878 444 917 q 589 780 558 840 q 627 644 619 719 q 625 499 635 569 q 583 330 615 418 q 497 167 550 242 q 370 45 443 93 q 207 -3 297 -3 m 385 1018 q 364 1023 371 1018 q 354 1033 357 1028 q 344 1060 343 1046 q 347 1078 346 1075 q 362 1085 350 1088 q 368 1071 374 1082 q 367 1060 367 1068 q 371 1046 367 1051 q 385 1040 374 1040 q 410 1048 400 1040 q 431 1064 419 1056 q 454 1083 442 1075 q 483 1090 467 1090 q 502 1088 492 1090 q 519 1075 513 1085 q 527 1047 529 1061 q 525 1032 525 1033 q 510 1024 522 1021 q 503 1038 499 1028 q 505 1048 504 1040 q 501 1061 506 1056 q 483 1067 497 1067 q 464 1061 472 1067 q 446 1047 456 1056 q 420 1027 435 1036 q 385 1018 406 1018 z "},"":{"ha":715,"x_min":-8,"x_max":628,"o":"m 207 -3 q 105 19 146 -3 q 38 77 64 40 q 2 161 13 114 q -8 258 -8 208 q 4 358 -7 308 q 32 451 15 408 q 47 460 36 463 q 53 443 58 458 q 26 353 36 401 q 15 259 15 306 q 24 169 14 213 q 56 92 33 125 q 117 40 79 60 q 208 19 154 19 q 365 68 296 19 q 485 190 435 117 q 565 346 535 263 q 604 500 594 429 q 606 645 614 574 q 567 772 597 717 q 485 861 538 828 q 353 892 432 894 q 248 870 296 890 q 165 815 200 850 q 110 733 131 781 q 86 631 89 686 q 88 565 85 599 q 104 503 92 531 q 139 458 117 475 q 197 440 161 440 q 267 474 240 440 q 281 554 293 507 q 288 569 278 565 q 303 561 299 574 q 304 505 311 531 q 282 460 297 479 q 244 429 267 440 q 197 418 222 418 q 129 438 156 418 q 88 490 103 458 q 67 558 72 521 q 63 631 61 596 q 92 748 67 696 q 156 837 117 800 q 246 894 194 874 q 356 915 297 914 q 501 878 444 917 q 589 780 558 840 q 627 644 619 719 q 625 499 635 569 q 583 330 615 418 q 497 167 550 242 q 370 45 443 93 q 207 -3 297 -3 m 440 1047 q 431 1029 439 1036 q 411 1022 422 1022 q 395 1029 401 1022 q 392 1047 389 1036 q 403 1065 394 1058 q 424 1072 413 1072 q 438 1065 433 1072 q 440 1047 443 1058 m 511 1047 q 501 1029 510 1036 q 482 1022 492 1022 q 465 1029 471 1022 q 463 1047 460 1036 q 474 1065 465 1058 q 493 1072 482 1072 q 509 1065 504 1072 q 511 1047 514 1058 z "},"":{"ha":356,"x_min":22,"x_max":335,"o":"m 249 257 l 176 360 l 38 253 q 23 256 31 246 q 24 272 15 265 l 163 378 l 92 483 q 90 492 89 488 q 95 498 92 496 q 103 499 99 500 q 111 494 108 499 l 181 392 l 321 497 q 335 496 328 506 q 333 481 342 486 l 194 372 l 265 269 q 263 253 272 260 q 249 257 254 247 z "},"":{"ha":715,"x_min":-8,"x_max":628,"o":"m 207 -3 q 105 19 146 -3 q 38 77 64 40 q 2 161 13 114 q -8 258 -8 208 q 4 358 -7 308 q 32 451 15 408 q 47 460 36 463 q 53 443 58 458 q 26 353 36 401 q 15 259 15 306 q 24 169 14 213 q 56 92 33 125 q 117 40 79 60 q 208 19 154 19 q 365 68 296 19 q 485 190 435 117 q 565 346 535 263 q 604 500 594 429 q 606 645 614 574 q 567 772 597 717 q 485 861 538 828 q 353 892 432 894 q 248 870 296 890 q 165 815 200 850 q 110 733 131 781 q 86 631 89 686 q 88 565 85 599 q 104 503 92 531 q 139 458 117 475 q 197 440 161 440 q 267 474 240 440 q 281 554 293 507 q 288 569 278 565 q 303 561 299 574 q 304 505 311 531 q 282 460 297 479 q 244 429 267 440 q 197 418 222 418 q 129 438 156 418 q 88 490 103 458 q 67 558 72 521 q 63 631 61 596 q 92 748 67 696 q 156 837 117 800 q 246 894 194 874 q 356 915 297 914 q 501 878 444 917 q 589 780 558 840 q 627 644 619 719 q 625 499 635 569 q 583 330 615 418 q 497 167 550 242 q 370 45 443 93 q 207 -3 297 -3 m 533 892 q 550 896 542 901 q 553 883 558 890 l 114 -33 q 106 -38 111 -37 q 98 -37 101 -39 q 93 -31 94 -35 q 94 -21 92 -26 l 533 892 z "},"":{"ha":1138,"x_min":7,"x_max":1131,"o":"m 604 0 q 490 24 533 0 q 426 88 447 47 q 404 183 406 129 q 417 294 403 236 q 447 418 432 354 q 478 535 461 471 q 510 657 494 599 q 520 733 519 699 q 515 794 521 767 q 498 842 508 821 q 475 876 488 863 q 402 935 447 914 q 308 957 357 957 q 199 938 250 957 q 111 885 149 919 q 51 803 74 850 q 29 699 29 756 q 41 624 29 658 q 75 563 53 589 q 129 522 97 538 q 200 507 161 507 q 247 517 225 507 q 286 543 269 526 q 313 582 303 560 q 322 629 322 604 q 333 640 322 640 q 344 629 344 640 q 333 574 344 600 q 301 527 321 547 q 255 496 281 507 q 200 485 229 485 q 119 503 154 485 q 58 551 83 521 q 20 619 33 581 q 7 699 7 657 q 32 815 7 763 q 99 903 57 867 q 196 959 142 939 q 308 979 250 979 q 412 955 364 979 q 492 890 460 931 q 540 774 533 839 q 532 651 547 710 q 500 529 517 593 q 469 413 483 465 q 439 289 454 349 q 427 181 426 231 q 447 97 428 132 q 503 42 465 61 q 604 22 542 22 q 697 41 656 22 q 769 92 739 60 q 821 165 800 124 q 853 250 842 206 l 993 819 q 1011 869 1000 844 q 1038 913 1022 893 q 1074 944 1054 932 q 1119 958 1094 957 q 1131 947 1131 958 q 1119 936 1131 936 q 1080 922 1097 935 q 1050 892 1063 910 q 1029 853 1038 874 q 1015 814 1021 832 l 875 246 q 840 153 864 197 q 782 74 817 108 q 703 20 747 40 q 604 0 658 0 m 786 1092 q 787 1107 778 1101 q 803 1104 796 1113 l 847 1042 q 844 1026 854 1031 q 829 1028 833 1021 l 786 1092 z "},"":{"ha":1138,"x_min":7,"x_max":1131,"o":"m 604 0 q 490 24 533 0 q 426 88 447 47 q 404 183 406 129 q 417 294 403 236 q 447 418 432 354 q 478 535 461 471 q 510 657 494 599 q 520 733 519 699 q 515 794 521 767 q 498 842 508 821 q 475 876 488 863 q 402 935 447 914 q 308 957 357 957 q 199 938 250 957 q 111 885 149 919 q 51 803 74 850 q 29 699 29 756 q 41 624 29 658 q 75 563 53 589 q 129 522 97 538 q 200 507 161 507 q 247 517 225 507 q 286 543 269 526 q 313 582 303 560 q 322 629 322 604 q 333 640 322 640 q 344 629 344 640 q 333 574 344 600 q 301 527 321 547 q 255 496 281 507 q 200 485 229 485 q 119 503 154 485 q 58 551 83 521 q 20 619 33 581 q 7 699 7 657 q 32 815 7 763 q 99 903 57 867 q 196 959 142 939 q 308 979 250 979 q 412 955 364 979 q 492 890 460 931 q 540 774 533 839 q 532 651 547 710 q 500 529 517 593 q 469 413 483 465 q 439 289 454 349 q 427 181 426 231 q 447 97 428 132 q 503 42 465 61 q 604 22 542 22 q 697 41 656 22 q 769 92 739 60 q 821 165 800 124 q 853 250 842 206 l 993 819 q 1011 869 1000 844 q 1038 913 1022 893 q 1074 944 1054 932 q 1119 958 1094 957 q 1131 947 1131 958 q 1119 936 1131 936 q 1080 922 1097 935 q 1050 892 1063 910 q 1029 853 1038 874 q 1015 814 1021 832 l 875 246 q 840 153 864 197 q 782 74 817 108 q 703 20 747 40 q 604 0 658 0 m 771 1043 l 853 1107 q 869 1106 863 1114 q 867 1090 875 1097 l 783 1026 q 767 1028 774 1019 q 771 1043 761 1036 z "},"":{"ha":1138,"x_min":7,"x_max":1131,"o":"m 604 0 q 490 24 533 0 q 426 88 447 47 q 404 183 406 129 q 417 294 403 236 q 447 418 432 354 q 478 535 461 471 q 510 657 494 599 q 520 733 519 699 q 515 794 521 767 q 498 842 508 821 q 475 876 488 863 q 402 935 447 914 q 308 957 357 957 q 199 938 250 957 q 111 885 149 919 q 51 803 74 850 q 29 699 29 756 q 41 624 29 658 q 75 563 53 589 q 129 522 97 538 q 200 507 161 507 q 247 517 225 507 q 286 543 269 526 q 313 582 303 560 q 322 629 322 604 q 333 640 322 640 q 344 629 344 640 q 333 574 344 600 q 301 527 321 547 q 255 496 281 507 q 200 485 229 485 q 119 503 154 485 q 58 551 83 521 q 20 619 33 581 q 7 699 7 657 q 32 815 7 763 q 99 903 57 867 q 196 959 142 939 q 308 979 250 979 q 412 955 364 979 q 492 890 460 931 q 540 774 533 839 q 532 651 547 710 q 500 529 517 593 q 469 413 483 465 q 439 289 454 349 q 427 181 426 231 q 447 97 428 132 q 503 42 465 61 q 604 22 542 22 q 697 41 656 22 q 769 92 739 60 q 821 165 800 124 q 853 250 842 206 l 993 819 q 1011 869 1000 844 q 1038 913 1022 893 q 1074 944 1054 932 q 1119 958 1094 957 q 1131 947 1131 958 q 1119 936 1131 936 q 1080 922 1097 935 q 1050 892 1063 910 q 1029 853 1038 874 q 1015 814 1021 832 l 875 246 q 840 153 864 197 q 782 74 817 108 q 703 20 747 40 q 604 0 658 0 m 857 1028 l 818 1082 l 746 1026 q 728 1028 735 1019 q 729 1043 722 1036 l 814 1107 q 823 1109 818 1111 q 831 1104 828 1107 l 875 1042 q 873 1026 882 1032 q 857 1028 864 1021 z "},"":{"ha":1138,"x_min":7,"x_max":1131,"o":"m 604 0 q 490 24 533 0 q 426 88 447 47 q 404 183 406 129 q 417 294 403 236 q 447 418 432 354 q 478 535 461 471 q 510 657 494 599 q 520 733 519 699 q 515 794 521 767 q 498 842 508 821 q 475 876 488 863 q 402 935 447 914 q 308 957 357 957 q 199 938 250 957 q 111 885 149 919 q 51 803 74 850 q 29 699 29 756 q 41 624 29 658 q 75 563 53 589 q 129 522 97 538 q 200 507 161 507 q 247 517 225 507 q 286 543 269 526 q 313 582 303 560 q 322 629 322 604 q 333 640 322 640 q 344 629 344 640 q 333 574 344 600 q 301 527 321 547 q 255 496 281 507 q 200 485 229 485 q 119 503 154 485 q 58 551 83 521 q 20 619 33 581 q 7 699 7 657 q 32 815 7 763 q 99 903 57 867 q 196 959 142 939 q 308 979 250 979 q 412 955 364 979 q 492 890 460 931 q 540 774 533 839 q 532 651 547 710 q 500 529 517 593 q 469 413 483 465 q 439 289 454 349 q 427 181 426 231 q 447 97 428 132 q 503 42 465 61 q 604 22 542 22 q 697 41 656 22 q 769 92 739 60 q 821 165 800 124 q 853 250 842 206 l 993 819 q 1011 869 1000 844 q 1038 913 1022 893 q 1074 944 1054 932 q 1119 958 1094 957 q 1131 947 1131 958 q 1119 936 1131 936 q 1080 922 1097 935 q 1050 892 1063 910 q 1029 853 1038 874 q 1015 814 1021 832 l 875 246 q 840 153 864 197 q 782 74 817 108 q 703 20 747 40 q 604 0 658 0 m 790 1047 q 781 1029 789 1036 q 761 1022 772 1022 q 745 1029 751 1022 q 742 1047 739 1036 q 753 1065 744 1058 q 774 1072 763 1072 q 788 1065 783 1072 q 790 1047 793 1058 m 861 1047 q 851 1029 860 1036 q 832 1022 842 1022 q 815 1029 821 1022 q 813 1047 810 1036 q 824 1065 815 1058 q 843 1072 832 1072 q 859 1065 854 1072 q 861 1047 864 1058 z "},"":{"ha":1008,"x_min":7,"x_max":1133,"o":"m 603 0 q 488 24 531 0 q 424 90 444 49 q 403 184 404 131 q 415 296 403 238 l 510 660 q 515 771 522 717 q 481 867 507 825 q 410 934 454 908 q 307 960 367 960 q 199 941 250 960 q 111 888 149 922 q 51 806 74 853 q 29 701 29 758 q 41 628 29 663 q 75 567 53 593 q 128 525 97 540 q 199 510 160 510 q 247 519 224 510 q 286 546 269 529 q 313 585 303 563 q 322 631 322 607 q 333 642 322 642 q 344 631 344 642 q 333 575 344 601 q 301 529 321 549 q 254 499 281 510 q 199 488 228 488 q 117 506 153 488 q 58 553 82 524 q 20 622 33 583 q 7 701 7 660 q 32 817 7 765 q 99 906 57 869 q 194 962 140 942 q 307 982 249 982 q 425 951 376 982 q 502 874 474 921 q 538 768 531 826 q 531 654 544 710 q 499 534 515 597 q 469 417 483 471 q 447 326 456 363 q 439 289 439 290 q 425 181 424 229 q 445 97 426 132 q 503 42 464 61 q 603 22 542 22 q 696 42 654 22 q 769 92 738 61 q 821 165 800 124 q 853 250 842 206 l 992 819 q 1008 866 997 842 q 1035 911 1019 890 q 1071 945 1050 932 q 1119 958 1092 958 q 1133 947 1133 958 q 1119 936 1132 936 q 1080 924 1097 936 q 1049 892 1063 911 q 1028 853 1036 874 q 1015 814 1019 832 q 969 626 989 707 q 933 484 949 544 q 908 383 918 424 q 890 315 897 342 l 872 243 q 842 110 858 181 q 808 -28 825 39 q 772 -152 790 -94 q 736 -249 754 -210 q 700 -312 721 -282 q 653 -366 679 -343 q 596 -402 628 -389 q 525 -415 564 -415 q 461 -403 489 -415 q 415 -370 433 -390 q 386 -324 396 -350 q 376 -272 376 -299 q 417 -174 376 -210 q 517 -137 458 -137 q 529 -149 531 -137 q 517 -160 528 -160 q 433 -191 467 -160 q 400 -272 400 -222 q 437 -361 400 -331 q 525 -392 474 -392 q 590 -378 561 -392 q 642 -344 619 -365 q 683 -296 665 -324 q 714 -239 700 -268 q 772 -77 746 -169 q 822 124 797 15 q 731 34 786 68 q 603 0 675 0 m 763 1043 l 844 1107 q 860 1106 854 1114 q 858 1090 867 1097 l 775 1026 q 759 1028 765 1019 q 763 1043 753 1036 z "},"":{"ha":982,"x_min":7,"x_max":883,"o":"m 510 157 q 415 165 463 157 q 406 179 404 168 q 419 188 408 190 q 543 181 486 176 q 650 204 600 185 q 737 254 697 222 q 803 327 776 286 q 846 415 831 368 q 861 513 861 463 q 838 633 861 579 q 776 724 815 686 q 682 782 736 761 q 565 803 628 803 q 456 792 504 803 q 368 763 407 781 q 301 725 329 746 q 253 683 272 704 q 183 576 208 636 q 157 456 157 517 q 163 406 157 431 q 181 360 168 381 q 213 328 193 340 q 258 315 232 315 q 271 303 271 315 q 258 292 271 292 q 202 307 225 292 q 164 347 179 322 q 142 399 149 371 q 135 456 135 428 q 163 588 135 525 q 238 699 192 651 q 288 743 258 721 q 358 783 318 765 q 450 813 399 801 q 565 825 501 825 q 692 803 633 825 q 793 740 750 781 q 860 641 836 699 q 883 513 883 583 q 867 406 883 457 q 820 311 850 354 q 749 235 790 268 q 658 183 707 201 q 510 157 586 157 m 154 -36 q 90 -24 118 -36 q 44 10 63 -11 q 16 56 25 31 q 7 108 7 82 q 48 208 7 171 q 146 244 89 244 q 161 233 161 244 q 146 222 161 222 q 63 190 97 222 q 29 108 29 157 q 63 20 29 54 q 154 -14 97 -14 q 240 14 201 -14 q 308 89 278 42 q 363 197 339 136 q 406 326 388 258 q 440 463 425 394 q 468 593 456 532 q 498 722 483 661 q 529 833 513 783 q 567 916 546 882 q 619 963 589 950 q 638 954 635 965 q 629 939 640 943 q 583 897 603 929 q 548 816 564 864 q 518 710 532 768 q 490 589 504 651 q 468 476 481 542 q 438 342 456 411 q 396 205 421 272 q 337 84 371 138 q 258 -3 303 31 q 154 -36 213 -36 z "},"":{"ha":754,"x_min":7,"x_max":731,"o":"m 17 -112 q 7 -101 7 -112 q 17 -90 7 -90 q 106 -56 69 -90 q 169 51 143 -21 q 206 203 193 118 q 231 382 218 288 q 259 578 244 482 q 304 753 274 675 q 390 888 339 843 q 515 933 440 933 q 599 918 560 933 q 668 876 639 903 q 714 814 697 850 q 731 735 731 778 q 715 658 731 693 q 675 594 700 622 q 617 547 650 567 q 549 517 585 528 q 674 435 628 494 q 719 297 719 376 q 697 190 719 240 q 637 101 675 139 q 548 42 599 64 q 442 21 497 21 q 339 35 386 21 q 249 82 292 50 q 247 97 240 89 q 261 101 253 106 q 345 58 301 72 q 442 43 389 43 q 542 64 496 43 q 624 119 589 85 q 678 201 658 154 q 697 297 697 247 q 676 390 697 350 q 622 456 656 429 q 546 495 589 482 q 457 508 503 508 q 443 517 443 508 q 457 531 443 531 q 548 544 503 531 q 628 583 593 557 q 686 647 664 610 q 708 735 708 685 q 692 808 708 775 q 649 863 676 840 q 588 898 622 886 q 515 910 553 910 q 448 896 478 910 q 395 859 418 882 q 355 806 372 836 q 326 746 338 776 q 282 574 297 669 q 253 379 267 478 q 228 198 242 283 q 190 42 214 113 q 164 -17 179 11 q 127 -66 149 -44 q 78 -100 106 -87 q 17 -112 51 -112 z "},"":{"ha":521,"x_min":-35,"x_max":521,"o":"m 346 0 q 263 35 289 0 q 231 115 236 69 q 174 24 208 63 q 86 -14 139 -14 q 14 6 40 -14 q -24 58 -12 26 q -34 127 -35 89 q -25 200 -33 165 l 25 401 q 78 505 40 464 q 181 546 115 546 q 259 524 229 546 q 300 467 289 503 l 313 525 q 326 534 315 536 q 335 518 338 532 q 315 436 322 467 q 301 376 308 406 q 285 310 294 347 q 261 211 276 274 q 253 149 254 182 q 260 88 251 117 q 289 41 268 60 q 346 22 310 22 q 405 40 379 22 q 449 83 431 57 q 478 138 467 108 q 494 194 489 168 l 501 217 q 514 225 504 228 q 521 213 524 222 l 514 189 q 492 122 506 156 q 458 60 478 88 q 410 17 438 33 q 346 0 382 0 m 181 524 q 90 485 122 524 q 46 394 58 446 l -4 194 q -12 131 -11 164 q -4 72 -14 99 q 27 29 6 46 q 86 13 49 13 q 146 31 121 13 q 188 78 171 50 q 217 138 206 106 q 235 196 228 169 l 278 385 q 267 483 292 443 q 181 524 243 524 m 204 703 q 205 718 196 713 q 221 715 214 724 l 265 653 q 262 637 272 642 q 247 639 251 632 l 204 703 z "},"":{"ha":521,"x_min":-35,"x_max":521,"o":"m 346 0 q 263 35 289 0 q 231 115 236 69 q 174 24 208 63 q 86 -14 139 -14 q 14 6 40 -14 q -24 58 -12 26 q -34 127 -35 89 q -25 200 -33 165 l 25 401 q 78 505 40 464 q 181 546 115 546 q 259 524 229 546 q 300 467 289 503 l 313 525 q 326 534 315 536 q 335 518 338 532 q 315 436 322 467 q 301 376 308 406 q 285 310 294 347 q 261 211 276 274 q 253 149 254 182 q 260 88 251 117 q 289 41 268 60 q 346 22 310 22 q 405 40 379 22 q 449 83 431 57 q 478 138 467 108 q 494 194 489 168 l 501 217 q 514 225 504 228 q 521 213 524 222 l 514 189 q 492 122 506 156 q 458 60 478 88 q 410 17 438 33 q 346 0 382 0 m 181 524 q 90 485 122 524 q 46 394 58 446 l -4 194 q -12 131 -11 164 q -4 72 -14 99 q 27 29 6 46 q 86 13 49 13 q 146 31 121 13 q 188 78 171 50 q 217 138 206 106 q 235 196 228 169 l 278 385 q 267 483 292 443 q 181 524 243 524 m 213 654 l 294 718 q 310 717 304 725 q 308 701 317 708 l 225 638 q 209 639 215 631 q 213 654 203 647 z "},"":{"ha":521,"x_min":-35,"x_max":521,"o":"m 346 0 q 263 35 289 0 q 231 115 236 69 q 174 24 208 63 q 86 -14 139 -14 q 14 6 40 -14 q -24 58 -12 26 q -34 127 -35 89 q -25 200 -33 165 l 25 401 q 78 505 40 464 q 181 546 115 546 q 259 524 229 546 q 300 467 289 503 l 313 525 q 326 534 315 536 q 335 518 338 532 q 315 436 322 467 q 301 376 308 406 q 285 310 294 347 q 261 211 276 274 q 253 149 254 182 q 260 88 251 117 q 289 41 268 60 q 346 22 310 22 q 405 40 379 22 q 449 83 431 57 q 478 138 467 108 q 494 194 489 168 l 501 217 q 514 225 504 228 q 521 213 524 222 l 514 189 q 492 122 506 156 q 458 60 478 88 q 410 17 438 33 q 346 0 382 0 m 181 524 q 90 485 122 524 q 46 394 58 446 l -4 194 q -12 131 -11 164 q -4 72 -14 99 q 27 29 6 46 q 86 13 49 13 q 146 31 121 13 q 188 78 171 50 q 217 138 206 106 q 235 196 228 169 l 278 385 q 267 483 292 443 q 181 524 243 524 m 285 639 l 246 693 l 174 638 q 156 639 163 631 q 157 654 150 647 l 242 718 q 251 720 246 722 q 258 715 256 718 l 303 653 q 301 638 310 643 q 285 639 292 632 z "},"":{"ha":521,"x_min":-35,"x_max":521,"o":"m 346 0 q 263 35 289 0 q 231 115 236 69 q 174 24 208 63 q 86 -14 139 -14 q 14 6 40 -14 q -24 58 -12 26 q -34 127 -35 89 q -25 200 -33 165 l 25 401 q 78 505 40 464 q 181 546 115 546 q 259 524 229 546 q 300 467 289 503 l 313 525 q 326 534 315 536 q 335 518 338 532 q 315 436 322 467 q 301 376 308 406 q 285 310 294 347 q 261 211 276 274 q 253 149 254 182 q 260 88 251 117 q 289 41 268 60 q 346 22 310 22 q 405 40 379 22 q 449 83 431 57 q 478 138 467 108 q 494 194 489 168 l 501 217 q 514 225 504 228 q 521 213 524 222 l 514 189 q 492 122 506 156 q 458 60 478 88 q 410 17 438 33 q 346 0 382 0 m 181 524 q 90 485 122 524 q 46 394 58 446 l -4 194 q -12 131 -11 164 q -4 72 -14 99 q 27 29 6 46 q 86 13 49 13 q 146 31 121 13 q 188 78 171 50 q 217 138 206 106 q 235 196 228 169 l 278 385 q 267 483 292 443 q 181 524 243 524 m 174 629 q 153 634 160 629 q 143 644 146 639 q 133 672 132 657 q 136 689 135 686 q 151 696 139 699 q 157 682 163 693 q 156 671 156 679 q 160 657 156 663 q 174 651 163 651 q 199 659 189 651 q 219 675 208 667 q 243 694 231 686 q 272 701 256 701 q 291 699 281 701 q 308 686 301 696 q 316 658 318 672 q 314 643 314 644 q 299 635 311 632 q 292 649 288 639 q 294 659 293 651 q 290 672 294 667 q 272 678 286 678 q 253 672 261 678 q 235 658 244 667 q 209 638 224 647 q 174 629 194 629 z "},"":{"ha":521,"x_min":-35,"x_max":521,"o":"m 346 0 q 263 35 289 0 q 231 115 236 69 q 174 24 208 63 q 86 -14 139 -14 q 14 6 40 -14 q -24 58 -12 26 q -34 127 -35 89 q -25 200 -33 165 l 25 401 q 78 505 40 464 q 181 546 115 546 q 259 524 229 546 q 300 467 289 503 l 313 525 q 326 534 315 536 q 335 518 338 532 q 315 436 322 467 q 301 376 308 406 q 285 310 294 347 q 261 211 276 274 q 253 149 254 182 q 260 88 251 117 q 289 41 268 60 q 346 22 310 22 q 405 40 379 22 q 449 83 431 57 q 478 138 467 108 q 494 194 489 168 l 501 217 q 514 225 504 228 q 521 213 524 222 l 514 189 q 492 122 506 156 q 458 60 478 88 q 410 17 438 33 q 346 0 382 0 m 181 524 q 90 485 122 524 q 46 394 58 446 l -4 194 q -12 131 -11 164 q -4 72 -14 99 q 27 29 6 46 q 86 13 49 13 q 146 31 121 13 q 188 78 171 50 q 217 138 206 106 q 235 196 228 169 l 278 385 q 267 483 292 443 q 181 524 243 524 m 217 658 q 207 640 215 647 q 188 633 199 633 q 172 640 178 633 q 168 658 165 647 q 180 676 171 669 q 200 683 189 683 q 215 676 210 683 q 217 658 219 669 m 288 658 q 277 640 286 647 q 258 633 268 633 q 242 640 247 633 q 239 658 236 647 q 250 676 242 669 q 269 683 258 683 q 285 676 281 683 q 288 658 290 669 z "},"":{"ha":521,"x_min":-35,"x_max":521,"o":"m 346 0 q 263 35 289 0 q 231 115 236 69 q 174 24 208 63 q 86 -14 139 -14 q 14 6 40 -14 q -24 58 -12 26 q -34 127 -35 89 q -25 200 -33 165 l 25 401 q 78 505 40 464 q 181 546 115 546 q 259 524 229 546 q 300 467 289 503 l 313 525 q 326 534 315 536 q 335 518 338 532 q 315 436 322 467 q 301 376 308 406 q 285 310 294 347 q 261 211 276 274 q 253 149 254 182 q 260 88 251 117 q 289 41 268 60 q 346 22 310 22 q 405 40 379 22 q 449 83 431 57 q 478 138 467 108 q 494 194 489 168 l 501 217 q 514 225 504 228 q 521 213 524 222 l 514 189 q 492 122 506 156 q 458 60 478 88 q 410 17 438 33 q 346 0 382 0 m 181 524 q 90 485 122 524 q 46 394 58 446 l -4 194 q -12 131 -11 164 q -4 72 -14 99 q 27 29 6 46 q 86 13 49 13 q 146 31 121 13 q 188 78 171 50 q 217 138 206 106 q 235 196 228 169 l 278 385 q 267 483 292 443 q 181 524 243 524 m 226 633 q 181 655 196 633 q 172 703 167 676 q 201 750 178 731 q 251 769 224 769 q 297 747 281 769 q 306 699 313 725 q 277 653 301 672 q 226 633 253 633 m 251 747 q 215 733 232 747 q 194 699 199 718 q 199 667 189 679 q 226 656 210 656 q 263 669 246 656 q 283 703 281 683 q 278 734 288 721 q 251 747 269 747 z "},"":{"ha":669,"x_min":-35,"x_max":669,"o":"m 86 -14 q 14 6 40 -14 q -24 58 -12 26 q -34 127 -35 89 q -25 200 -33 165 l 25 401 q 78 505 40 464 q 181 546 115 546 q 246 532 219 546 q 288 494 272 518 q 306 440 303 471 q 301 376 310 410 l 256 190 q 233 118 247 154 q 198 53 218 82 q 150 5 178 24 q 86 -14 122 -14 m 181 524 q 90 485 122 524 q 46 394 58 446 l -4 194 q -12 131 -11 164 q -4 72 -14 99 q 27 29 6 46 q 86 13 49 13 q 146 31 121 13 q 188 78 171 50 q 217 138 206 106 q 235 196 228 169 l 279 382 q 270 483 294 443 q 181 524 246 524 m 313 525 q 326 534 315 536 q 335 518 338 532 q 258 215 286 318 q 224 112 229 113 q 240 213 219 111 q 313 525 261 315 m 436 -14 q 360 -1 396 -14 q 296 35 324 11 q 252 97 268 60 q 236 183 236 133 q 263 275 236 235 q 340 333 290 315 q 311 373 322 347 q 300 418 300 399 q 338 508 300 476 q 428 540 376 540 q 532 501 500 540 q 550 406 564 461 q 537 397 547 394 q 529 411 526 399 q 512 490 540 461 q 426 518 483 518 q 356 492 386 518 q 325 418 325 467 q 328 394 325 407 q 340 369 332 381 q 358 351 347 358 q 386 343 369 343 l 421 343 q 432 332 432 343 q 421 321 432 321 l 385 321 q 332 308 356 321 q 292 277 308 296 q 267 233 276 258 q 258 183 258 208 q 274 106 258 138 q 314 53 289 74 q 371 22 339 32 q 436 13 403 13 q 514 31 479 13 q 575 78 549 50 q 619 137 601 106 q 643 194 636 168 l 649 213 q 653 219 650 217 q 661 219 657 221 q 668 215 665 218 q 669 207 671 213 l 664 189 q 637 119 656 156 q 589 53 618 83 q 522 5 560 24 q 436 -14 483 -14 z "},"":{"ha":410,"x_min":-24,"x_max":408,"o":"m -1 183 q 13 106 -1 138 q 49 53 26 74 q 102 22 72 32 q 165 13 132 13 q 245 31 208 13 q 310 78 282 50 q 357 137 339 106 q 382 194 375 168 l 388 213 q 401 220 390 222 q 408 207 411 218 l 404 189 q 375 119 396 156 q 323 53 354 83 q 251 5 292 24 q 165 -14 211 -14 q 31 35 86 -14 q -24 183 -24 85 q -22 210 -24 196 q -16 249 -21 225 q -2 310 -11 274 q 22 401 7 346 q 77 506 40 467 q 178 546 114 546 q 244 532 217 546 q 286 494 271 518 q 305 440 301 471 q 300 376 308 410 q 294 369 299 371 q 286 368 290 367 q 279 373 282 369 q 278 382 276 376 q 265 486 293 449 q 178 524 238 524 q 89 485 121 524 q 43 394 57 446 q 19 305 28 340 q 6 247 10 269 q 0 209 1 224 q -1 183 -1 194 m 96 -260 q 85 -249 85 -260 q 96 -237 85 -237 q 188 -211 157 -237 q 225 -157 218 -185 q 221 -107 236 -121 q 181 -85 206 -93 q 138 -60 156 -74 q 129 -15 119 -47 l 132 6 q 137 10 133 10 q 144 10 140 11 q 152 5 149 8 q 154 -3 156 1 l 150 -17 q 154 -44 144 -36 q 188 -64 164 -53 q 214 -74 200 -68 q 238 -92 228 -81 q 251 -119 247 -103 q 247 -162 254 -136 q 188 -236 232 -212 q 96 -260 143 -260 z "},"":{"ha":408,"x_min":-25,"x_max":408,"o":"m 175 -14 q 99 -1 135 -14 q 35 35 63 11 q -9 97 7 60 q -25 183 -25 133 q 2 275 -25 235 q 79 333 29 315 q 50 373 61 347 q 39 418 39 399 q 77 508 39 476 q 167 540 115 540 q 271 501 239 540 q 289 406 303 461 q 276 397 286 394 q 268 411 265 399 q 251 490 279 461 q 165 518 222 518 q 94 492 125 518 q 64 418 64 467 q 67 394 64 407 q 78 369 71 381 q 97 351 86 358 q 125 343 108 343 l 160 343 q 171 332 171 343 q 160 321 171 321 l 124 321 q 71 308 94 321 q 31 277 47 296 q 6 233 15 258 q -3 183 -3 208 q 13 106 -3 138 q 53 53 28 74 q 110 22 78 32 q 175 13 142 13 q 253 31 218 13 q 314 78 288 50 q 358 137 340 106 q 382 194 375 168 l 388 213 q 392 219 389 217 q 400 219 396 221 q 407 215 404 218 q 408 207 410 213 l 403 189 q 376 119 394 156 q 328 53 357 83 q 260 5 299 24 q 175 -14 222 -14 m 175 703 q 176 718 167 713 q 192 715 185 724 l 236 653 q 233 637 243 642 q 218 639 222 632 l 175 703 z "},"":{"ha":408,"x_min":-25,"x_max":408,"o":"m 175 -14 q 99 -1 135 -14 q 35 35 63 11 q -9 97 7 60 q -25 183 -25 133 q 2 275 -25 235 q 79 333 29 315 q 50 373 61 347 q 39 418 39 399 q 77 508 39 476 q 167 540 115 540 q 271 501 239 540 q 289 406 303 461 q 276 397 286 394 q 268 411 265 399 q 251 490 279 461 q 165 518 222 518 q 94 492 125 518 q 64 418 64 467 q 67 394 64 407 q 78 369 71 381 q 97 351 86 358 q 125 343 108 343 l 160 343 q 171 332 171 343 q 160 321 171 321 l 124 321 q 71 308 94 321 q 31 277 47 296 q 6 233 15 258 q -3 183 -3 208 q 13 106 -3 138 q 53 53 28 74 q 110 22 78 32 q 175 13 142 13 q 253 31 218 13 q 314 78 288 50 q 358 137 340 106 q 382 194 375 168 l 388 213 q 392 219 389 217 q 400 219 396 221 q 407 215 404 218 q 408 207 410 213 l 403 189 q 376 119 394 156 q 328 53 357 83 q 260 5 299 24 q 175 -14 222 -14 m 157 654 l 239 718 q 255 717 249 725 q 253 701 261 708 l 169 638 q 153 639 160 631 q 157 654 147 647 z "},"":{"ha":408,"x_min":-25,"x_max":408,"o":"m 175 -14 q 99 -1 135 -14 q 35 35 63 11 q -9 97 7 60 q -25 183 -25 133 q 2 275 -25 235 q 79 333 29 315 q 50 373 61 347 q 39 418 39 399 q 77 508 39 476 q 167 540 115 540 q 271 501 239 540 q 289 406 303 461 q 276 397 286 394 q 268 411 265 399 q 251 490 279 461 q 165 518 222 518 q 94 492 125 518 q 64 418 64 467 q 67 394 64 407 q 78 369 71 381 q 97 351 86 358 q 125 343 108 343 l 160 343 q 171 332 171 343 q 160 321 171 321 l 124 321 q 71 308 94 321 q 31 277 47 296 q 6 233 15 258 q -3 183 -3 208 q 13 106 -3 138 q 53 53 28 74 q 110 22 78 32 q 175 13 142 13 q 253 31 218 13 q 314 78 288 50 q 358 137 340 106 q 382 194 375 168 l 388 213 q 392 219 389 217 q 400 219 396 221 q 407 215 404 218 q 408 207 410 213 l 403 189 q 376 119 394 156 q 328 53 357 83 q 260 5 299 24 q 175 -14 222 -14 m 260 639 l 221 693 l 149 638 q 131 639 138 631 q 132 654 125 647 l 217 718 q 226 720 221 722 q 233 715 231 718 l 278 653 q 276 638 285 643 q 260 639 267 632 z "},"":{"ha":408,"x_min":-25,"x_max":408,"o":"m 175 -14 q 99 -1 135 -14 q 35 35 63 11 q -9 97 7 60 q -25 183 -25 133 q 2 275 -25 235 q 79 333 29 315 q 50 373 61 347 q 39 418 39 399 q 77 508 39 476 q 167 540 115 540 q 271 501 239 540 q 289 406 303 461 q 276 397 286 394 q 268 411 265 399 q 251 490 279 461 q 165 518 222 518 q 94 492 125 518 q 64 418 64 467 q 67 394 64 407 q 78 369 71 381 q 97 351 86 358 q 125 343 108 343 l 160 343 q 171 332 171 343 q 160 321 171 321 l 124 321 q 71 308 94 321 q 31 277 47 296 q 6 233 15 258 q -3 183 -3 208 q 13 106 -3 138 q 53 53 28 74 q 110 22 78 32 q 175 13 142 13 q 253 31 218 13 q 314 78 288 50 q 358 137 340 106 q 382 194 375 168 l 388 213 q 392 219 389 217 q 400 219 396 221 q 407 215 404 218 q 408 207 410 213 l 403 189 q 376 119 394 156 q 328 53 357 83 q 260 5 299 24 q 175 -14 222 -14 m 193 658 q 183 640 192 647 q 164 633 175 633 q 148 640 154 633 q 144 658 142 647 q 156 676 147 669 q 176 683 165 683 q 191 676 186 683 q 193 658 196 669 m 264 658 q 253 640 263 647 q 235 633 244 633 q 218 640 224 633 q 215 658 213 647 q 226 676 218 669 q 246 683 235 683 q 262 676 257 683 q 264 658 267 669 z "},"":{"ha":258,"x_min":-32,"x_max":258,"o":"m 85 0 q 14 21 39 0 q -22 74 -11 42 q -32 143 -33 106 q -22 214 -31 181 l 53 525 q 67 535 56 536 q 74 518 78 533 l 0 211 q -8 149 -7 182 q -1 88 -10 115 q 27 41 7 60 q 85 22 47 22 q 142 40 118 22 q 184 83 167 57 q 213 138 201 108 q 232 194 225 168 l 238 213 q 249 219 239 222 q 258 207 260 217 l 253 189 q 231 120 244 154 q 197 59 217 86 q 149 16 176 32 q 85 0 121 0 m 24 703 q 24 718 15 713 q 40 715 33 724 l 85 653 q 81 637 92 642 q 67 639 71 632 l 24 703 z "},"":{"ha":258,"x_min":-32,"x_max":258,"o":"m 85 0 q 14 21 39 0 q -22 74 -11 42 q -32 143 -33 106 q -22 214 -31 181 l 53 525 q 67 535 56 536 q 74 518 78 533 l 0 211 q -8 149 -7 182 q -1 88 -10 115 q 27 41 7 60 q 85 22 47 22 q 142 40 118 22 q 184 83 167 57 q 213 138 201 108 q 232 194 225 168 l 238 213 q 249 219 239 222 q 258 207 260 217 l 253 189 q 231 120 244 154 q 197 59 217 86 q 149 16 176 32 q 85 0 121 0 m 99 654 l 181 718 q 197 717 190 725 q 194 701 203 708 l 111 638 q 95 639 101 631 q 99 654 89 647 z "},"":{"ha":258,"x_min":-32,"x_max":258,"o":"m 85 0 q 14 21 39 0 q -22 74 -11 42 q -32 143 -33 106 q -22 214 -31 181 l 53 525 q 67 535 56 536 q 74 518 78 533 l 0 211 q -8 149 -7 182 q -1 88 -10 115 q 27 41 7 60 q 85 22 47 22 q 142 40 118 22 q 184 83 167 57 q 213 138 201 108 q 232 194 225 168 l 238 213 q 249 219 239 222 q 258 207 260 217 l 253 189 q 231 120 244 154 q 197 59 217 86 q 149 16 176 32 q 85 0 121 0 m 140 639 l 101 693 l 29 638 q 12 639 18 631 q 13 654 6 647 l 97 718 q 106 720 101 722 q 114 715 111 718 l 158 653 q 156 638 165 643 q 140 639 147 632 z "},"":{"ha":258,"x_min":-32,"x_max":258,"o":"m 85 0 q 14 21 39 0 q -22 74 -11 42 q -32 143 -33 106 q -22 214 -31 181 l 53 525 q 67 535 56 536 q 74 518 78 533 l 0 211 q -8 149 -7 182 q -1 88 -10 115 q 27 41 7 60 q 85 22 47 22 q 142 40 118 22 q 184 83 167 57 q 213 138 201 108 q 232 194 225 168 l 238 213 q 249 219 239 222 q 258 207 260 217 l 253 189 q 231 120 244 154 q 197 59 217 86 q 149 16 176 32 q 85 0 121 0 m 78 658 q 68 640 76 647 q 49 633 60 633 q 33 640 39 633 q 29 658 26 647 q 41 676 32 669 q 61 683 50 683 q 76 676 71 683 q 78 658 81 669 m 149 658 q 138 640 147 647 q 119 633 129 633 q 103 640 108 633 q 100 658 97 647 q 111 676 103 669 q 131 683 119 683 q 147 676 142 683 q 149 658 151 669 z "},"":{"ha":646,"x_min":-24,"x_max":683,"o":"m 372 664 l 513 769 q 453 846 493 815 q 360 876 413 876 q 167 789 254 876 q 151 790 158 782 q 150 804 143 797 q 360 899 242 899 q 454 872 411 899 q 532 783 497 846 l 668 889 q 683 886 678 896 q 682 869 689 876 l 540 764 q 563 678 556 725 q 571 578 571 631 q 543 370 571 474 q 463 182 515 267 q 405 103 438 139 q 333 40 372 67 q 250 -3 294 13 q 157 -18 206 -18 q 79 -2 113 -18 q 23 41 46 14 q -12 103 0 68 q -24 178 -24 139 q 0 308 -24 242 q 64 428 24 374 q 174 522 113 490 q 303 554 235 554 q 385 530 349 554 q 436 463 421 506 q 446 401 446 433 q 436 337 446 368 q 409 278 426 306 q 368 233 392 251 q 351 235 358 226 q 353 250 344 243 q 391 293 375 268 q 415 346 407 318 q 422 403 422 374 q 414 458 422 432 q 369 514 400 496 q 303 532 339 532 q 184 501 240 532 q 83 413 128 469 q 22 301 44 363 q -1 178 -1 239 q 41 53 -1 103 q 157 4 83 4 q 248 19 206 4 q 326 60 290 35 q 392 121 363 86 q 443 193 421 156 q 522 377 494 276 q 549 578 549 478 q 521 750 549 675 l 386 646 q 369 648 375 639 q 372 664 364 657 z "},"":{"ha":517,"x_min":-69,"x_max":515,"o":"m 344 0 q 274 22 299 0 q 240 78 250 44 q 232 149 231 111 q 240 218 233 188 l 267 339 q 280 408 274 375 q 283 467 286 442 q 260 508 279 493 q 200 524 242 524 q 153 508 179 524 q 101 466 126 493 q 56 401 76 439 q 25 321 35 364 l -47 11 q -53 1 -49 4 q -61 -1 -57 -1 q -68 3 -65 0 q -69 13 -71 7 l 53 524 q 67 533 56 535 q 74 518 78 532 l 56 438 q 119 514 82 482 q 200 546 156 546 q 273 526 250 546 q 302 477 296 507 q 302 409 308 447 q 288 333 296 371 l 263 214 q 255 149 256 182 q 263 87 254 115 q 290 40 271 58 q 344 22 310 22 q 402 40 378 22 q 444 83 426 57 q 474 138 463 108 q 490 194 485 168 l 496 213 q 509 222 499 224 q 515 207 519 219 l 513 189 q 489 122 503 156 q 455 60 475 88 q 407 17 435 33 q 344 0 379 0 m 163 629 q 142 634 149 629 q 132 644 135 639 q 122 672 121 657 q 125 689 124 686 q 140 696 128 699 q 146 682 151 693 q 144 671 144 679 q 149 657 144 663 q 163 651 151 651 q 188 659 178 651 q 208 675 197 667 q 232 694 219 686 q 261 701 244 701 q 280 699 269 701 q 297 686 290 696 q 305 658 307 672 q 303 643 303 644 q 288 635 300 632 q 281 649 276 639 q 283 659 282 651 q 279 672 283 667 q 261 678 275 678 q 242 672 250 678 q 224 658 233 667 q 198 638 213 647 q 163 629 183 629 z "},"":{"ha":424,"x_min":-35,"x_max":328,"o":"m 94 -14 q 18 6 46 -14 q -22 58 -10 26 q -35 126 -35 89 q -26 199 -35 164 l 24 400 q 81 506 39 467 q 192 546 124 546 q 265 528 236 546 q 310 483 294 511 q 327 419 325 454 q 321 347 329 383 l 283 188 q 260 114 275 150 q 223 49 246 78 q 169 3 200 21 q 94 -14 138 -14 m 192 524 q 128 510 154 524 q 86 476 103 496 q 60 435 69 457 q 46 394 51 413 l -4 193 q -11 128 -12 160 q 2 70 -10 96 q 36 28 14 44 q 94 13 58 13 q 261 193 217 13 l 300 353 q 306 418 308 388 q 290 472 304 449 q 252 510 276 496 q 192 524 228 524 m 182 703 q 183 718 174 713 q 199 715 192 724 l 243 653 q 240 637 250 642 q 225 639 229 632 l 182 703 z "},"":{"ha":424,"x_min":-35,"x_max":328,"o":"m 94 -14 q 18 6 46 -14 q -22 58 -10 26 q -35 126 -35 89 q -26 199 -35 164 l 24 400 q 81 506 39 467 q 192 546 124 546 q 265 528 236 546 q 310 483 294 511 q 327 419 325 454 q 321 347 329 383 l 283 188 q 260 114 275 150 q 223 49 246 78 q 169 3 200 21 q 94 -14 138 -14 m 192 524 q 128 510 154 524 q 86 476 103 496 q 60 435 69 457 q 46 394 51 413 l -4 193 q -11 128 -12 160 q 2 70 -10 96 q 36 28 14 44 q 94 13 58 13 q 261 193 217 13 l 300 353 q 306 418 308 388 q 290 472 304 449 q 252 510 276 496 q 192 524 228 524 m 213 654 l 294 718 q 310 717 304 725 q 308 701 317 708 l 225 638 q 209 639 215 631 q 213 654 203 647 z "},"":{"ha":424,"x_min":-35,"x_max":328,"o":"m 94 -14 q 18 6 46 -14 q -22 58 -10 26 q -35 126 -35 89 q -26 199 -35 164 l 24 400 q 81 506 39 467 q 192 546 124 546 q 265 528 236 546 q 310 483 294 511 q 327 419 325 454 q 321 347 329 383 l 283 188 q 260 114 275 150 q 223 49 246 78 q 169 3 200 21 q 94 -14 138 -14 m 192 524 q 128 510 154 524 q 86 476 103 496 q 60 435 69 457 q 46 394 51 413 l -4 193 q -11 128 -12 160 q 2 70 -10 96 q 36 28 14 44 q 94 13 58 13 q 261 193 217 13 l 300 353 q 306 418 308 388 q 290 472 304 449 q 252 510 276 496 q 192 524 228 524 m 293 639 l 254 693 l 182 638 q 165 639 171 631 q 165 654 158 647 l 250 718 q 259 720 254 722 q 267 715 264 718 l 311 653 q 309 638 318 643 q 293 639 300 632 z "},"":{"ha":424,"x_min":-35,"x_max":343,"o":"m 94 -14 q 18 6 46 -14 q -22 58 -10 26 q -35 126 -35 89 q -26 199 -35 164 l 24 400 q 81 506 39 467 q 192 546 124 546 q 265 528 236 546 q 310 483 294 511 q 327 419 325 454 q 321 347 329 383 l 283 188 q 260 114 275 150 q 223 49 246 78 q 169 3 200 21 q 94 -14 138 -14 m 192 524 q 128 510 154 524 q 86 476 103 496 q 60 435 69 457 q 46 394 51 413 l -4 193 q -11 128 -12 160 q 2 70 -10 96 q 36 28 14 44 q 94 13 58 13 q 261 193 217 13 l 300 353 q 306 418 308 388 q 290 472 304 449 q 252 510 276 496 q 192 524 228 524 m 200 629 q 179 634 186 629 q 169 644 172 639 q 160 672 158 657 q 163 689 161 686 q 177 696 165 699 q 183 682 189 693 q 182 671 182 679 q 186 657 182 663 q 200 651 189 651 q 225 659 215 651 q 246 675 235 667 q 269 694 257 686 q 299 701 282 701 q 317 699 307 701 q 335 686 328 696 q 342 658 344 672 q 340 643 340 644 q 326 635 338 632 q 318 649 314 639 q 320 659 319 651 q 317 672 321 667 q 299 678 313 678 q 279 672 288 678 q 261 658 271 667 q 235 638 250 647 q 200 629 221 629 z "},"":{"ha":424,"x_min":-35,"x_max":328,"o":"m 94 -14 q 18 6 46 -14 q -22 58 -10 26 q -35 126 -35 89 q -26 199 -35 164 l 24 400 q 81 506 39 467 q 192 546 124 546 q 265 528 236 546 q 310 483 294 511 q 327 419 325 454 q 321 347 329 383 l 283 188 q 260 114 275 150 q 223 49 246 78 q 169 3 200 21 q 94 -14 138 -14 m 192 524 q 128 510 154 524 q 86 476 103 496 q 60 435 69 457 q 46 394 51 413 l -4 193 q -11 128 -12 160 q 2 70 -10 96 q 36 28 14 44 q 94 13 58 13 q 261 193 217 13 l 300 353 q 306 418 308 388 q 290 472 304 449 q 252 510 276 496 q 192 524 228 524 m 214 658 q 204 640 213 647 q 185 633 196 633 q 169 640 175 633 q 165 658 163 647 q 177 676 168 669 q 197 683 186 683 q 212 676 207 683 q 214 658 217 669 m 285 658 q 274 640 283 647 q 256 633 265 633 q 239 640 244 633 q 236 658 233 647 q 247 676 239 669 q 267 683 256 683 q 283 676 278 683 q 285 658 288 669 z "},"":{"ha":354,"x_min":4,"x_max":347,"o":"m 14 429 q 5 440 4 429 q 14 450 6 450 l 335 450 q 347 440 347 450 q 335 429 346 429 l 14 429 m 122 256 q 90 272 100 256 q 83 307 79 289 q 103 340 86 326 q 139 354 119 354 q 174 338 163 354 q 178 303 185 322 q 158 269 174 283 q 122 256 142 256 m 218 524 q 184 540 196 524 q 178 576 172 557 q 200 608 183 596 q 236 621 217 621 q 267 605 256 621 q 275 569 279 589 q 254 537 271 550 q 218 524 238 524 z "},"":{"ha":424,"x_min":-35,"x_max":328,"o":"m 94 -14 q 18 6 46 -14 q -22 58 -10 26 q -35 126 -35 89 q -26 199 -35 164 l 24 400 q 81 506 39 467 q 192 546 124 546 q 265 528 236 546 q 310 483 294 511 q 327 419 325 454 q 321 347 329 383 l 283 188 q 260 114 275 150 q 223 49 246 78 q 169 3 200 21 q 94 -14 138 -14 m 192 524 q 128 510 154 524 q 86 476 103 496 q 60 435 69 457 q 46 394 51 413 l -4 193 q -11 128 -12 160 q 2 70 -10 96 q 36 28 14 44 q 94 13 58 13 q 261 193 217 13 l 300 353 q 306 418 308 388 q 290 472 304 449 q 252 510 276 496 q 192 524 228 524 m 297 597 q 312 602 303 607 q 317 589 321 597 l -14 -90 q -27 -96 -17 -101 q -33 -81 -37 -90 l 297 597 z "},"":{"ha":519,"x_min":-35,"x_max":518,"o":"m 346 0 q 262 33 288 0 q 231 113 236 67 q 174 24 210 63 q 86 -14 139 -14 q 14 6 40 -14 q -24 58 -12 26 q -35 127 -36 89 q -25 200 -33 165 l 58 525 q 63 532 60 531 q 71 533 67 533 q 78 528 75 532 q 81 518 82 524 l -4 194 q -13 130 -12 163 q -4 72 -14 97 q 27 29 6 46 q 86 13 49 13 q 146 31 121 13 q 188 78 171 50 q 217 138 206 106 q 235 196 228 169 l 313 525 q 327 534 315 536 q 336 518 339 532 l 261 211 q 253 149 254 182 q 260 88 251 117 q 289 41 268 60 q 346 22 310 22 q 404 40 379 22 q 447 83 429 57 q 475 138 464 108 q 492 194 486 168 l 497 213 q 510 222 500 224 q 518 207 521 219 l 514 189 q 492 122 506 156 q 457 60 478 88 q 409 17 436 33 q 346 0 382 0 m 157 703 q 158 718 149 713 q 174 715 167 724 l 218 653 q 215 637 225 642 q 200 639 204 632 l 157 703 z "},"":{"ha":519,"x_min":-35,"x_max":518,"o":"m 346 0 q 262 33 288 0 q 231 113 236 67 q 174 24 210 63 q 86 -14 139 -14 q 14 6 40 -14 q -24 58 -12 26 q -35 127 -36 89 q -25 200 -33 165 l 58 525 q 63 532 60 531 q 71 533 67 533 q 78 528 75 532 q 81 518 82 524 l -4 194 q -13 130 -12 163 q -4 72 -14 97 q 27 29 6 46 q 86 13 49 13 q 146 31 121 13 q 188 78 171 50 q 217 138 206 106 q 235 196 228 169 l 313 525 q 327 534 315 536 q 336 518 339 532 l 261 211 q 253 149 254 182 q 260 88 251 117 q 289 41 268 60 q 346 22 310 22 q 404 40 379 22 q 447 83 429 57 q 475 138 464 108 q 492 194 486 168 l 497 213 q 510 222 500 224 q 518 207 521 219 l 514 189 q 492 122 506 156 q 457 60 478 88 q 409 17 436 33 q 346 0 382 0 m 213 654 l 294 718 q 310 717 304 725 q 308 701 317 708 l 225 638 q 209 639 215 631 q 213 654 203 647 z "},"":{"ha":519,"x_min":-35,"x_max":518,"o":"m 346 0 q 262 33 288 0 q 231 113 236 67 q 174 24 210 63 q 86 -14 139 -14 q 14 6 40 -14 q -24 58 -12 26 q -35 127 -36 89 q -25 200 -33 165 l 58 525 q 63 532 60 531 q 71 533 67 533 q 78 528 75 532 q 81 518 82 524 l -4 194 q -13 130 -12 163 q -4 72 -14 97 q 27 29 6 46 q 86 13 49 13 q 146 31 121 13 q 188 78 171 50 q 217 138 206 106 q 235 196 228 169 l 313 525 q 327 534 315 536 q 336 518 339 532 l 261 211 q 253 149 254 182 q 260 88 251 117 q 289 41 268 60 q 346 22 310 22 q 404 40 379 22 q 447 83 429 57 q 475 138 464 108 q 492 194 486 168 l 497 213 q 510 222 500 224 q 518 207 521 219 l 514 189 q 492 122 506 156 q 457 60 478 88 q 409 17 436 33 q 346 0 382 0 m 286 639 l 247 693 l 175 638 q 158 639 164 631 q 158 654 151 647 l 243 718 q 252 720 247 722 q 260 715 257 718 l 304 653 q 302 638 311 643 q 286 639 293 632 z "},"":{"ha":519,"x_min":-35,"x_max":518,"o":"m 346 0 q 262 33 288 0 q 231 113 236 67 q 174 24 210 63 q 86 -14 139 -14 q 14 6 40 -14 q -24 58 -12 26 q -35 127 -36 89 q -25 200 -33 165 l 58 525 q 63 532 60 531 q 71 533 67 533 q 78 528 75 532 q 81 518 82 524 l -4 194 q -13 130 -12 163 q -4 72 -14 97 q 27 29 6 46 q 86 13 49 13 q 146 31 121 13 q 188 78 171 50 q 217 138 206 106 q 235 196 228 169 l 313 525 q 327 534 315 536 q 336 518 339 532 l 261 211 q 253 149 254 182 q 260 88 251 117 q 289 41 268 60 q 346 22 310 22 q 404 40 379 22 q 447 83 429 57 q 475 138 464 108 q 492 194 486 168 l 497 213 q 510 222 500 224 q 518 207 521 219 l 514 189 q 492 122 506 156 q 457 60 478 88 q 409 17 436 33 q 346 0 382 0 m 203 658 q 193 640 201 647 q 174 633 185 633 q 158 640 164 633 q 154 658 151 647 q 166 676 157 669 q 186 683 175 683 q 201 676 196 683 q 203 658 206 669 m 274 658 q 263 640 272 647 q 244 633 254 633 q 228 640 233 633 q 225 658 222 647 q 236 676 228 669 q 256 683 244 683 q 272 676 267 683 q 274 658 276 669 z "},"":{"ha":467,"x_min":-74,"x_max":338,"o":"m 86 -14 q 14 6 40 -14 q -24 58 -12 26 q -35 127 -36 89 q -25 200 -33 165 l 58 525 q 72 534 61 536 q 81 518 83 532 l -4 194 q -12 132 -11 164 q -4 74 -14 100 q 27 30 6 47 q 86 13 49 13 q 128 22 107 13 q 167 50 149 31 q 235 196 210 97 l 315 524 q 329 533 318 535 q 338 517 340 532 l 196 -61 q 163 -150 182 -111 q 118 -215 144 -189 q 63 -252 90 -243 q 17 -261 36 -261 q -32 -253 -8 -261 q -72 -226 -56 -246 q -73 -210 -81 -218 q -58 -211 -65 -203 q 17 -239 -26 -239 q 56 -231 33 -239 q 101 -200 78 -224 q 172 -56 149 -153 l 200 56 q 183 35 192 40 q 86 -14 138 -14 m 210 654 l 292 718 q 308 717 301 725 q 306 701 314 708 l 222 638 q 206 639 213 631 q 210 654 200 647 z "},"":{"ha":440,"x_min":-147,"x_max":314,"o":"m 93 -14 q 20 6 47 -14 q -19 58 -7 26 q -33 126 -32 89 q -25 199 -33 164 l 17 376 q 40 440 25 410 q 76 494 54 471 q 126 532 97 518 q 190 546 154 546 q 265 525 238 546 q 303 472 292 504 q 314 402 315 440 q 304 329 313 364 l 272 190 q 249 121 264 157 q 213 55 235 85 q 161 6 190 25 q 93 -14 132 -14 m -3 194 q -11 129 -11 161 q -1 71 -11 97 q 33 28 10 44 q 93 13 56 13 q 155 31 128 13 q 201 77 182 50 q 231 136 219 104 q 250 194 243 168 l 282 335 q 292 401 290 367 q 283 462 293 435 q 251 506 274 489 q 190 524 229 524 q 131 510 156 524 q 88 476 106 497 q 59 427 71 454 q 39 371 47 400 l -3 194 m 118 792 q 131 800 121 803 q 139 786 142 797 l -125 -311 q -139 -322 -128 -325 q -147 -306 -150 -318 l 118 792 z "},"":{"ha":467,"x_min":-74,"x_max":338,"o":"m 86 -14 q 14 6 40 -14 q -24 58 -12 26 q -35 127 -36 89 q -25 200 -33 165 l 58 525 q 72 534 61 536 q 81 518 83 532 l -4 194 q -12 132 -11 164 q -4 74 -14 100 q 27 30 6 47 q 86 13 49 13 q 128 22 107 13 q 167 50 149 31 q 235 196 210 97 l 315 524 q 329 533 318 535 q 338 517 340 532 l 196 -61 q 163 -150 182 -111 q 118 -215 144 -189 q 63 -252 90 -243 q 17 -261 36 -261 q -32 -253 -8 -261 q -72 -226 -56 -246 q -73 -210 -81 -218 q -58 -211 -65 -203 q 17 -239 -26 -239 q 56 -231 33 -239 q 101 -200 78 -224 q 172 -56 149 -153 l 200 56 q 183 35 192 40 q 86 -14 138 -14 m 204 658 q 194 640 203 647 q 175 633 186 633 q 159 640 165 633 q 156 658 153 647 q 167 676 158 669 q 188 683 176 683 q 202 676 197 683 q 204 658 207 669 m 275 658 q 265 640 274 647 q 246 633 256 633 q 229 640 235 633 q 226 658 224 647 q 238 676 229 669 q 257 683 246 683 q 273 676 268 683 q 275 658 278 669 z "},"":{"ha":917,"x_min":8,"x_max":932,"o":"m 751 -114 q 708 -99 724 -114 q 687 -63 693 -85 q 682 -18 681 -42 q 688 25 683 6 l 700 83 q 638 109 668 92 q 579 148 608 126 q 521 194 550 169 q 463 243 492 218 q 418 147 442 192 q 364 70 394 103 q 294 19 333 38 q 207 0 256 0 q 92 28 136 0 q 26 98 47 56 q 9 189 6 140 q 38 280 13 238 q 110 350 63 322 q 226 378 158 378 q 343 348 288 378 q 451 278 399 318 q 482 374 468 326 q 511 463 496 422 q 564 629 535 549 q 633 775 593 710 q 686 835 656 808 q 753 879 717 861 q 828 907 789 897 q 907 917 867 917 q 915 897 918 917 l 726 101 q 741 99 733 100 q 756 99 749 99 q 844 123 807 99 q 897 217 881 147 q 910 227 901 231 q 917 214 919 224 q 896 150 911 176 q 859 107 881 124 q 811 83 838 90 q 756 76 785 76 q 739 77 747 76 q 722 79 731 78 l 708 18 q 703 -16 704 3 q 707 -51 703 -35 q 722 -80 711 -68 q 753 -92 732 -92 q 763 -103 764 -92 q 751 -114 763 -114 m 706 106 l 892 893 q 755 856 819 890 q 653 763 690 821 q 585 620 613 700 q 533 460 557 540 q 502 359 518 408 q 469 263 486 310 q 530 215 500 239 q 589 169 560 190 q 647 131 618 147 q 706 106 676 114 m 225 356 q 122 331 164 356 q 57 270 79 307 q 33 191 35 233 q 49 112 31 149 q 106 50 67 75 q 206 25 146 25 q 287 44 251 25 q 351 94 322 63 q 401 169 379 126 q 442 258 424 211 q 338 327 392 299 q 225 356 285 356 m 724 1029 q 715 1040 714 1029 q 724 1051 715 1051 l 919 1051 q 931 1040 932 1051 q 919 1029 931 1029 l 724 1029 z "},"":{"ha":521,"x_min":-35,"x_max":521,"o":"m 346 0 q 263 35 289 0 q 231 115 236 69 q 174 24 208 63 q 86 -14 139 -14 q 14 6 40 -14 q -24 58 -12 26 q -34 127 -35 89 q -25 200 -33 165 l 25 401 q 78 505 40 464 q 181 546 115 546 q 259 524 229 546 q 300 467 289 503 l 313 525 q 326 534 315 536 q 335 518 338 532 q 315 436 322 467 q 301 376 308 406 q 285 310 294 347 q 261 211 276 274 q 253 149 254 182 q 260 88 251 117 q 289 41 268 60 q 346 22 310 22 q 405 40 379 22 q 449 83 431 57 q 478 138 467 108 q 494 194 489 168 l 501 217 q 514 225 504 228 q 521 213 524 222 l 514 189 q 492 122 506 156 q 458 60 478 88 q 410 17 438 33 q 346 0 382 0 m 181 524 q 90 485 122 524 q 46 394 58 446 l -4 194 q -12 131 -11 164 q -4 72 -14 99 q 27 29 6 46 q 86 13 49 13 q 146 31 121 13 q 188 78 171 50 q 217 138 206 106 q 235 196 228 169 l 278 385 q 267 483 292 443 q 181 524 243 524 m 128 640 q 119 651 118 640 q 128 663 119 663 l 324 663 q 335 651 336 663 q 324 640 335 640 l 128 640 z "},"":{"ha":917,"x_min":8,"x_max":917,"o":"m 751 -114 q 708 -99 724 -114 q 687 -63 693 -85 q 682 -18 681 -42 q 688 25 683 6 l 700 83 q 638 109 668 92 q 579 148 608 126 q 521 194 550 169 q 463 243 492 218 q 418 147 442 192 q 364 70 394 103 q 294 19 333 38 q 207 0 256 0 q 92 28 136 0 q 26 98 47 56 q 9 189 6 140 q 38 280 13 238 q 110 350 63 322 q 226 378 158 378 q 343 348 288 378 q 451 278 399 318 q 482 374 468 326 q 511 463 496 422 q 564 629 535 549 q 633 775 593 710 q 686 835 656 808 q 753 879 717 861 q 828 907 789 897 q 907 917 867 917 q 915 897 918 917 l 726 101 q 741 99 733 100 q 756 99 749 99 q 844 123 807 99 q 897 217 881 147 q 910 227 901 231 q 917 214 919 224 q 896 150 911 176 q 859 107 881 124 q 811 83 838 90 q 756 76 785 76 q 739 77 747 76 q 722 79 731 78 l 708 18 q 703 -16 704 3 q 707 -51 703 -35 q 722 -80 711 -68 q 753 -92 732 -92 q 763 -103 764 -92 q 751 -114 763 -114 m 706 106 l 892 893 q 755 856 819 890 q 653 763 690 821 q 585 620 613 700 q 533 460 557 540 q 502 359 518 408 q 469 263 486 310 q 530 215 500 239 q 589 169 560 190 q 647 131 618 147 q 706 106 676 114 m 225 356 q 122 331 164 356 q 57 270 79 307 q 33 191 35 233 q 49 112 31 149 q 106 50 67 75 q 206 25 146 25 q 287 44 251 25 q 351 94 322 63 q 401 169 379 126 q 442 258 424 211 q 338 327 392 299 q 225 356 285 356 m 794 1032 q 764 1056 772 1039 q 761 1094 756 1074 q 776 1103 764 1106 q 783 1089 788 1100 q 803 1053 778 1063 q 855 1058 828 1046 q 889 1094 882 1071 q 903 1103 892 1106 q 911 1089 914 1100 q 893 1058 906 1071 q 864 1037 881 1044 q 829 1028 847 1029 q 794 1032 811 1026 z "},"":{"ha":521,"x_min":-35,"x_max":521,"o":"m 346 0 q 263 35 289 0 q 231 115 236 69 q 174 24 208 63 q 86 -14 139 -14 q 14 6 40 -14 q -24 58 -12 26 q -34 127 -35 89 q -25 200 -33 165 l 25 401 q 78 505 40 464 q 181 546 115 546 q 259 524 229 546 q 300 467 289 503 l 313 525 q 326 534 315 536 q 335 518 338 532 q 315 436 322 467 q 301 376 308 406 q 285 310 294 347 q 261 211 276 274 q 253 149 254 182 q 260 88 251 117 q 289 41 268 60 q 346 22 310 22 q 405 40 379 22 q 449 83 431 57 q 478 138 467 108 q 494 194 489 168 l 501 217 q 514 225 504 228 q 521 213 524 222 l 514 189 q 492 122 506 156 q 458 60 478 88 q 410 17 438 33 q 346 0 382 0 m 181 524 q 90 485 122 524 q 46 394 58 446 l -4 194 q -12 131 -11 164 q -4 72 -14 99 q 27 29 6 46 q 86 13 49 13 q 146 31 121 13 q 188 78 171 50 q 217 138 206 106 q 235 196 228 169 l 278 385 q 267 483 292 443 q 181 524 243 524 m 206 643 q 175 667 183 650 q 172 706 167 685 q 187 714 175 717 q 194 700 199 711 q 214 664 189 674 q 266 669 239 657 q 300 706 293 682 q 314 714 303 717 q 322 700 325 711 q 304 669 317 682 q 275 648 292 656 q 240 639 258 640 q 206 643 222 638 z "},"":{"ha":917,"x_min":8,"x_max":917,"o":"m 751 -114 q 708 -99 724 -114 q 687 -63 693 -85 q 682 -18 681 -42 q 688 25 683 6 l 700 83 q 638 109 668 92 q 579 148 608 126 q 521 194 550 169 q 463 243 492 218 q 418 147 442 192 q 364 70 394 103 q 294 19 333 38 q 207 0 256 0 q 92 28 136 0 q 26 98 47 56 q 9 189 6 140 q 38 280 13 238 q 110 350 63 322 q 226 378 158 378 q 343 348 288 378 q 451 278 399 318 q 482 374 468 326 q 511 463 496 422 q 564 629 535 549 q 633 775 593 710 q 686 835 656 808 q 753 879 717 861 q 828 907 789 897 q 907 917 867 917 q 915 897 918 917 l 726 101 q 741 99 733 100 q 756 99 749 99 q 844 123 807 99 q 897 217 881 147 q 910 227 901 231 q 917 214 919 224 q 896 150 911 176 q 859 107 881 124 q 811 83 838 90 q 756 76 785 76 q 739 77 747 76 q 722 79 731 78 l 708 18 q 703 -16 704 3 q 707 -51 703 -35 q 722 -80 711 -68 q 753 -92 732 -92 q 763 -103 764 -92 q 751 -114 763 -114 m 706 106 l 892 893 q 755 856 819 890 q 653 763 690 821 q 585 620 613 700 q 533 460 557 540 q 502 359 518 408 q 469 263 486 310 q 530 215 500 239 q 589 169 560 190 q 647 131 618 147 q 706 106 676 114 m 225 356 q 122 331 164 356 q 57 270 79 307 q 33 191 35 233 q 49 112 31 149 q 106 50 67 75 q 206 25 146 25 q 287 44 251 25 q 351 94 322 63 q 401 169 379 126 q 442 258 424 211 q 338 327 392 299 q 225 356 285 356 m 713 -281 q 652 -261 676 -281 q 628 -208 628 -242 q 638 -162 628 -183 q 667 -126 649 -142 q 706 -102 685 -111 q 751 -93 728 -93 q 763 -104 763 -93 q 751 -115 763 -115 q 709 -124 728 -115 q 677 -147 690 -133 q 657 -178 664 -161 q 650 -208 650 -194 q 670 -247 650 -236 q 713 -258 690 -258 q 723 -269 724 -258 q 713 -281 722 -281 z "},"":{"ha":521,"x_min":-35,"x_max":521,"o":"m 346 0 q 263 35 289 0 q 231 115 236 69 q 174 24 208 63 q 86 -14 139 -14 q 14 6 40 -14 q -24 58 -12 26 q -34 127 -35 89 q -25 200 -33 165 l 25 401 q 78 505 40 464 q 181 546 115 546 q 259 524 229 546 q 300 467 289 503 l 313 525 q 326 534 315 536 q 335 518 338 532 q 315 436 322 467 q 301 376 308 406 q 285 310 294 347 q 261 211 276 274 q 253 149 254 182 q 260 88 251 117 q 289 41 268 60 q 346 22 310 22 q 405 40 379 22 q 449 83 431 57 q 478 138 467 108 q 494 194 489 168 l 501 217 q 514 225 504 228 q 521 213 524 222 l 514 189 q 492 122 506 156 q 458 60 478 88 q 410 17 438 33 q 346 0 382 0 m 181 524 q 90 485 122 524 q 46 394 58 446 l -4 194 q -12 131 -11 164 q -4 72 -14 99 q 27 29 6 46 q 86 13 49 13 q 146 31 121 13 q 188 78 171 50 q 217 138 206 106 q 235 196 228 169 l 278 385 q 267 483 292 443 q 181 524 243 524 m 304 -165 q 244 -146 268 -165 q 219 -93 219 -126 q 230 -47 219 -68 q 258 -11 240 -26 q 298 13 276 4 q 343 22 319 22 q 354 11 354 22 q 343 0 354 0 q 301 -9 319 0 q 269 -32 282 -18 q 249 -62 256 -46 q 242 -93 242 -79 q 262 -132 242 -121 q 304 -143 282 -143 q 315 -154 315 -143 q 304 -165 314 -165 z "},"":{"ha":610,"x_min":7,"x_max":528,"o":"m 274 0 q 143 37 194 0 q 61 130 92 74 q 19 254 31 186 q 7 385 7 322 q 17 501 7 440 q 47 622 26 563 q 97 734 67 681 q 168 828 128 788 q 258 894 208 869 q 368 918 308 918 q 429 908 400 918 q 480 881 458 899 q 515 837 501 863 q 528 779 528 811 q 517 725 528 750 q 489 681 507 700 q 446 652 471 663 q 393 642 421 642 q 383 653 382 642 q 393 664 383 664 q 441 674 419 664 q 477 701 463 685 q 499 738 492 718 q 507 779 507 758 q 495 830 507 808 q 463 866 483 851 q 418 888 443 881 q 368 894 393 894 q 260 869 308 894 q 175 803 213 844 q 110 708 138 761 q 64 598 82 654 q 38 486 46 542 q 29 385 29 431 q 41 256 29 321 q 81 140 53 192 q 156 55 108 88 q 274 22 203 22 q 361 40 324 22 q 424 88 399 57 q 461 162 449 119 q 474 253 474 204 q 444 369 474 321 q 347 417 414 417 q 303 407 325 417 q 263 381 281 397 q 235 345 246 365 q 225 303 225 325 q 213 292 225 292 q 201 303 201 292 q 215 355 201 331 q 249 398 228 379 q 296 428 269 417 q 347 439 322 439 q 416 424 388 439 q 462 383 444 408 q 488 323 479 357 q 496 253 496 289 q 481 149 496 196 q 436 69 465 103 q 366 18 407 36 q 274 0 325 0 m 397 1043 l 479 1107 q 495 1106 489 1114 q 493 1090 501 1097 l 410 1026 q 394 1028 400 1019 q 397 1043 388 1036 z "},"":{"ha":410,"x_min":-24,"x_max":408,"o":"m -1 183 q 13 106 -1 138 q 49 53 26 74 q 102 22 72 32 q 165 13 132 13 q 245 31 208 13 q 310 78 282 50 q 357 137 339 106 q 382 194 375 168 l 388 213 q 401 220 390 222 q 408 207 411 218 l 404 189 q 375 119 396 156 q 323 53 354 83 q 251 5 292 24 q 165 -14 211 -14 q 31 35 86 -14 q -24 183 -24 85 q -22 210 -24 196 q -16 249 -21 225 q -2 310 -11 274 q 22 401 7 346 q 77 506 40 467 q 178 546 114 546 q 244 532 217 546 q 286 494 271 518 q 305 440 301 471 q 300 376 308 410 q 294 369 299 371 q 286 368 290 367 q 279 373 282 369 q 278 382 276 376 q 265 486 293 449 q 178 524 238 524 q 89 485 121 524 q 43 394 57 446 q 19 305 28 340 q 6 247 10 269 q 0 209 1 224 q -1 183 -1 194 m 192 649 l 274 713 q 290 711 283 719 q 288 696 296 703 l 204 632 q 188 633 194 625 q 192 649 182 642 z "},"":{"ha":610,"x_min":7,"x_max":528,"o":"m 274 0 q 143 37 194 0 q 61 130 92 74 q 19 254 31 186 q 7 385 7 322 q 17 501 7 440 q 47 622 26 563 q 97 734 67 681 q 168 828 128 788 q 258 894 208 869 q 368 918 308 918 q 429 908 400 918 q 480 881 458 899 q 515 837 501 863 q 528 779 528 811 q 517 725 528 750 q 489 681 507 700 q 446 652 471 663 q 393 642 421 642 q 383 653 382 642 q 393 664 383 664 q 441 674 419 664 q 477 701 463 685 q 499 738 492 718 q 507 779 507 758 q 495 830 507 808 q 463 866 483 851 q 418 888 443 881 q 368 894 393 894 q 260 869 308 894 q 175 803 213 844 q 110 708 138 761 q 64 598 82 654 q 38 486 46 542 q 29 385 29 431 q 41 256 29 321 q 81 140 53 192 q 156 55 108 88 q 274 22 203 22 q 361 40 324 22 q 424 88 399 57 q 461 162 449 119 q 474 253 474 204 q 444 369 474 321 q 347 417 414 417 q 303 407 325 417 q 263 381 281 397 q 235 345 246 365 q 225 303 225 325 q 213 292 225 292 q 201 303 201 292 q 215 355 201 331 q 249 398 228 379 q 296 428 269 417 q 347 439 322 439 q 416 424 388 439 q 462 383 444 408 q 488 323 479 357 q 496 253 496 289 q 481 149 496 196 q 436 69 465 103 q 366 18 407 36 q 274 0 325 0 m 463 1028 l 424 1082 l 351 1026 q 334 1028 340 1019 q 335 1043 328 1036 l 419 1107 q 428 1109 424 1111 q 436 1104 433 1107 l 481 1042 q 478 1026 488 1032 q 463 1028 469 1021 z "},"":{"ha":410,"x_min":-24,"x_max":408,"o":"m -1 183 q 13 106 -1 138 q 49 53 26 74 q 102 22 72 32 q 165 13 132 13 q 245 31 208 13 q 310 78 282 50 q 357 137 339 106 q 382 194 375 168 l 388 213 q 401 220 390 222 q 408 207 411 218 l 404 189 q 375 119 396 156 q 323 53 354 83 q 251 5 292 24 q 165 -14 211 -14 q 31 35 86 -14 q -24 183 -24 85 q -22 210 -24 196 q -16 249 -21 225 q -2 310 -11 274 q 22 401 7 346 q 77 506 40 467 q 178 546 114 546 q 244 532 217 546 q 286 494 271 518 q 305 440 301 471 q 300 376 308 410 q 294 369 299 371 q 286 368 290 367 q 279 373 282 369 q 278 382 276 376 q 265 486 293 449 q 178 524 238 524 q 89 485 121 524 q 43 394 57 446 q 19 305 28 340 q 6 247 10 269 q 0 209 1 224 q -1 183 -1 194 m 293 639 l 254 693 l 182 638 q 165 639 171 631 q 165 654 158 647 l 250 718 q 259 720 254 722 q 267 715 264 718 l 311 653 q 309 638 318 643 q 293 639 300 632 z "},"":{"ha":610,"x_min":7,"x_max":528,"o":"m 274 0 q 143 37 194 0 q 61 130 92 74 q 19 254 31 186 q 7 385 7 322 q 17 501 7 440 q 47 622 26 563 q 97 734 67 681 q 168 828 128 788 q 258 894 208 869 q 368 918 308 918 q 429 908 400 918 q 480 881 458 899 q 515 837 501 863 q 528 779 528 811 q 517 725 528 750 q 489 681 507 700 q 446 652 471 663 q 393 642 421 642 q 383 653 382 642 q 393 664 383 664 q 441 674 419 664 q 477 701 463 685 q 499 738 492 718 q 507 779 507 758 q 495 830 507 808 q 463 866 483 851 q 418 888 443 881 q 368 894 393 894 q 260 869 308 894 q 175 803 213 844 q 110 708 138 761 q 64 598 82 654 q 38 486 46 542 q 29 385 29 431 q 41 256 29 321 q 81 140 53 192 q 156 55 108 88 q 274 22 203 22 q 361 40 324 22 q 424 88 399 57 q 461 162 449 119 q 474 253 474 204 q 444 369 474 321 q 347 417 414 417 q 303 407 325 417 q 263 381 281 397 q 235 345 246 365 q 225 303 225 325 q 213 292 225 292 q 201 303 201 292 q 215 355 201 331 q 249 398 228 379 q 296 428 269 417 q 347 439 322 439 q 416 424 388 439 q 462 383 444 408 q 488 323 479 357 q 496 253 496 289 q 481 149 496 196 q 436 69 465 103 q 366 18 407 36 q 274 0 325 0 m 461 1050 q 450 1032 458 1039 q 432 1025 442 1025 q 413 1050 408 1025 q 424 1067 415 1060 q 442 1075 432 1075 q 458 1067 453 1075 q 461 1050 464 1060 z "},"":{"ha":410,"x_min":-24,"x_max":408,"o":"m -1 183 q 13 106 -1 138 q 49 53 26 74 q 102 22 72 32 q 165 13 132 13 q 245 31 208 13 q 310 78 282 50 q 357 137 339 106 q 382 194 375 168 l 388 213 q 401 220 390 222 q 408 207 411 218 l 404 189 q 375 119 396 156 q 323 53 354 83 q 251 5 292 24 q 165 -14 211 -14 q 31 35 86 -14 q -24 183 -24 85 q -22 210 -24 196 q -16 249 -21 225 q -2 310 -11 274 q 22 401 7 346 q 77 506 40 467 q 178 546 114 546 q 244 532 217 546 q 286 494 271 518 q 305 440 301 471 q 300 376 308 410 q 294 369 299 371 q 286 368 290 367 q 279 373 282 369 q 278 382 276 376 q 265 486 293 449 q 178 524 238 524 q 89 485 121 524 q 43 394 57 446 q 19 305 28 340 q 6 247 10 269 q 0 209 1 224 q -1 183 -1 194 m 258 661 q 247 643 256 650 q 229 636 239 636 q 210 661 206 636 q 221 678 213 671 q 239 686 229 686 q 256 678 250 686 q 258 661 261 671 z "},"":{"ha":610,"x_min":7,"x_max":528,"o":"m 274 0 q 143 37 194 0 q 61 130 92 74 q 19 254 31 186 q 7 385 7 322 q 17 501 7 440 q 47 622 26 563 q 97 734 67 681 q 168 828 128 788 q 258 894 208 869 q 368 918 308 918 q 429 908 400 918 q 480 881 458 899 q 515 837 501 863 q 528 779 528 811 q 517 725 528 750 q 489 681 507 700 q 446 652 471 663 q 393 642 421 642 q 383 653 382 642 q 393 664 383 664 q 441 674 419 664 q 477 701 463 685 q 499 738 492 718 q 507 779 507 758 q 495 830 507 808 q 463 866 483 851 q 418 888 443 881 q 368 894 393 894 q 260 869 308 894 q 175 803 213 844 q 110 708 138 761 q 64 598 82 654 q 38 486 46 542 q 29 385 29 431 q 41 256 29 321 q 81 140 53 192 q 156 55 108 88 q 274 22 203 22 q 361 40 324 22 q 424 88 399 57 q 461 162 449 119 q 474 253 474 204 q 444 369 474 321 q 347 417 414 417 q 303 407 325 417 q 263 381 281 397 q 235 345 246 365 q 225 303 225 325 q 213 292 225 292 q 201 303 201 292 q 215 355 201 331 q 249 398 228 379 q 296 428 269 417 q 347 439 322 439 q 416 424 388 439 q 462 383 444 408 q 488 323 479 357 q 496 253 496 289 q 481 149 496 196 q 436 69 465 103 q 366 18 407 36 q 274 0 325 0 m 388 1111 l 424 1056 l 497 1114 q 506 1115 501 1117 q 513 1110 510 1114 q 515 1102 515 1107 q 511 1094 515 1097 l 428 1032 q 418 1030 422 1029 q 413 1033 414 1031 l 365 1097 q 370 1113 361 1107 q 388 1111 379 1118 z "},"":{"ha":410,"x_min":-24,"x_max":408,"o":"m -1 183 q 13 106 -1 138 q 49 53 26 74 q 102 22 72 32 q 165 13 132 13 q 245 31 208 13 q 310 78 282 50 q 357 137 339 106 q 382 194 375 168 l 388 213 q 401 220 390 222 q 408 207 411 218 l 404 189 q 375 119 396 156 q 323 53 354 83 q 251 5 292 24 q 165 -14 211 -14 q 31 35 86 -14 q -24 183 -24 85 q -22 210 -24 196 q -16 249 -21 225 q -2 310 -11 274 q 22 401 7 346 q 77 506 40 467 q 178 546 114 546 q 244 532 217 546 q 286 494 271 518 q 305 440 301 471 q 300 376 308 410 q 294 369 299 371 q 286 368 290 367 q 279 373 282 369 q 278 382 276 376 q 265 486 293 449 q 178 524 238 524 q 89 485 121 524 q 43 394 57 446 q 19 305 28 340 q 6 247 10 269 q 0 209 1 224 q -1 183 -1 194 m 197 722 l 233 667 l 307 725 q 315 726 311 728 q 322 722 319 725 q 325 713 325 718 q 321 706 325 708 l 238 643 q 228 641 232 640 q 222 644 224 642 l 175 708 q 180 724 171 718 q 197 722 189 729 z "},"":{"ha":1115,"x_min":7,"x_max":981,"o":"m 649 0 q 492 41 561 0 q 368 138 422 82 q 151 0 286 0 q 89 11 115 0 q 44 41 63 22 q 16 83 25 60 q 7 131 7 106 q 22 189 7 164 q 59 231 36 214 q 111 256 82 247 q 169 264 140 264 q 276 238 231 264 q 363 174 322 211 q 395 247 379 203 q 425 339 411 290 q 450 434 439 388 q 468 514 461 481 q 499 635 483 576 q 532 745 514 694 q 572 835 550 796 q 626 897 594 874 q 601 899 614 899 q 574 900 588 900 q 465 889 513 900 q 378 861 417 878 q 312 824 340 844 q 264 782 283 803 q 193 671 221 735 q 176 598 182 642 q 176 513 169 554 q 205 442 182 471 q 274 413 228 413 q 284 401 285 413 q 274 389 283 389 q 192 422 219 389 q 156 500 165 454 q 153 595 147 546 q 172 678 158 644 q 250 797 199 749 q 299 842 269 819 q 368 882 328 864 q 459 911 408 900 q 574 922 510 922 q 742 892 667 922 q 871 808 818 863 q 952 677 924 753 q 981 510 981 601 q 973 419 981 465 q 954 328 965 372 q 912 213 939 271 q 846 108 885 156 q 758 30 807 60 q 649 0 708 0 m 381 158 q 504 60 442 97 q 649 22 567 22 q 753 54 707 22 q 835 133 800 86 q 895 233 871 179 q 933 333 919 288 q 951 422 944 378 q 958 510 958 467 q 938 649 958 585 q 879 763 918 713 q 785 846 840 813 q 663 892 731 879 q 603 840 628 876 q 558 753 578 804 q 523 640 539 701 q 490 513 507 578 q 444 322 468 407 q 381 158 419 236 m 169 242 q 118 235 143 242 q 74 213 93 228 q 42 178 54 199 q 31 131 31 157 q 68 50 31 78 q 151 22 106 22 q 270 61 222 22 q 351 154 318 100 q 268 217 313 192 q 169 242 224 242 m 692 1111 l 728 1056 l 801 1114 q 810 1115 806 1117 q 817 1110 814 1114 q 819 1102 819 1107 q 815 1094 819 1097 l 732 1032 q 722 1030 726 1029 q 717 1033 718 1031 l 669 1097 q 674 1113 665 1107 q 692 1111 683 1118 z "},"":{"ha":539,"x_min":-33,"x_max":575,"o":"m 364 0 q 278 35 304 0 q 250 117 253 71 q 189 25 226 64 q 94 -14 151 -14 q 22 6 50 -14 q -19 56 -6 25 q -33 124 -32 88 q -25 197 -33 161 l 13 344 q 35 415 21 379 q 70 481 49 451 q 121 528 92 510 q 189 546 150 546 q 274 524 243 546 q 315 464 306 501 l 397 804 q 410 813 400 815 q 418 800 421 811 q 372 609 390 686 q 341 479 354 532 q 320 393 328 426 q 306 332 313 360 q 293 277 300 304 q 278 211 286 250 q 269 149 271 182 q 277 88 268 115 q 306 41 286 60 q 364 22 326 22 q 422 40 397 22 q 464 83 446 57 q 494 138 482 108 q 513 194 506 168 l 515 214 q 530 225 518 228 q 539 211 542 222 l 533 189 q 511 122 525 156 q 477 60 497 88 q 429 17 457 33 q 364 0 401 0 m -3 192 q -9 127 -10 160 q 3 68 -8 94 q 36 26 14 42 q 94 10 58 10 q 156 28 129 10 q 201 74 182 47 q 231 133 219 101 q 250 193 243 165 l 293 371 q 285 482 310 440 q 189 524 261 524 q 126 505 151 524 q 84 458 101 486 q 55 399 67 431 q 33 339 43 367 l -3 192 m 533 926 q 563 915 551 926 q 575 883 575 903 q 567 842 572 863 q 550 803 561 821 q 522 775 539 786 q 479 764 504 764 q 469 776 469 764 q 479 788 469 788 q 522 802 508 788 q 543 838 536 817 q 518 829 531 829 q 486 844 499 829 q 476 881 474 858 q 497 913 481 900 q 533 926 514 926 z "},"":{"ha":1115,"x_min":7,"x_max":981,"o":"m 649 0 q 492 41 561 0 q 368 138 422 82 q 151 0 286 0 q 89 11 115 0 q 44 41 63 22 q 16 83 25 60 q 7 131 7 106 q 22 189 7 164 q 59 231 36 214 q 111 256 82 247 q 169 264 140 264 q 276 238 231 264 q 363 174 322 211 q 395 247 379 203 q 425 339 411 290 q 450 434 439 388 q 468 514 461 481 q 499 635 483 576 q 532 745 514 694 q 572 835 550 796 q 626 897 594 874 q 601 899 614 899 q 574 900 588 900 q 465 889 513 900 q 378 861 417 878 q 312 824 340 844 q 264 782 283 803 q 193 671 221 735 q 176 598 182 642 q 176 513 169 554 q 205 442 182 471 q 274 413 228 413 q 284 401 285 413 q 274 389 283 389 q 192 422 219 389 q 156 500 165 454 q 153 595 147 546 q 172 678 158 644 q 250 797 199 749 q 299 842 269 819 q 368 882 328 864 q 459 911 408 900 q 574 922 510 922 q 742 892 667 922 q 871 808 818 863 q 952 677 924 753 q 981 510 981 601 q 973 419 981 465 q 954 328 965 372 q 912 213 939 271 q 846 108 885 156 q 758 30 807 60 q 649 0 708 0 m 381 158 q 504 60 442 97 q 649 22 567 22 q 753 54 707 22 q 835 133 800 86 q 895 233 871 179 q 933 333 919 288 q 951 422 944 378 q 958 510 958 467 q 938 649 958 585 q 879 763 918 713 q 785 846 840 813 q 663 892 731 879 q 603 840 628 876 q 558 753 578 804 q 523 640 539 701 q 490 513 507 578 q 444 322 468 407 q 381 158 419 236 m 169 242 q 118 235 143 242 q 74 213 93 228 q 42 178 54 199 q 31 131 31 157 q 68 50 31 78 q 151 22 106 22 q 270 61 222 22 q 351 154 318 100 q 268 217 313 192 q 169 242 224 242 m 354 513 q 345 523 344 513 q 354 533 346 533 l 675 533 q 687 523 688 533 q 675 513 686 513 l 354 513 z "},"":{"ha":539,"x_min":-33,"x_max":539,"o":"m 364 0 q 278 35 304 0 q 250 117 253 71 q 189 25 226 64 q 94 -14 151 -14 q 22 6 50 -14 q -19 56 -6 25 q -33 124 -32 88 q -25 197 -33 161 l 13 344 q 35 415 21 379 q 70 481 49 451 q 121 528 92 510 q 189 546 150 546 q 274 524 243 546 q 315 464 306 501 l 397 804 q 410 813 400 815 q 418 800 421 811 q 372 609 390 686 q 341 479 354 532 q 320 393 328 426 q 306 332 313 360 q 293 277 300 304 q 278 211 286 250 q 269 149 271 182 q 277 88 268 115 q 306 41 286 60 q 364 22 326 22 q 422 40 397 22 q 464 83 446 57 q 494 138 482 108 q 513 194 506 168 l 515 214 q 530 225 518 228 q 539 211 542 222 l 533 189 q 511 122 525 156 q 477 60 497 88 q 429 17 457 33 q 364 0 401 0 m -3 192 q -9 127 -10 160 q 3 68 -8 94 q 36 26 14 42 q 94 10 58 10 q 156 28 129 10 q 201 74 182 47 q 231 133 219 101 q 250 193 243 165 l 293 371 q 285 482 310 440 q 189 524 261 524 q 126 505 151 524 q 84 458 101 486 q 55 399 67 431 q 33 339 43 367 l -3 192 m 129 644 q 120 655 119 644 q 129 665 121 665 l 450 665 q 462 655 463 665 q 450 644 461 644 l 129 644 z "},"":{"ha":614,"x_min":7,"x_max":518,"o":"m 238 0 q 142 19 185 0 q 69 70 99 38 q 23 146 39 103 q 7 239 7 189 q 23 342 7 293 q 68 429 39 390 q 137 496 97 468 q 224 536 176 524 q 141 600 171 556 q 111 704 111 644 q 128 791 111 751 q 176 858 146 831 q 247 902 207 886 q 331 918 286 918 q 391 908 363 918 q 442 881 419 899 q 476 838 464 864 q 489 779 489 813 q 452 681 489 721 q 357 642 415 642 q 347 653 346 642 q 357 664 347 664 q 406 674 385 664 q 440 701 426 685 q 460 738 453 718 q 467 779 467 758 q 455 831 467 808 q 424 867 443 853 q 381 888 406 881 q 331 894 356 894 q 253 880 289 894 q 190 840 217 865 q 149 781 164 815 q 133 704 133 746 q 178 590 133 636 q 296 544 224 544 l 331 544 q 343 535 343 544 q 340 526 343 531 q 331 522 336 522 l 297 522 q 188 499 238 522 q 103 436 139 475 q 49 346 68 397 q 29 239 29 294 q 44 152 29 192 q 88 83 60 113 q 153 38 115 54 q 238 22 192 22 q 336 40 289 22 q 419 88 383 57 q 475 160 454 118 q 496 254 496 203 q 457 363 496 318 q 356 407 418 407 q 312 397 333 407 q 273 372 290 388 q 244 335 256 356 q 233 292 233 314 q 222 281 233 281 q 211 292 211 281 q 224 344 211 319 q 258 388 238 369 q 305 418 279 407 q 356 429 331 429 q 424 415 394 429 q 475 376 454 400 q 507 320 496 351 q 518 254 518 289 q 494 149 518 196 q 431 68 471 101 q 341 17 392 35 q 238 0 290 0 m 207 1029 q 198 1040 197 1029 q 207 1051 199 1051 l 403 1051 q 415 1040 415 1051 q 403 1029 414 1029 l 207 1029 z "},"":{"ha":408,"x_min":-25,"x_max":408,"o":"m 175 -14 q 99 -1 135 -14 q 35 35 63 11 q -9 97 7 60 q -25 183 -25 133 q 2 275 -25 235 q 79 333 29 315 q 50 373 61 347 q 39 418 39 399 q 77 508 39 476 q 167 540 115 540 q 271 501 239 540 q 289 406 303 461 q 276 397 286 394 q 268 411 265 399 q 251 490 279 461 q 165 518 222 518 q 94 492 125 518 q 64 418 64 467 q 67 394 64 407 q 78 369 71 381 q 97 351 86 358 q 125 343 108 343 l 160 343 q 171 332 171 343 q 160 321 171 321 l 124 321 q 71 308 94 321 q 31 277 47 296 q 6 233 15 258 q -3 183 -3 208 q 13 106 -3 138 q 53 53 28 74 q 110 22 78 32 q 175 13 142 13 q 253 31 218 13 q 314 78 288 50 q 358 137 340 106 q 382 194 375 168 l 388 213 q 392 219 389 217 q 400 219 396 221 q 407 215 404 218 q 408 207 410 213 l 403 189 q 376 119 394 156 q 328 53 357 83 q 260 5 299 24 q 175 -14 222 -14 m 104 640 q 95 651 94 640 q 104 663 96 663 l 300 663 q 312 651 313 663 q 300 640 311 640 l 104 640 z "},"":{"ha":614,"x_min":7,"x_max":518,"o":"m 238 0 q 142 19 185 0 q 69 70 99 38 q 23 146 39 103 q 7 239 7 189 q 23 342 7 293 q 68 429 39 390 q 137 496 97 468 q 224 536 176 524 q 141 600 171 556 q 111 704 111 644 q 128 791 111 751 q 176 858 146 831 q 247 902 207 886 q 331 918 286 918 q 391 908 363 918 q 442 881 419 899 q 476 838 464 864 q 489 779 489 813 q 452 681 489 721 q 357 642 415 642 q 347 653 346 642 q 357 664 347 664 q 406 674 385 664 q 440 701 426 685 q 460 738 453 718 q 467 779 467 758 q 455 831 467 808 q 424 867 443 853 q 381 888 406 881 q 331 894 356 894 q 253 880 289 894 q 190 840 217 865 q 149 781 164 815 q 133 704 133 746 q 178 590 133 636 q 296 544 224 544 l 331 544 q 343 535 343 544 q 340 526 343 531 q 331 522 336 522 l 297 522 q 188 499 238 522 q 103 436 139 475 q 49 346 68 397 q 29 239 29 294 q 44 152 29 192 q 88 83 60 113 q 153 38 115 54 q 238 22 192 22 q 336 40 289 22 q 419 88 383 57 q 475 160 454 118 q 496 254 496 203 q 457 363 496 318 q 356 407 418 407 q 312 397 333 407 q 273 372 290 388 q 244 335 256 356 q 233 292 233 314 q 222 281 233 281 q 211 292 211 281 q 224 344 211 319 q 258 388 238 369 q 305 418 279 407 q 356 429 331 429 q 424 415 394 429 q 475 376 454 400 q 507 320 496 351 q 518 254 518 289 q 494 149 518 196 q 431 68 471 101 q 341 17 392 35 q 238 0 290 0 m 347 1035 q 317 1059 325 1042 q 314 1097 308 1076 q 328 1106 317 1108 q 336 1092 340 1103 q 356 1056 331 1065 q 408 1061 381 1049 q 442 1097 435 1074 q 456 1106 444 1108 q 464 1092 467 1103 q 446 1060 458 1074 q 417 1040 433 1047 q 382 1031 400 1032 q 347 1035 364 1029 z "},"":{"ha":408,"x_min":-25,"x_max":408,"o":"m 175 -14 q 99 -1 135 -14 q 35 35 63 11 q -9 97 7 60 q -25 183 -25 133 q 2 275 -25 235 q 79 333 29 315 q 50 373 61 347 q 39 418 39 399 q 77 508 39 476 q 167 540 115 540 q 271 501 239 540 q 289 406 303 461 q 276 397 286 394 q 268 411 265 399 q 251 490 279 461 q 165 518 222 518 q 94 492 125 518 q 64 418 64 467 q 67 394 64 407 q 78 369 71 381 q 97 351 86 358 q 125 343 108 343 l 160 343 q 171 332 171 343 q 160 321 171 321 l 124 321 q 71 308 94 321 q 31 277 47 296 q 6 233 15 258 q -3 183 -3 208 q 13 106 -3 138 q 53 53 28 74 q 110 22 78 32 q 175 13 142 13 q 253 31 218 13 q 314 78 288 50 q 358 137 340 106 q 382 194 375 168 l 388 213 q 392 219 389 217 q 400 219 396 221 q 407 215 404 218 q 408 207 410 213 l 403 189 q 376 119 394 156 q 328 53 357 83 q 260 5 299 24 q 175 -14 222 -14 m 206 638 q 175 662 183 644 q 172 700 167 679 q 187 708 175 711 q 194 694 199 706 q 214 658 189 668 q 266 664 239 651 q 300 700 293 676 q 314 708 303 711 q 322 694 325 706 q 304 663 317 676 q 275 642 292 650 q 240 633 258 635 q 206 638 222 632 z "},"":{"ha":614,"x_min":7,"x_max":518,"o":"m 238 0 q 142 19 185 0 q 69 70 99 38 q 23 146 39 103 q 7 239 7 189 q 23 342 7 293 q 68 429 39 390 q 137 496 97 468 q 224 536 176 524 q 141 600 171 556 q 111 704 111 644 q 128 791 111 751 q 176 858 146 831 q 247 902 207 886 q 331 918 286 918 q 391 908 363 918 q 442 881 419 899 q 476 838 464 864 q 489 779 489 813 q 452 681 489 721 q 357 642 415 642 q 347 653 346 642 q 357 664 347 664 q 406 674 385 664 q 440 701 426 685 q 460 738 453 718 q 467 779 467 758 q 455 831 467 808 q 424 867 443 853 q 381 888 406 881 q 331 894 356 894 q 253 880 289 894 q 190 840 217 865 q 149 781 164 815 q 133 704 133 746 q 178 590 133 636 q 296 544 224 544 l 331 544 q 343 535 343 544 q 340 526 343 531 q 331 522 336 522 l 297 522 q 188 499 238 522 q 103 436 139 475 q 49 346 68 397 q 29 239 29 294 q 44 152 29 192 q 88 83 60 113 q 153 38 115 54 q 238 22 192 22 q 336 40 289 22 q 419 88 383 57 q 475 160 454 118 q 496 254 496 203 q 457 363 496 318 q 356 407 418 407 q 312 397 333 407 q 273 372 290 388 q 244 335 256 356 q 233 292 233 314 q 222 281 233 281 q 211 292 211 281 q 224 344 211 319 q 258 388 238 369 q 305 418 279 407 q 356 429 331 429 q 424 415 394 429 q 475 376 454 400 q 507 320 496 351 q 518 254 518 289 q 494 149 518 196 q 431 68 471 101 q 341 17 392 35 q 238 0 290 0 m 408 1053 q 397 1035 406 1042 q 379 1028 389 1028 q 360 1053 356 1028 q 371 1070 363 1063 q 389 1078 379 1078 q 406 1070 400 1078 q 408 1053 411 1063 z "},"":{"ha":408,"x_min":-25,"x_max":408,"o":"m 175 -14 q 99 -1 135 -14 q 35 35 63 11 q -9 97 7 60 q -25 183 -25 133 q 2 275 -25 235 q 79 333 29 315 q 50 373 61 347 q 39 418 39 399 q 77 508 39 476 q 167 540 115 540 q 271 501 239 540 q 289 406 303 461 q 276 397 286 394 q 268 411 265 399 q 251 490 279 461 q 165 518 222 518 q 94 492 125 518 q 64 418 64 467 q 67 394 64 407 q 78 369 71 381 q 97 351 86 358 q 125 343 108 343 l 160 343 q 171 332 171 343 q 160 321 171 321 l 124 321 q 71 308 94 321 q 31 277 47 296 q 6 233 15 258 q -3 183 -3 208 q 13 106 -3 138 q 53 53 28 74 q 110 22 78 32 q 175 13 142 13 q 253 31 218 13 q 314 78 288 50 q 358 137 340 106 q 382 194 375 168 l 388 213 q 392 219 389 217 q 400 219 396 221 q 407 215 404 218 q 408 207 410 213 l 403 189 q 376 119 394 156 q 328 53 357 83 q 260 5 299 24 q 175 -14 222 -14 m 269 657 q 258 639 267 646 q 240 632 250 632 q 221 657 217 632 q 232 674 224 667 q 250 682 240 682 q 267 674 261 682 q 269 657 272 667 z "},"":{"ha":614,"x_min":7,"x_max":518,"o":"m 238 0 q 142 19 185 0 q 69 70 99 38 q 23 146 39 103 q 7 239 7 189 q 23 342 7 293 q 68 429 39 390 q 137 496 97 468 q 224 536 176 524 q 141 600 171 556 q 111 704 111 644 q 128 791 111 751 q 176 858 146 831 q 247 902 207 886 q 331 918 286 918 q 391 908 363 918 q 442 881 419 899 q 476 838 464 864 q 489 779 489 813 q 452 681 489 721 q 357 642 415 642 q 347 653 346 642 q 357 664 347 664 q 406 674 385 664 q 440 701 426 685 q 460 738 453 718 q 467 779 467 758 q 455 831 467 808 q 424 867 443 853 q 381 888 406 881 q 331 894 356 894 q 253 880 289 894 q 190 840 217 865 q 149 781 164 815 q 133 704 133 746 q 178 590 133 636 q 296 544 224 544 l 331 544 q 343 535 343 544 q 340 526 343 531 q 331 522 336 522 l 297 522 q 188 499 238 522 q 103 436 139 475 q 49 346 68 397 q 29 239 29 294 q 44 152 29 192 q 88 83 60 113 q 153 38 115 54 q 238 22 192 22 q 336 40 289 22 q 419 88 383 57 q 475 160 454 118 q 496 254 496 203 q 457 363 496 318 q 356 407 418 407 q 312 397 333 407 q 273 372 290 388 q 244 335 256 356 q 233 292 233 314 q 222 281 233 281 q 211 292 211 281 q 224 344 211 319 q 258 388 238 369 q 305 418 279 407 q 356 429 331 429 q 424 415 394 429 q 475 376 454 400 q 507 320 496 351 q 518 254 518 289 q 494 149 518 196 q 431 68 471 101 q 341 17 392 35 q 238 0 290 0 m 206 -165 q 145 -146 169 -165 q 121 -93 121 -126 q 131 -47 121 -68 q 160 -11 142 -26 q 199 13 178 4 q 244 22 221 22 q 256 11 256 22 q 244 0 256 0 q 202 -9 221 0 q 170 -32 183 -18 q 150 -62 157 -46 q 143 -93 143 -79 q 163 -132 143 -121 q 206 -143 183 -143 q 216 -154 217 -143 q 206 -165 215 -165 z "}}}
